GentiumPlusMaster-Italic.ufo
<glyph name="ExclamationMrk" format="2">
  <advance width="410"/>
  <unicode hex="0021"/>
  <outline>
    <contour>
      <point x="446" y="1411" type="line"/>
      <point x="410" y="1436" type="line"/>
      <point x="354" y="1421"/>
      <point x="276" y="1368"/>
      <point x="238" y="1341" type="curve"/>
      <point x="152" y="371" type="line"/>
      <point x="176" y="350" type="line"/>
      <point x="209" y="360"/>
      <point x="225" y="371"/>
      <point x="250" y="389" type="curve"/>
    </contour>
    <contour>
      <point x="283" y="152" type="curve"/>
      <point x="283" y="207"/>
      <point x="250" y="246"/>
      <point x="201" y="246" type="curve" smooth="yes"/>
      <point x="117" y="246"/>
      <point x="51" y="145"/>
      <point x="51" y="68" type="curve" smooth="yes"/>
      <point x="51" y="8"/>
      <point x="82" y="-31"/>
      <point x="135" y="-31" type="curve" smooth="yes"/>
      <point x="225" y="-31"/>
      <point x="283" y="70"/>
    </contour>
  </outline>
</glyph>
<glyph name="Ampersand" format="2">
  <advance width="1190"/>
  <unicode hex="0026"/>
  <outline>
    <contour>
      <point x="1274" y="748" type="curve"/>
      <point x="1257" y="784" type="line"/>
      <point x="858" y="784" type="line"/>
      <point x="831" y="774"/>
      <point x="801" y="750"/>
      <point x="784" y="733" type="curve"/>
      <point x="801" y="705" type="line"/>
      <point x="864" y="705"/>
      <point x="921" y="629"/>
      <point x="921" y="524" type="curve" smooth="yes"/>
      <point x="921" y="510"/>
      <point x="920" y="496"/>
      <point x="918" y="481" type="curve" smooth="yes"/>
      <point x="891" y="313"/>
      <point x="709" y="84"/>
      <point x="446" y="84" type="curve" smooth="yes"/>
      <point x="325" y="84"/>
      <point x="212" y="178"/>
      <point x="212" y="336" type="curve" smooth="yes"/>
      <point x="212" y="351"/>
      <point x="213" y="367"/>
      <point x="215" y="383" type="curve" smooth="yes"/>
      <point x="238" y="539"/>
      <point x="345" y="655"/>
      <point x="633" y="838" type="curve" smooth="yes"/>
      <point x="786" y="935"/>
      <point x="897" y="1059"/>
      <point x="918" y="1194" type="curve" smooth="yes"/>
      <point x="921" y="1213"/>
      <point x="922" y="1231"/>
      <point x="922" y="1249" type="curve" smooth="yes"/>
      <point x="922" y="1359"/>
      <point x="872" y="1450"/>
      <point x="741" y="1450" type="curve" smooth="yes"/>
      <point x="580" y="1450"/>
      <point x="422" y="1288"/>
      <point x="393" y="1073" type="curve" smooth="yes"/>
      <point x="390" y="1047"/>
      <point x="388" y="1021"/>
      <point x="388" y="995" type="curve" smooth="yes"/>
      <point x="388" y="547"/>
      <point x="847" y="-31"/>
      <point x="930" y="-31" type="curve" smooth="yes"/>
      <point x="956" y="-31"/>
      <point x="1032" y="-6"/>
      <point x="1145" y="45" type="curve"/>
      <point x="1143" y="88" type="line"/>
      <point x="1122" y="83"/>
      <point x="1104" y="80"/>
      <point x="1087" y="80" type="curve" smooth="yes"/>
      <point x="1044" y="80"/>
      <point x="1011" y="97"/>
      <point x="981" y="127" type="curve" smooth="yes"/>
      <point x="800" y="313"/>
      <point x="512" y="745"/>
      <point x="512" y="1065" type="curve" smooth="yes"/>
      <point x="512" y="1087"/>
      <point x="513" y="1109"/>
      <point x="516" y="1130" type="curve" smooth="yes"/>
      <point x="530" y="1235"/>
      <point x="582" y="1343"/>
      <point x="678" y="1343" type="curve" smooth="yes"/>
      <point x="758" y="1343"/>
      <point x="792" y="1289"/>
      <point x="792" y="1217" type="curve" smooth="yes"/>
      <point x="792" y="1199"/>
      <point x="789" y="1180"/>
      <point x="786" y="1161" type="curve" smooth="yes"/>
      <point x="773" y="1075"/>
      <point x="712" y="980"/>
      <point x="547" y="885" type="curve" smooth="yes"/>
      <point x="273" y="727"/>
      <point x="92" y="543"/>
      <point x="68" y="362" type="curve" smooth="yes"/>
      <point x="65" y="337"/>
      <point x="63" y="314"/>
      <point x="63" y="291" type="curve" smooth="yes"/>
      <point x="63" y="86"/>
      <point x="202" y="-31"/>
      <point x="403" y="-31" type="curve" smooth="yes"/>
      <point x="733" y="-31"/>
      <point x="999" y="293"/>
      <point x="1032" y="522" type="curve" smooth="yes"/>
      <point x="1037" y="559"/>
      <point x="1040" y="588"/>
      <point x="1040" y="613" type="curve" smooth="yes"/>
      <point x="1040" y="647"/>
      <point x="1035" y="673"/>
      <point x="1024" y="700" type="curve"/>
      <point x="1065" y="698"/>
      <point x="1133" y="682"/>
      <point x="1174" y="659" type="curve"/>
      <point x="1206" y="682"/>
      <point x="1239" y="707"/>
    </contour>
  </outline>
</glyph>
<glyph name="Asterisk" format="2">
  <advance width="725"/>
  <unicode hex="002A"/>
  <outline>
    <contour>
      <point x="764" y="1317" type="line"/>
      <point x="750" y="1339"/>
      <point x="709" y="1366"/>
      <point x="686" y="1384" type="curve"/>
      <point x="248" y="1067" type="line"/>
      <point x="258" y="1040"/>
      <point x="250" y="1073"/>
      <point x="268" y="1061" type="curve"/>
      <point x="760" y="1276" type="line"/>
    </contour>
    <contour>
      <point x="504" y="1540" type="line"/>
      <point x="471" y="1561" type="line"/>
      <point x="442" y="1554"/>
      <point x="395" y="1528"/>
      <point x="367" y="1513" type="curve"/>
      <point x="350" y="987" type="line"/>
      <point x="381" y="987"/>
      <point x="348" y="993"/>
      <point x="369" y="1004" type="curve"/>
    </contour>
    <contour>
      <point x="698" y="1006" type="curve"/>
      <point x="276" y="1214" type="line"/>
      <point x="258" y="1188"/>
      <point x="283" y="1214"/>
      <point x="279" y="1192" type="curve"/>
      <point x="635" y="868" type="line"/>
      <point x="672" y="891" type="line"/>
      <point x="684" y="920"/>
      <point x="692" y="973"/>
    </contour>
    <contour>
      <point x="481" y="1055" type="line"/>
      <point x="500" y="1081"/>
      <point x="475" y="1053"/>
      <point x="479" y="1077" type="curve"/>
      <point x="123" y="1399" type="line"/>
      <point x="86" y="1376" type="line"/>
      <point x="74" y="1350"/>
      <point x="66" y="1294"/>
      <point x="59" y="1262" type="curve"/>
    </contour>
    <contour>
      <point x="408" y="1280" type="line"/>
      <point x="379" y="1280"/>
      <point x="410" y="1276"/>
      <point x="389" y="1264" type="curve"/>
      <point x="256" y="727" type="line"/>
      <point x="287" y="709" type="line"/>
      <point x="313" y="715"/>
      <point x="362" y="739"/>
      <point x="391" y="756" type="curve"/>
    </contour>
    <contour>
      <point x="510" y="1200" type="line"/>
      <point x="498" y="1227"/>
      <point x="508" y="1194"/>
      <point x="489" y="1206" type="curve"/>
      <point x="0" y="993" type="line"/>
      <point x="-6" y="950" type="line"/>
      <point x="8" y="930"/>
      <point x="47" y="901"/>
      <point x="72" y="883" type="curve"/>
    </contour>
  </outline>
</glyph>
<glyph name="PlusSgn" format="2">
  <advance width="770"/>
  <unicode hex="002B"/>
  <outline>
    <contour>
      <point x="504" y="871" type="line"/>
      <point x="481" y="895" type="line"/>
      <point x="455" y="889"/>
      <point x="405" y="873"/>
      <point x="381" y="865" type="curve"/>
      <point x="296" y="256" type="line"/>
      <point x="319" y="232" type="line"/>
      <point x="347" y="238"/>
      <point x="393" y="252"/>
      <point x="418" y="264" type="curve"/>
    </contour>
    <contour>
      <point x="720" y="597" type="curve"/>
      <point x="702" y="621" type="line"/>
      <point x="115" y="621" type="line"/>
      <point x="100" y="595"/>
      <point x="83" y="557"/>
      <point x="74" y="530" type="curve"/>
      <point x="93" y="506" type="line"/>
      <point x="681" y="506" type="line"/>
      <point x="694" y="528"/>
      <point x="712" y="570"/>
    </contour>
  </outline>
</glyph>
<glyph name="Comma" format="2">
  <advance width="410"/>
  <unicode hex="002C"/>
  <outline>
    <contour>
      <point x="303" y="102" type="curve"/>
      <point x="303" y="184"/>
      <point x="285" y="203"/>
      <point x="238" y="229" type="curve"/>
      <point x="195" y="231"/>
      <point x="47" y="160"/>
      <point x="18" y="129" type="curve"/>
      <point x="27" y="84" type="line"/>
      <point x="109" y="96"/>
      <point x="135" y="49"/>
      <point x="135" y="0" type="curve" smooth="yes"/>
      <point x="135" y="-72"/>
      <point x="84" y="-162"/>
      <point x="-18" y="-270" type="curve"/>
      <point x="16" y="-305" type="line"/>
      <point x="156" y="-221"/>
      <point x="303" y="0"/>
    </contour>
  </outline>
</glyph>
<glyph name="DigitZero" format="2">
  <advance width="823"/>
  <unicode hex="0030"/>
  <anchor x="320" y="-100" name="L"/>
  <anchor x="520" y="1320" name="U"/>
  <outline>
    <contour>
      <point x="803" y="784" type="curve"/>
      <point x="803" y="1044"/>
      <point x="715" y="1235"/>
      <point x="528" y="1235" type="curve" smooth="yes"/>
      <point x="369" y="1235"/>
      <point x="256" y="1114"/>
      <point x="172" y="961" type="curve" smooth="yes"/>
      <point x="78" y="784"/>
      <point x="47" y="578"/>
      <point x="47" y="422" type="curve" smooth="yes"/>
      <point x="47" y="164"/>
      <point x="133" y="-31"/>
      <point x="319" y="-31" type="curve" smooth="yes"/>
      <point x="475" y="-31"/>
      <point x="584" y="88"/>
      <point x="672" y="236" type="curve" smooth="yes"/>
      <point x="774" y="408"/>
      <point x="803" y="625"/>
    </contour>
    <contour>
      <point x="649" y="786" type="curve"/>
      <point x="649" y="596"/>
      <point x="604" y="86"/>
      <point x="373" y="86" type="curve" smooth="yes"/>
      <point x="266" y="86"/>
      <point x="199" y="207"/>
      <point x="199" y="440" type="curve" smooth="yes"/>
      <point x="199" y="627"/>
      <point x="252" y="1120"/>
      <point x="477" y="1120" type="curve" smooth="yes"/>
      <point x="571" y="1120"/>
      <point x="649" y="1006"/>
    </contour>
  </outline>
</glyph>
<glyph name="DigitOne" format="2">
  <advance width="823"/>
  <unicode hex="0031"/>
  <anchor x="320" y="-100" name="L"/>
  <anchor x="520" y="1320" name="U"/>
  <outline>
    <contour>
      <point x="674" y="53" type="line"/>
      <point x="496" y="78"/>
      <point x="457" y="117"/>
      <point x="461" y="143" type="curve" smooth="yes"/>
      <point x="606" y="1210" type="line"/>
      <point x="578" y="1245" type="line"/>
      <point x="492" y="1196"/>
      <point x="285" y="1106"/>
      <point x="182" y="1075" type="curve"/>
      <point x="195" y="1024" type="line"/>
      <point x="356" y="1061"/>
      <point x="420" y="1055"/>
      <point x="432" y="1038" type="curve" smooth="yes"/>
      <point x="444" y="1020"/>
      <point x="442" y="993"/>
      <point x="434" y="940" type="curve" smooth="yes"/>
      <point x="326" y="143" type="line" smooth="yes"/>
      <point x="322" y="115"/>
      <point x="262" y="78"/>
      <point x="70" y="53" type="curve"/>
      <point x="63" y="0" type="line"/>
      <point x="666" y="0" type="line"/>
    </contour>
  </outline>
</glyph>
<glyph name="DigitTwo" format="2">
  <advance width="823"/>
  <unicode hex="0032"/>
  <anchor x="320" y="-100" name="L"/>
  <anchor x="520" y="1320" name="U"/>
  <outline>
    <contour>
      <point x="784" y="1006" type="curve"/>
      <point x="784" y="1165"/>
      <point x="674" y="1235"/>
      <point x="541" y="1235" type="curve" smooth="yes"/>
      <point x="356" y="1235"/>
      <point x="166" y="1053"/>
      <point x="147" y="915" type="curve"/>
      <point x="168" y="885" type="line"/>
      <point x="223" y="891"/>
      <point x="248" y="909"/>
      <point x="291" y="934" type="curve"/>
      <point x="303" y="1028"/>
      <point x="369" y="1141"/>
      <point x="467" y="1141" type="curve" smooth="yes"/>
      <point x="578" y="1141"/>
      <point x="641" y="1073"/>
      <point x="641" y="977" type="curve" smooth="yes"/>
      <point x="641" y="809"/>
      <point x="485" y="557"/>
      <point x="0" y="74" type="curve"/>
      <point x="14" y="0" type="line"/>
      <point x="649" y="0" type="line"/>
      <point x="700" y="287" type="line"/>
      <point x="657" y="299" type="line"/>
      <point x="657" y="299"/>
      <point x="618" y="115"/>
      <point x="539" y="115" type="curve" smooth="yes"/>
      <point x="164" y="115" type="line"/>
      <point x="655" y="621"/>
      <point x="784" y="840"/>
    </contour>
  </outline>
</glyph>
<glyph name="DigitThree" format="2">
  <advance width="823"/>
  <unicode hex="0033"/>
  <anchor x="320" y="-100" name="L"/>
  <anchor x="520" y="1320" name="U"/>
  <outline>
    <contour>
      <point x="733" y="1001" type="curve"/>
      <point x="733" y="1122"/>
      <point x="657" y="1235"/>
      <point x="496" y="1235" type="curve" smooth="yes"/>
      <point x="326" y="1235"/>
      <point x="152" y="1077"/>
      <point x="135" y="965" type="curve"/>
      <point x="156" y="934" type="line"/>
      <point x="207" y="938"/>
      <point x="242" y="950"/>
      <point x="287" y="973" type="curve"/>
      <point x="285" y="1063"/>
      <point x="346" y="1141"/>
      <point x="440" y="1141" type="curve" smooth="yes"/>
      <point x="547" y="1141"/>
      <point x="590" y="1057"/>
      <point x="590" y="973" type="curve" smooth="yes"/>
      <point x="590" y="797"/>
      <point x="451" y="721"/>
      <point x="297" y="676" type="curve"/>
      <point x="303" y="616" type="line"/>
      <point x="340" y="623"/>
      <point x="330" y="623"/>
      <point x="362" y="623" type="curve" smooth="yes"/>
      <point x="459" y="623"/>
      <point x="561" y="555"/>
      <point x="561" y="401" type="curve" smooth="yes"/>
      <point x="561" y="229"/>
      <point x="463" y="72"/>
      <point x="274" y="72" type="curve" smooth="yes"/>
      <point x="182" y="72"/>
      <point x="129" y="96"/>
      <point x="27" y="186" type="curve"/>
      <point x="-12" y="119" type="line"/>
      <point x="88" y="14"/>
      <point x="176" y="-31"/>
      <point x="270" y="-31" type="curve" smooth="yes"/>
      <point x="539" y="-31"/>
      <point x="709" y="178"/>
      <point x="709" y="428" type="curve" smooth="yes"/>
      <point x="709" y="561"/>
      <point x="625" y="682"/>
      <point x="504" y="698" type="curve"/>
      <point x="633" y="752"/>
      <point x="733" y="856"/>
    </contour>
  </outline>
</glyph>
<glyph name="DigitFour" format="2">
  <advance width="823"/>
  <unicode hex="0034"/>
  <anchor x="320" y="-100" name="L"/>
  <anchor x="520" y="1320" name="U"/>
  <outline>
    <contour>
      <point x="756" y="426" type="curve"/>
      <point x="733" y="457" type="line"/>
      <point x="625" y="457" type="line"/>
      <point x="727" y="1210" type="line"/>
      <point x="700" y="1245" type="line"/>
      <point x="664" y="1225"/>
      <point x="621" y="1198"/>
      <point x="565" y="1174" type="curve"/>
      <point x="12" y="383" type="line"/>
      <point x="39" y="350" type="line"/>
      <point x="483" y="350" type="line"/>
      <point x="453" y="115" type="line" smooth="yes"/>
      <point x="449" y="92"/>
      <point x="412" y="72"/>
      <point x="254" y="43" type="curve"/>
      <point x="248" y="0" type="line"/>
      <point x="688" y="0" type="line"/>
      <point x="694" y="43" type="line"/>
      <point x="598" y="68"/>
      <point x="573" y="84"/>
      <point x="578" y="104" type="curve"/>
      <point x="610" y="350" type="line"/>
      <point x="674" y="350" type="line"/>
      <point x="702" y="373"/>
      <point x="723" y="385"/>
    </contour>
    <contour>
      <point x="580" y="1040" type="line"/>
      <point x="500" y="455" type="line"/>
      <point x="162" y="455" type="line"/>
    </contour>
  </outline>
</glyph>
<glyph name="DigitFive" format="2">
  <advance width="823"/>
  <unicode hex="0035"/>
  <anchor x="320" y="-100" name="L"/>
  <anchor x="520" y="1320" name="U"/>
  <outline>
    <contour>
      <point x="799" y="1194" type="curve"/>
      <point x="776" y="1223" type="line"/>
      <point x="776" y="1223"/>
      <point x="733" y="1204"/>
      <point x="666" y="1204" type="curve" smooth="yes"/>
      <point x="272" y="1204" type="line"/>
      <point x="246" y="1063"/>
      <point x="160" y="768"/>
      <point x="119" y="623" type="curve"/>
      <point x="156" y="590" type="line"/>
      <point x="227" y="643"/>
      <point x="297" y="670"/>
      <point x="365" y="670" type="curve" smooth="yes"/>
      <point x="498" y="670"/>
      <point x="575" y="575"/>
      <point x="575" y="444" type="curve" smooth="yes"/>
      <point x="575" y="268"/>
      <point x="494" y="72"/>
      <point x="295" y="72" type="curve" smooth="yes"/>
      <point x="227" y="72"/>
      <point x="158" y="92"/>
      <point x="37" y="186" type="curve"/>
      <point x="-4" y="119" type="line"/>
      <point x="90" y="14"/>
      <point x="193" y="-31"/>
      <point x="303" y="-31" type="curve" smooth="yes"/>
      <point x="567" y="-31"/>
      <point x="723" y="238"/>
      <point x="723" y="477" type="curve" smooth="yes"/>
      <point x="723" y="635"/>
      <point x="618" y="780"/>
      <point x="434" y="780" type="curve" smooth="yes"/>
      <point x="373" y="780"/>
      <point x="301" y="770"/>
      <point x="252" y="754" type="curve"/>
      <point x="270" y="813"/>
      <point x="322" y="1001"/>
      <point x="338" y="1079" type="curve"/>
      <point x="686" y="1079" type="line"/>
      <point x="717" y="1102"/>
      <point x="766" y="1151"/>
    </contour>
  </outline>
</glyph>
<glyph name="DigitSix" format="2">
  <advance width="823"/>
  <unicode hex="0036"/>
  <anchor x="320" y="-100" name="L"/>
  <anchor x="520" y="1320" name="U"/>
  <outline>
    <contour>
      <point x="799" y="1190" type="curve"/>
      <point x="791" y="1249" type="line"/>
      <point x="346" y="1188"/>
      <point x="68" y="791"/>
      <point x="68" y="360" type="curve" smooth="yes"/>
      <point x="68" y="127"/>
      <point x="188" y="-31"/>
      <point x="360" y="-31" type="curve" smooth="yes"/>
      <point x="606" y="-31"/>
      <point x="762" y="266"/>
      <point x="762" y="483" type="curve" smooth="yes"/>
      <point x="762" y="662"/>
      <point x="674" y="770"/>
      <point x="504" y="770" type="curve" smooth="yes"/>
      <point x="418" y="770"/>
      <point x="307" y="729"/>
      <point x="193" y="588" type="curve"/>
      <point x="190" y="492" type="line"/>
      <point x="281" y="614"/>
      <point x="362" y="659"/>
      <point x="451" y="659" type="curve" smooth="yes"/>
      <point x="530" y="659"/>
      <point x="621" y="612"/>
      <point x="621" y="422" type="curve" smooth="yes"/>
      <point x="621" y="293"/>
      <point x="573" y="76"/>
      <point x="412" y="76" type="curve" smooth="yes"/>
      <point x="291" y="76"/>
      <point x="215" y="174"/>
      <point x="215" y="373" type="curve" smooth="yes"/>
      <point x="215" y="741"/>
      <point x="410" y="1108"/>
    </contour>
  </outline>
</glyph>
<glyph name="DigitSeven" format="2">
  <advance width="823"/>
  <unicode hex="0037"/>
  <anchor x="320" y="-100" name="L"/>
  <anchor x="520" y="1320" name="U"/>
  <outline>
    <contour>
      <point x="866" y="1167" type="curve"/>
      <point x="842" y="1204" type="line"/>
      <point x="207" y="1204" type="line"/>
      <point x="184" y="1145"/>
      <point x="150" y="1010"/>
      <point x="133" y="948" type="curve"/>
      <point x="170" y="930" type="line"/>
      <point x="244" y="1085"/>
      <point x="276" y="1079"/>
      <point x="311" y="1079" type="curve" smooth="yes"/>
      <point x="721" y="1079" type="line"/>
      <point x="541" y="741"/>
      <point x="379" y="410"/>
      <point x="117" y="2" type="curve"/>
      <point x="150" y="-31" type="line"/>
      <point x="209" y="-14"/>
      <point x="260" y="10"/>
      <point x="305" y="43" type="curve"/>
      <point x="397" y="256"/>
      <point x="641" y="737"/>
    </contour>
  </outline>
</glyph>
<glyph name="DigitEight" format="2">
  <advance width="823"/>
  <unicode hex="0038"/>
  <anchor x="320" y="-100" name="L"/>
  <anchor x="520" y="1320" name="U"/>
  <outline>
    <contour>
      <point x="778" y="1001" type="curve"/>
      <point x="778" y="1137"/>
      <point x="694" y="1235"/>
      <point x="530" y="1235" type="curve" smooth="yes"/>
      <point x="340" y="1235"/>
      <point x="164" y="1085"/>
      <point x="164" y="889" type="curve" smooth="yes"/>
      <point x="164" y="590"/>
      <point x="592" y="641"/>
      <point x="592" y="342" type="curve" smooth="yes"/>
      <point x="592" y="213"/>
      <point x="516" y="70"/>
      <point x="369" y="70" type="curve" smooth="yes"/>
      <point x="250" y="70"/>
      <point x="178" y="160"/>
      <point x="178" y="274" type="curve" smooth="yes"/>
      <point x="178" y="438"/>
      <point x="258" y="524"/>
      <point x="391" y="614" type="curve"/>
      <point x="332" y="651" type="line"/>
      <point x="182" y="571"/>
      <point x="33" y="436"/>
      <point x="33" y="250" type="curve" smooth="yes"/>
      <point x="33" y="102"/>
      <point x="127" y="-31"/>
      <point x="311" y="-31" type="curve" smooth="yes"/>
      <point x="539" y="-31"/>
      <point x="741" y="170"/>
      <point x="741" y="397" type="curve" smooth="yes"/>
      <point x="741" y="735"/>
      <point x="287" y="719"/>
      <point x="287" y="940" type="curve" smooth="yes"/>
      <point x="287" y="1042"/>
      <point x="365" y="1141"/>
      <point x="471" y="1141" type="curve" smooth="yes"/>
      <point x="575" y="1141"/>
      <point x="643" y="1083"/>
      <point x="643" y="975" type="curve" smooth="yes"/>
      <point x="643" y="848"/>
      <point x="567" y="770"/>
      <point x="465" y="709" type="curve"/>
      <point x="522" y="666" type="line"/>
      <point x="645" y="741"/>
      <point x="778" y="840"/>
    </contour>
  </outline>
</glyph>
<glyph name="DigitNine" format="2">
  <advance width="823"/>
  <unicode hex="0039"/>
  <anchor x="320" y="-100" name="L"/>
  <anchor x="520" y="1320" name="U"/>
  <outline>
    <contour>
      <point x="803" y="862" type="curve"/>
      <point x="803" y="1116"/>
      <point x="680" y="1235"/>
      <point x="535" y="1235" type="curve" smooth="yes"/>
      <point x="289" y="1235"/>
      <point x="104" y="950"/>
      <point x="104" y="725" type="curve" smooth="yes"/>
      <point x="104" y="563"/>
      <point x="207" y="444"/>
      <point x="367" y="444" type="curve" smooth="yes"/>
      <point x="494" y="444"/>
      <point x="606" y="530"/>
      <point x="680" y="649" type="curve"/>
      <point x="682" y="754" type="line"/>
      <point x="621" y="641"/>
      <point x="541" y="555"/>
      <point x="420" y="555" type="curve" smooth="yes"/>
      <point x="348" y="555"/>
      <point x="244" y="596"/>
      <point x="244" y="770" type="curve" smooth="yes"/>
      <point x="244" y="918"/>
      <point x="301" y="1130"/>
      <point x="483" y="1130" type="curve" smooth="yes"/>
      <point x="565" y="1130"/>
      <point x="653" y="1051"/>
      <point x="653" y="836" type="curve" smooth="yes"/>
      <point x="653" y="434"/>
      <point x="477" y="111"/>
      <point x="68" y="16" type="curve"/>
      <point x="76" y="-43" type="line"/>
      <point x="543" y="18"/>
      <point x="803" y="406"/>
    </contour>
  </outline>
</glyph>
<glyph name="Colon" format="2">
  <advance width="410"/>
  <unicode hex="003A"/>
  <outline>
    <contour>
      <point x="236" y="686" type="curve" smooth="yes"/>
      <point x="326" y="686"/>
      <point x="383" y="786"/>
      <point x="383" y="866" type="curve"/>
      <point x="383" y="924"/>
      <point x="350" y="961"/>
      <point x="301" y="961" type="curve" smooth="yes"/>
      <point x="217" y="961"/>
      <point x="152" y="860"/>
      <point x="152" y="784" type="curve" smooth="yes"/>
      <point x="152" y="725"/>
      <point x="182" y="686"/>
    </contour>
    <contour>
      <point x="135" y="-31" type="curve" smooth="yes"/>
      <point x="225" y="-31"/>
      <point x="283" y="70"/>
      <point x="283" y="152" type="curve"/>
      <point x="283" y="207"/>
      <point x="250" y="246"/>
      <point x="201" y="246" type="curve" smooth="yes"/>
      <point x="117" y="246"/>
      <point x="51" y="145"/>
      <point x="51" y="68" type="curve" smooth="yes"/>
      <point x="51" y="8"/>
      <point x="82" y="-31"/>
    </contour>
  </outline>
</glyph>
<glyph name="LTSgn" format="2">
  <advance width="840"/>
  <unicode hex="003C"/>
  <outline>
    <contour>
      <point x="641" y="256" type="line"/>
      <point x="682" y="281"/>
      <point x="692" y="291"/>
      <point x="723" y="317" type="curve"/>
      <point x="712" y="354" type="line"/>
      <point x="228" y="564" type="line"/>
      <point x="768" y="772" type="line"/>
      <point x="780" y="797"/>
      <point x="794" y="848"/>
      <point x="805" y="874" type="curve"/>
      <point x="786" y="899" type="line"/>
      <point x="88" y="625" type="line"/>
      <point x="77" y="604"/>
      <point x="58" y="560"/>
      <point x="50" y="530" type="curve"/>
      <point x="72" y="504" type="line"/>
    </contour>
  </outline>
</glyph>
<glyph name="EqSgn" format="2">
  <advance width="840"/>
  <unicode hex="003D"/>
  <outline>
    <contour>
      <point x="765" y="446" type="curve"/>
      <point x="747" y="470" type="line"/>
      <point x="91" y="470" type="line"/>
      <point x="77" y="444"/>
      <point x="60" y="406"/>
      <point x="50" y="379" type="curve"/>
      <point x="69" y="355" type="line"/>
      <point x="726" y="355" type="line"/>
      <point x="738" y="377"/>
      <point x="757" y="419"/>
    </contour>
    <contour>
      <point x="805" y="746" type="curve"/>
      <point x="787" y="770" type="line"/>
      <point x="131" y="770" type="line"/>
      <point x="117" y="744"/>
      <point x="100" y="706"/>
      <point x="90" y="679" type="curve"/>
      <point x="109" y="655" type="line"/>
      <point x="766" y="655" type="line"/>
      <point x="778" y="677"/>
      <point x="797" y="719"/>
    </contour>
  </outline>
</glyph>
<glyph name="QstnMrk" format="2">
  <advance width="813"/>
  <unicode hex="003F"/>
  <outline>
    <contour>
      <point x="809" y="1186" type="curve"/>
      <point x="809" y="1321"/>
      <point x="731" y="1430"/>
      <point x="561" y="1430" type="curve" smooth="yes"/>
      <point x="317" y="1430"/>
      <point x="162" y="1260"/>
      <point x="162" y="1090" type="curve"/>
      <point x="182" y="1059" type="line"/>
      <point x="240" y="1065"/>
      <point x="270" y="1071"/>
      <point x="328" y="1098" type="curve"/>
      <point x="303" y="1225"/>
      <point x="365" y="1335"/>
      <point x="475" y="1335" type="curve" smooth="yes"/>
      <point x="590" y="1335"/>
      <point x="649" y="1260"/>
      <point x="649" y="1128" type="curve" smooth="yes"/>
      <point x="649" y="879"/>
      <point x="328" y="752"/>
      <point x="322" y="485" type="curve" smooth="yes"/>
      <point x="317" y="369" type="line"/>
      <point x="340" y="348" type="line"/>
      <point x="373" y="358"/>
      <point x="389" y="371"/>
      <point x="414" y="389" type="curve"/>
      <point x="426" y="485" type="line"/>
      <point x="469" y="774"/>
      <point x="809" y="834"/>
    </contour>
    <contour>
      <point x="442" y="152" type="curve"/>
      <point x="442" y="207"/>
      <point x="410" y="246"/>
      <point x="358" y="246" type="curve" smooth="yes"/>
      <point x="274" y="246"/>
      <point x="209" y="145"/>
      <point x="209" y="68" type="curve" smooth="yes"/>
      <point x="209" y="8"/>
      <point x="242" y="-31"/>
      <point x="293" y="-31" type="curve" smooth="yes"/>
      <point x="383" y="-31"/>
      <point x="442" y="70"/>
    </contour>
  </outline>
</glyph>
<glyph name="LtnCapA" format="2">
  <advance width="1147"/>
  <unicode hex="0041"/>
  <anchor x="514" y="0" name="H"/>
  <anchor x="502" y="-100" name="L"/>
  <anchor x="846" y="0" name="O"/>
  <anchor x="696" y="1320" name="U"/>
  <outline>
    <contour>
      <point x="410" y="535" type="line"/>
      <point x="645" y="1079" type="line"/>
      <point x="739" y="535" type="line"/>
    </contour>
    <contour>
      <point x="755" y="444" type="line"/>
      <point x="813" y="111" type="line" smooth="yes"/>
      <point x="821" y="68"/>
      <point x="780" y="49"/>
      <point x="686" y="43" type="curve"/>
      <point x="682" y="0" type="line"/>
      <point x="1067" y="0" type="line"/>
      <point x="1071" y="43" type="line"/>
      <point x="985" y="55"/>
      <point x="967" y="75"/>
      <point x="961" y="111" type="curve" smooth="yes"/>
      <point x="745" y="1317" type="line"/>
      <point x="711" y="1298"/>
      <point x="645" y="1260"/>
      <point x="610" y="1229" type="curve"/>
      <point x="123" y="111" type="line" smooth="yes"/>
      <point x="106" y="72"/>
      <point x="55" y="59"/>
      <point x="-29" y="43" type="curve"/>
      <point x="-35" y="0" type="line"/>
      <point x="344" y="0" type="line"/>
      <point x="350" y="43" type="line"/>
      <point x="248" y="57"/>
      <point x="210" y="70"/>
      <point x="228" y="111" type="curve" smooth="yes"/>
      <point x="371" y="444" type="line"/>
    </contour>
  </outline>
</glyph>
<glyph name="LtnCapB" format="2">
  <advance width="1014"/>
  <unicode hex="0042"/>
  <anchor x="413" y="-100" name="L"/>
  <anchor x="608" y="1320" name="U"/>
  <outline>
    <contour>
      <point x="934" y="410" type="curve"/>
      <point x="934" y="569"/>
      <point x="842" y="692"/>
      <point x="707" y="723" type="curve"/>
      <point x="834" y="774"/>
      <point x="928" y="901"/>
      <point x="928" y="1040" type="curve" smooth="yes"/>
      <point x="928" y="1196"/>
      <point x="793" y="1290"/>
      <point x="578" y="1290" type="curve" smooth="yes"/>
      <point x="393" y="1290"/>
      <point x="264" y="1262"/>
      <point x="141" y="1227" type="curve"/>
      <point x="141" y="1165" type="line"/>
      <point x="242" y="1188"/>
      <point x="336" y="1206"/>
      <point x="551" y="1206" type="curve" smooth="yes"/>
      <point x="643" y="1206"/>
      <point x="772" y="1151"/>
      <point x="772" y="987" type="curve" smooth="yes"/>
      <point x="772" y="774"/>
      <point x="598" y="725"/>
      <point x="410" y="725" type="curve" smooth="yes"/>
      <point x="319" y="725" type="line"/>
      <point x="315" y="627" type="line"/>
      <point x="370" y="640"/>
      <point x="438" y="649"/>
      <point x="518" y="649" type="curve" smooth="yes"/>
      <point x="705" y="649"/>
      <point x="778" y="508"/>
      <point x="778" y="375" type="curve" smooth="yes"/>
      <point x="778" y="213"/>
      <point x="662" y="53"/>
      <point x="487" y="53" type="curve" smooth="yes"/>
      <point x="422" y="53"/>
      <point x="330" y="63"/>
      <point x="283" y="98" type="curve"/>
      <point x="66" y="0" type="line"/>
      <point x="168" y="-11"/>
      <point x="379" y="-31"/>
      <point x="461" y="-31" type="curve"/>
      <point x="715" y="-31"/>
      <point x="934" y="150"/>
    </contour>
    <contour>
      <point x="451" y="1260" type="line"/>
      <point x="305" y="1260" type="line"/>
      <point x="147" y="104" type="line" smooth="yes"/>
      <point x="145" y="86"/>
      <point x="90" y="61"/>
      <point x="6" y="43" type="curve"/>
      <point x="0" y="0" type="line"/>
      <point x="410" y="0" type="line"/>
      <point x="416" y="43" type="line"/>
      <point x="332" y="61"/>
      <point x="291" y="88"/>
      <point x="293" y="104" type="curve" smooth="yes"/>
    </contour>
  </outline>
</glyph>
<glyph name="LtnCapD" format="2">
  <advance width="1118"/>
  <unicode hex="0044"/>
  <anchor x="464" y="-100" name="L"/>
  <anchor x="659" y="1320" name="U"/>
  <outline>
    <contour>
      <point x="1077" y="745" type="curve" smooth="yes"/>
      <point x="1077" y="1075"/>
      <point x="897" y="1290"/>
      <point x="586" y="1290" type="curve" smooth="yes"/>
      <point x="449" y="1290"/>
      <point x="295" y="1276"/>
      <point x="143" y="1239" type="curve"/>
      <point x="143" y="1176" type="line"/>
      <point x="296" y="1193" type="line"/>
      <point x="147" y="104" type="line" smooth="yes"/>
      <point x="145" y="86"/>
      <point x="90" y="61"/>
      <point x="6" y="43" type="curve"/>
      <point x="0" y="0" type="line"/>
      <point x="481" y="0" type="line" smooth="yes"/>
      <point x="870" y="0"/>
      <point x="1077" y="393"/>
    </contour>
    <contour>
      <point x="504" y="1206" type="curve" smooth="yes"/>
      <point x="770" y="1206"/>
      <point x="915" y="1012"/>
      <point x="915" y="727" type="curve" smooth="yes"/>
      <point x="915" y="446"/>
      <point x="750" y="84"/>
      <point x="455" y="84" type="curve" smooth="yes"/>
      <point x="324" y="84"/>
      <point x="294" y="100"/>
      <point x="299" y="139" type="curve" smooth="yes"/>
      <point x="444" y="1205" type="line"/>
      <point x="464" y="1206"/>
      <point x="484" y="1206"/>
    </contour>
  </outline>
</glyph>
<glyph name="LtnCapF" format="2">
  <advance width="891"/>
  <unicode hex="0046"/>
  <anchor x="373" y="-100" name="L"/>
  <anchor x="567" y="1320" name="U"/>
  <outline>
    <contour>
      <point x="944" y="1235" type="curve"/>
      <point x="920" y="1260" type="line"/>
      <point x="430" y="1260" type="line"/>
      <point x="391" y="1169" type="line"/>
      <point x="780" y="1169" type="line" smooth="yes"/>
      <point x="827" y="1169"/>
      <point x="846" y="1133"/>
      <point x="836" y="1010" type="curve"/>
      <point x="877" y="1010" type="line"/>
      <point x="899" y="1061"/>
      <point x="932" y="1167"/>
    </contour>
    <contour>
      <point x="723" y="707" type="curve"/>
      <point x="700" y="735" type="line"/>
      <point x="342" y="735" type="line"/>
      <point x="311" y="655" type="line"/>
      <point x="436" y="655" type="line" smooth="yes"/>
      <point x="524" y="655"/>
      <point x="580" y="645"/>
      <point x="625" y="600" type="curve"/>
      <point x="653" y="623"/>
      <point x="694" y="670"/>
    </contour>
    <contour>
      <point x="584" y="1260" type="line"/>
      <point x="174" y="1260" type="line"/>
      <point x="168" y="1217" type="line"/>
      <point x="254" y="1198"/>
      <point x="295" y="1171"/>
      <point x="293" y="1155" type="curve" smooth="yes"/>
      <point x="147" y="104" type="line" smooth="yes"/>
      <point x="145" y="86"/>
      <point x="90" y="61"/>
      <point x="6" y="43" type="curve"/>
      <point x="0" y="0" type="line"/>
      <point x="438" y="0" type="line"/>
      <point x="444" y="43" type="line"/>
      <point x="328" y="68"/>
      <point x="289" y="88"/>
      <point x="291" y="104" type="curve" smooth="yes"/>
      <point x="438" y="1176" type="line" smooth="yes"/>
      <point x="440" y="1194"/>
      <point x="494" y="1208"/>
      <point x="578" y="1217" type="curve"/>
    </contour>
  </outline>
</glyph>
<glyph name="LtnCapG" format="2">
  <advance width="1073"/>
  <unicode hex="0047"/>
  <anchor x="520" y="0" name="H"/>
  <anchor x="525" y="-100" name="L"/>
  <anchor x="720" y="1320" name="U"/>
  <outline>
    <contour>
      <point x="1063" y="582" type="line"/>
      <point x="602" y="582" type="line"/>
      <point x="596" y="539" type="line"/>
      <point x="797" y="508"/>
      <point x="817" y="485"/>
      <point x="813" y="457" type="curve" smooth="yes"/>
      <point x="773" y="156" type="line"/>
      <point x="726" y="122"/>
      <point x="652" y="98"/>
      <point x="580" y="98" type="curve" smooth="yes"/>
      <point x="416" y="98"/>
      <point x="225" y="231"/>
      <point x="225" y="516" type="curve" smooth="yes"/>
      <point x="225" y="702"/>
      <point x="311" y="967"/>
      <point x="446" y="1075" type="curve" smooth="yes"/>
      <point x="518" y="1133"/>
      <point x="596" y="1171"/>
      <point x="647" y="1171" type="curve" smooth="yes"/>
      <point x="768" y="1171"/>
      <point x="850" y="1147"/>
      <point x="920" y="1063" type="curve"/>
      <point x="948" y="1057" type="line"/>
      <point x="985" y="1087"/>
      <point x="1071" y="1174"/>
      <point x="1055" y="1188" type="curve"/>
      <point x="987" y="1253"/>
      <point x="872" y="1290"/>
      <point x="793" y="1290" type="curve" smooth="yes"/>
      <point x="635" y="1290"/>
      <point x="493" y="1232"/>
      <point x="381" y="1143" type="curve" smooth="yes"/>
      <point x="200" y="1000"/>
      <point x="76" y="727"/>
      <point x="76" y="473" type="curve" smooth="yes"/>
      <point x="76" y="152"/>
      <point x="281" y="-31"/>
      <point x="502" y="-31" type="curve" smooth="yes"/>
      <point x="610" y="-31"/>
      <point x="707" y="-8"/>
      <point x="909" y="154" type="curve"/>
      <point x="915" y="205"/>
      <point x="940" y="386"/>
      <point x="950" y="457" type="curve" smooth="yes"/>
      <point x="954" y="487"/>
      <point x="985" y="518"/>
      <point x="1057" y="539" type="curve"/>
    </contour>
  </outline>
</glyph>
<glyph name="LtnCapR" format="2">
  <advance width="1077"/>
  <unicode hex="0052"/>
  <anchor x="200" y="0" name="H"/>
  <anchor x="423" y="-100" name="L"/>
  <anchor x="618" y="1320" name="U"/>
  <outline>
    <contour>
      <point x="948" y="971" type="curve" smooth="yes"/>
      <point x="948" y="1178"/>
      <point x="793" y="1290"/>
      <point x="559" y="1290" type="curve" smooth="yes"/>
      <point x="377" y="1290"/>
      <point x="262" y="1262"/>
      <point x="141" y="1227" type="curve"/>
      <point x="141" y="1167" type="line"/>
      <point x="262" y="1194"/>
      <point x="379" y="1206"/>
      <point x="514" y="1206" type="curve" smooth="yes"/>
      <point x="643" y="1206"/>
      <point x="805" y="1139"/>
      <point x="805" y="942" type="curve" smooth="yes"/>
      <point x="805" y="754"/>
      <point x="653" y="662"/>
      <point x="485" y="662" type="curve" smooth="yes"/>
      <point x="444" y="662"/>
      <point x="401" y="670"/>
      <point x="360" y="682" type="curve"/>
      <point x="352" y="608" type="line"/>
      <point x="395" y="596"/>
      <point x="463" y="588"/>
      <point x="510" y="588" type="curve" smooth="yes"/>
      <point x="840" y="588"/>
      <point x="948" y="854"/>
    </contour>
    <contour>
      <point x="1077" y="109" type="curve"/>
      <point x="1059" y="147" type="line"/>
      <point x="922" y="96"/>
      <point x="895" y="98"/>
      <point x="846" y="184" type="curve" smooth="yes"/>
      <point x="598" y="623" type="line"/>
      <point x="465" y="612" type="line"/>
      <point x="702" y="117" type="line" smooth="yes"/>
      <point x="754" y="8"/>
      <point x="788" y="-14"/>
      <point x="834" y="-14" type="curve" smooth="yes"/>
      <point x="870" y="-14"/>
      <point x="973" y="39"/>
    </contour>
    <contour>
      <point x="451" y="1260" type="line"/>
      <point x="305" y="1260" type="line"/>
      <point x="147" y="104" type="line" smooth="yes"/>
      <point x="145" y="86"/>
      <point x="90" y="61"/>
      <point x="6" y="43" type="curve"/>
      <point x="0" y="0" type="line"/>
      <point x="410" y="0" type="line"/>
      <point x="416" y="43" type="line"/>
      <point x="332" y="61"/>
      <point x="289" y="88"/>
      <point x="293" y="104" type="curve"/>
    </contour>
  </outline>
</glyph>
<glyph name="LtnCapT" format="2">
  <advance width="1067"/>
  <unicode hex="0054"/>
  <anchor x="461" y="0" name="H"/>
  <anchor x="447" y="-100" name="L"/>
  <anchor x="641" y="1320" name="U"/>
  <outline>
    <contour>
      <point x="1118" y="1235" type="curve"/>
      <point x="1096" y="1260" type="line"/>
      <point x="683" y="1260" type="line"/>
      <point x="664" y="1169" type="line"/>
      <point x="950" y="1169" type="line" smooth="yes"/>
      <point x="1004" y="1169"/>
      <point x="1014" y="1133"/>
      <point x="1020" y="999" type="curve"/>
      <point x="1061" y="999" type="line"/>
      <point x="1083" y="1065"/>
      <point x="1108" y="1171"/>
    </contour>
    <contour>
      <point x="578" y="1169" type="line"/>
      <point x="583" y="1260" type="line"/>
      <point x="174" y="1260" type="line"/>
      <point x="150" y="1194"/>
      <point x="121" y="1083"/>
      <point x="113" y="1014" type="curve"/>
      <point x="150" y="995" type="line"/>
      <point x="223" y="1151"/>
      <point x="244" y="1169"/>
      <point x="279" y="1169" type="curve" smooth="yes"/>
    </contour>
    <contour>
      <point x="690" y="43" type="line"/>
      <point x="582" y="68"/>
      <point x="547" y="98"/>
      <point x="549" y="115" type="curve" smooth="yes"/>
      <point x="694" y="1176" type="line" smooth="yes"/>
      <point x="696" y="1194"/>
      <point x="750" y="1208"/>
      <point x="834" y="1217" type="curve"/>
      <point x="840" y="1260" type="line"/>
      <point x="430" y="1260" type="line"/>
      <point x="424" y="1217" type="line"/>
      <point x="510" y="1208"/>
      <point x="553" y="1192"/>
      <point x="551" y="1176" type="curve" smooth="yes"/>
      <point x="403" y="115" type="line" smooth="yes"/>
      <point x="400" y="95"/>
      <point x="358" y="68"/>
      <point x="244" y="43" type="curve"/>
      <point x="238" y="0" type="line"/>
      <point x="684" y="0" type="line"/>
    </contour>
  </outline>
</glyph>
<glyph name="LtnCapV" format="2">
  <advance width="1214"/>
  <unicode hex="0056"/>
  <anchor x="557" y="0" name="H"/>
  <anchor x="538" y="-100" name="L"/>
  <anchor x="522" y="0" name="O"/>
  <anchor x="733" y="1320" name="U"/>
  <outline>
    <contour>
      <point x="1305" y="1260" type="line"/>
      <point x="926" y="1260" type="line"/>
      <point x="920" y="1217" type="line"/>
      <point x="1016" y="1204"/>
      <point x="1061" y="1190"/>
      <point x="1042" y="1151" type="curve" smooth="yes"/>
      <point x="602" y="195" type="line"/>
      <point x="412" y="1151" type="line" smooth="yes"/>
      <point x="403" y="1192"/>
      <point x="442" y="1210"/>
      <point x="537" y="1217" type="curve"/>
      <point x="543" y="1260" type="line"/>
      <point x="145" y="1260" type="line"/>
      <point x="139" y="1217" type="line"/>
      <point x="217" y="1206"/>
      <point x="250" y="1186"/>
      <point x="256" y="1151" type="curve" smooth="yes"/>
      <point x="496" y="-31" type="line"/>
      <point x="528" y="-23"/>
      <point x="621" y="0"/>
      <point x="647" y="59" type="curve" smooth="yes"/>
      <point x="1147" y="1151" type="line"/>
      <point x="1165" y="1188"/>
      <point x="1214" y="1200"/>
      <point x="1298" y="1217" type="curve"/>
    </contour>
  </outline>
</glyph>
<glyph name="LtnCapW" format="2">
  <advance width="1571"/>
  <unicode hex="0057"/>
  <anchor x="716" y="-100" name="L"/>
  <anchor x="911" y="1320" name="U"/>
  <outline>
    <contour>
      <point x="1669" y="1260" type="line"/>
      <point x="1284" y="1260" type="line"/>
      <point x="1278" y="1217" type="line"/>
      <point x="1360" y="1202"/>
      <point x="1419" y="1186"/>
      <point x="1409" y="1155" type="curve" smooth="yes"/>
      <point x="1116" y="254" type="line"/>
      <point x="936" y="1260" type="line"/>
      <point x="881" y="1260" type="line"/>
      <point x="444" y="254" type="line"/>
      <point x="385" y="1147" type="line" smooth="yes"/>
      <point x="383" y="1176"/>
      <point x="403" y="1204"/>
      <point x="520" y="1217" type="curve"/>
      <point x="526" y="1260" type="line"/>
      <point x="135" y="1260" type="line"/>
      <point x="129" y="1217" type="line"/>
      <point x="215" y="1200"/>
      <point x="244" y="1180"/>
      <point x="246" y="1147" type="curve" smooth="yes"/>
      <point x="319" y="-31" type="line"/>
      <point x="352" y="-23"/>
      <point x="440" y="-2"/>
      <point x="467" y="59" type="curve" smooth="yes"/>
      <point x="851" y="946" type="line"/>
      <point x="1016" y="-31" type="line"/>
      <point x="1049" y="-23"/>
      <point x="1133" y="0"/>
      <point x="1153" y="59" type="curve" smooth="yes"/>
      <point x="1513" y="1155" type="line" smooth="yes"/>
      <point x="1524" y="1188"/>
      <point x="1587" y="1198"/>
      <point x="1665" y="1217" type="curve"/>
    </contour>
  </outline>
</glyph>
<glyph name="LtnCapX" format="2">
  <advance width="1171"/>
  <unicode hex="0058"/>
  <anchor x="519" y="-100" name="L"/>
  <anchor x="713" y="1320" name="U"/>
  <outline>
    <contour>
      <point x="1202" y="1260" type="line"/>
      <point x="791" y="1260" type="line"/>
      <point x="784" y="1217" type="line"/>
      <point x="891" y="1208"/>
      <point x="938" y="1194"/>
      <point x="895" y="1133" type="curve" smooth="yes"/>
      <point x="630" y="755" type="line"/>
      <point x="671" y="641" type="line"/>
      <point x="1018" y="1133" type="line" smooth="yes"/>
      <point x="1059" y="1190"/>
      <point x="1108" y="1206"/>
      <point x="1196" y="1217" type="curve"/>
    </contour>
    <contour>
      <point x="1092" y="43" type="line"/>
      <point x="1022" y="53"/>
      <point x="984" y="70"/>
      <point x="956" y="127" type="curve" smooth="yes"/>
      <point x="459" y="1133" type="line" smooth="yes"/>
      <point x="430" y="1192"/>
      <point x="465" y="1206"/>
      <point x="569" y="1217" type="curve"/>
      <point x="575" y="1260" type="line"/>
      <point x="164" y="1260" type="line"/>
      <point x="158" y="1217" type="line"/>
      <point x="238" y="1204"/>
      <point x="262" y="1192"/>
      <point x="293" y="1133" type="curve"/>
      <point x="788" y="127" type="line"/>
      <point x="815" y="74"/>
      <point x="788" y="55"/>
      <point x="680" y="43" type="curve"/>
      <point x="674" y="0" type="line"/>
      <point x="1085" y="0" type="line"/>
    </contour>
    <contour>
      <point x="592" y="565" type="line"/>
      <point x="546" y="679" type="line"/>
      <point x="164" y="127" type="line"/>
      <point x="127" y="72"/>
      <point x="66" y="49"/>
      <point x="-14" y="43" type="curve"/>
      <point x="-20" y="0" type="line"/>
      <point x="391" y="0" type="line"/>
      <point x="397" y="43" type="line"/>
      <point x="287" y="51"/>
      <point x="246" y="68"/>
      <point x="287" y="127" type="curve" smooth="yes"/>
    </contour>
  </outline>
</glyph>
<glyph name="LowLine" format="2">
  <advance width="744"/>
  <unicode hex="005F"/>
  <outline>
    <contour>
      <point x="684" y="-156" type="curve"/>
      <point x="666" y="-131" type="line"/>
      <point x="-79" y="-131" type="line"/>
      <point x="-96" y="-158"/>
      <point x="-112" y="-193"/>
      <point x="-120" y="-219" type="curve"/>
      <point x="-104" y="-246" type="line"/>
      <point x="645" y="-246" type="line"/>
      <point x="658" y="-221"/>
      <point x="676" y="-184"/>
    </contour>
  </outline>
</glyph>
<glyph name="LtnSmB" format="2">
  <advance width="956"/>
  <unicode hex="0062"/>
  <anchor x="440" y="0" name="H"/>
  <anchor x="430" y="-100" name="L"/>
  <anchor x="968" y="870" name="R"/>
  <anchor x="690" y="1580" name="U"/>
  <outline>
    <contour>
      <point x="885" y="610" type="curve"/>
      <point x="887" y="821"/>
      <point x="807" y="936"/>
      <point x="702" y="936" type="curve" smooth="yes"/>
      <point x="606" y="936"/>
      <point x="399" y="827"/>
      <point x="254" y="498" type="curve"/>
      <point x="270" y="414" type="line"/>
      <point x="367" y="635"/>
      <point x="549" y="803"/>
      <point x="604" y="803" type="curve" smooth="yes"/>
      <point x="668" y="803"/>
      <point x="741" y="715"/>
      <point x="741" y="530" type="curve" smooth="yes"/>
      <point x="741" y="440"/>
      <point x="729" y="326"/>
      <point x="668" y="229" type="curve" smooth="yes"/>
      <point x="625" y="162"/>
      <point x="555" y="86"/>
      <point x="459" y="86" type="curve" smooth="yes"/>
      <point x="367" y="86"/>
      <point x="276" y="186"/>
      <point x="276" y="256" type="curve" smooth="yes"/>
      <point x="276" y="432"/>
      <point x="432" y="1249"/>
      <point x="432" y="1438" type="curve" smooth="yes"/>
      <point x="432" y="1499"/>
      <point x="420" y="1520"/>
      <point x="383" y="1520" type="curve" smooth="yes"/>
      <point x="350" y="1520"/>
      <point x="219" y="1475"/>
      <point x="106" y="1425" type="curve"/>
      <point x="119" y="1386" type="line"/>
      <point x="119" y="1386"/>
      <point x="195" y="1413"/>
      <point x="219" y="1413" type="curve" smooth="yes"/>
      <point x="242" y="1413"/>
      <point x="272" y="1407"/>
      <point x="272" y="1346" type="curve" smooth="yes"/>
      <point x="272" y="1182"/>
      <point x="123" y="358"/>
      <point x="123" y="217" type="curve" smooth="yes"/>
      <point x="123" y="96"/>
      <point x="279" y="-41"/>
      <point x="362" y="-41" type="curve" smooth="yes"/>
      <point x="530" y="-41"/>
      <point x="662" y="68"/>
      <point x="752" y="188" type="curve" smooth="yes"/>
      <point x="848" y="322"/>
      <point x="883" y="469"/>
    </contour>
  </outline>
</glyph>
<glyph name="LtnSmG" format="2">
  <advance width="911"/>
  <unicode hex="0067"/>
  <anchor x="310" y="-450" name="H"/>
  <anchor x="296" y="-600" name="L"/>
  <anchor x="940" y="870" name="R"/>
  <anchor x="515" y="1000" name="U"/>
  <outline>
    <contour>
      <point x="811" y="842" type="curve"/>
      <point x="764" y="848"/>
      <point x="692" y="936"/>
      <point x="602" y="936" type="curve" smooth="yes"/>
      <point x="520" y="936"/>
      <point x="418" y="891"/>
      <point x="344" y="842" type="curve" smooth="yes"/>
      <point x="147" y="711"/>
      <point x="51" y="516"/>
      <point x="51" y="305" type="curve" smooth="yes"/>
      <point x="51" y="55"/>
      <point x="178" y="-41"/>
      <point x="266" y="-41" type="curve" smooth="yes"/>
      <point x="385" y="-41"/>
      <point x="537" y="170"/>
      <point x="621" y="338" type="curve"/>
      <point x="641" y="528" type="line"/>
      <point x="555" y="303"/>
      <point x="395" y="96"/>
      <point x="338" y="96" type="curve" smooth="yes"/>
      <point x="258" y="96"/>
      <point x="190" y="207"/>
      <point x="190" y="379" type="curve" smooth="yes"/>
      <point x="190" y="537"/>
      <point x="319" y="831"/>
      <point x="502" y="831" type="curve" smooth="yes"/>
      <point x="612" y="831"/>
      <point x="680" y="725"/>
      <point x="717" y="725" type="curve" smooth="yes"/>
      <point x="750" y="725"/>
      <point x="754" y="803"/>
    </contour>
    <contour>
      <point x="879" y="901" type="curve"/>
      <point x="856" y="936" type="line"/>
      <point x="768" y="893"/>
      <point x="676" y="815"/>
      <point x="653" y="672" type="curve" smooth="yes"/>
      <point x="603" y="359"/>
      <point x="635" y="217"/>
      <point x="587" y="-48" type="curve" smooth="yes"/>
      <point x="547" y="-269"/>
      <point x="476" y="-389"/>
      <point x="347" y="-389" type="curve" smooth="yes"/>
      <point x="159" y="-389"/>
      <point x="126" y="-256"/>
      <point x="95" y="-256" type="curve" smooth="yes"/>
      <point x="77" y="-256"/>
      <point x="-5" y="-334"/>
      <point x="-5" y="-379" type="curve" smooth="yes"/>
      <point x="-5" y="-426"/>
      <point x="159" y="-500"/>
      <point x="271" y="-500" type="curve" smooth="yes"/>
      <point x="480" y="-500"/>
      <point x="684" y="-276"/>
      <point x="734" y="1" type="curve" smooth="yes"/>
      <point x="771" y="206"/>
      <point x="754" y="404"/>
      <point x="797" y="719" type="curve" smooth="yes"/>
      <point x="810" y="815"/>
      <point x="834" y="864"/>
    </contour>
  </outline>
</glyph>
<glyph name="LtnSmI" format="2">
  <advance width="504"/>
  <unicode hex="0069"/>
  <anchor x="210" y="0" name="H"/>
  <anchor x="206" y="-100" name="L"/>
  <anchor x="275" y="0" name="O"/>
  <anchor x="504" y="870" name="R"/>
  <anchor x="357" y="1000" name="U"/>
  <outline>
    <contour>
      <point x="482" y="1262" type="curve"/>
      <point x="482" y="1307"/>
      <point x="458" y="1333"/>
      <point x="417" y="1333" type="curve" smooth="yes"/>
      <point x="343" y="1333"/>
      <point x="294" y="1247"/>
      <point x="294" y="1176" type="curve" smooth="yes"/>
      <point x="294" y="1131"/>
      <point x="318" y="1106"/>
      <point x="359" y="1106" type="curve" smooth="yes"/>
      <point x="435" y="1106"/>
      <point x="482" y="1188"/>
    </contour>
    <contour>
      <point x="455" y="72" type="curve"/>
      <point x="440" y="109" type="line"/>
      <point x="385" y="86"/>
      <point x="352" y="76"/>
      <point x="311" y="76" type="curve" smooth="yes"/>
      <point x="289" y="76"/>
      <point x="281" y="94"/>
      <point x="281" y="135" type="curve" smooth="yes"/>
      <point x="281" y="252"/>
      <point x="385" y="735"/>
      <point x="385" y="852" type="curve" smooth="yes"/>
      <point x="385" y="913"/>
      <point x="371" y="936"/>
      <point x="334" y="936" type="curve" smooth="yes"/>
      <point x="299" y="936"/>
      <point x="182" y="891"/>
      <point x="70" y="840" type="curve"/>
      <point x="84" y="803" type="line"/>
      <point x="84" y="803"/>
      <point x="162" y="827"/>
      <point x="184" y="827" type="curve" smooth="yes"/>
      <point x="209" y="827"/>
      <point x="225" y="821"/>
      <point x="225" y="760" type="curve" smooth="yes"/>
      <point x="225" y="662"/>
      <point x="125" y="195"/>
      <point x="125" y="76" type="curve" smooth="yes"/>
      <point x="125" y="4"/>
      <point x="154" y="-41"/>
      <point x="199" y="-41" type="curve" smooth="yes"/>
      <point x="258" y="-41"/>
      <point x="330" y="-2"/>
    </contour>
  </outline>
</glyph>
<glyph name="LtnSmK" format="2">
  <advance width="899"/>
  <unicode hex="006B"/>
  <anchor x="170" y="0" name="H"/>
  <anchor x="383" y="-100" name="L"/>
  <anchor x="984" y="870" name="R"/>
  <anchor x="617" y="1580" name="U"/>
  <outline>
    <contour>
      <point x="899" y="868" type="curve"/>
      <point x="899" y="913"/>
      <point x="887" y="930"/>
      <point x="823" y="930" type="curve" smooth="yes"/>
      <point x="739" y="930"/>
      <point x="670" y="907"/>
      <point x="592" y="897" type="curve"/>
      <point x="596" y="858" type="line"/>
      <point x="774" y="864"/>
      <point x="711" y="809"/>
      <point x="528" y="670" type="curve" smooth="yes"/>
      <point x="309" y="504" type="line"/>
      <point x="373" y="469" type="line"/>
      <point x="580" y="594" type="line" smooth="yes"/>
      <point x="780" y="715"/>
      <point x="899" y="829"/>
    </contour>
    <contour>
      <point x="440" y="1417" type="curve"/>
      <point x="440" y="1511"/>
      <point x="418" y="1520"/>
      <point x="381" y="1520" type="curve" smooth="yes"/>
      <point x="348" y="1520"/>
      <point x="223" y="1475"/>
      <point x="111" y="1425" type="curve"/>
      <point x="125" y="1386" type="line"/>
      <point x="151" y="1395"/>
      <point x="212" y="1413"/>
      <point x="233" y="1413" type="curve" smooth="yes"/>
      <point x="264" y="1413"/>
      <point x="281" y="1409"/>
      <point x="281" y="1343" type="curve" smooth="yes"/>
      <point x="281" y="1141"/>
      <point x="106" y="145"/>
      <point x="86" y="-10" type="curve"/>
      <point x="121" y="-41" type="line"/>
      <point x="154" y="-25"/>
      <point x="234" y="11"/>
      <point x="270" y="27" type="curve"/>
      <point x="231" y="164"/>
      <point x="440" y="1159"/>
    </contour>
    <contour>
      <point x="889" y="68" type="curve"/>
      <point x="872" y="102" type="line"/>
      <point x="851" y="88"/>
      <point x="808" y="76"/>
      <point x="758" y="76" type="curve" smooth="yes"/>
      <point x="668" y="76"/>
      <point x="537" y="496"/>
      <point x="418" y="565" type="curve"/>
      <point x="309" y="504" type="line"/>
      <point x="418" y="426"/>
      <point x="541" y="-39"/>
      <point x="686" y="-39" type="curve" smooth="yes"/>
      <point x="737" y="-39"/>
      <point x="801" y="-6"/>
    </contour>
  </outline>
</glyph>
<glyph name="LtnSmL" format="2">
  <advance width="481"/>
  <unicode hex="006C"/>
  <anchor x="180" y="0" name="H"/>
  <anchor x="188" y="-100" name="L"/>
  <anchor x="484" y="870" name="R"/>
  <anchor x="384" y="1640" name="U"/>
  <outline>
    <contour>
      <point x="436" y="72" type="curve"/>
      <point x="424" y="109" type="line"/>
      <point x="365" y="86"/>
      <point x="326" y="76"/>
      <point x="295" y="76" type="curve" smooth="yes"/>
      <point x="274" y="76"/>
      <point x="260" y="90"/>
      <point x="260" y="135" type="curve" smooth="yes"/>
      <point x="260" y="317"/>
      <point x="434" y="1231"/>
      <point x="434" y="1438" type="curve" smooth="yes"/>
      <point x="434" y="1499"/>
      <point x="410" y="1520"/>
      <point x="373" y="1520" type="curve" smooth="yes"/>
      <point x="338" y="1520"/>
      <point x="217" y="1475"/>
      <point x="104" y="1425" type="curve"/>
      <point x="119" y="1386" type="line"/>
      <point x="119" y="1386"/>
      <point x="201" y="1413"/>
      <point x="223" y="1413" type="curve" smooth="yes"/>
      <point x="248" y="1413"/>
      <point x="274" y="1407"/>
      <point x="274" y="1346" type="curve" smooth="yes"/>
      <point x="274" y="1159"/>
      <point x="102" y="211"/>
      <point x="102" y="78" type="curve" smooth="yes"/>
      <point x="102" y="0"/>
      <point x="137" y="-41"/>
      <point x="174" y="-41" type="curve" smooth="yes"/>
      <point x="242" y="-41"/>
      <point x="305" y="-10"/>
    </contour>
  </outline>
</glyph>
<glyph name="LtnSmM" format="2">
  <advance width="1477"/>
  <unicode hex="006D"/>
  <anchor x="1172" y="0" name="H"/>
  <anchor x="662" y="-100" name="L"/>
  <anchor x="813" y="1000" name="U"/>
  <outline>
    <contour>
      <point x="1413" y="72" type="curve"/>
      <point x="1403" y="109" type="line"/>
      <point x="1348" y="88"/>
      <point x="1315" y="78"/>
      <point x="1276" y="78" type="curve" smooth="yes"/>
      <point x="1253" y="78"/>
      <point x="1239" y="90"/>
      <point x="1239" y="135" type="curve" smooth="yes"/>
      <point x="1239" y="246"/>
      <point x="1327" y="608"/>
      <point x="1327" y="760" type="curve" smooth="yes"/>
      <point x="1327" y="889"/>
      <point x="1276" y="936"/>
      <point x="1198" y="936" type="curve" smooth="yes"/>
      <point x="1098" y="936"/>
      <point x="997" y="866"/>
      <point x="842" y="688" type="curve"/>
      <point x="844" y="717"/>
      <point x="846" y="735"/>
      <point x="846" y="760" type="curve" smooth="yes"/>
      <point x="846" y="848"/>
      <point x="819" y="936"/>
      <point x="719" y="936" type="curve" smooth="yes"/>
      <point x="610" y="936"/>
      <point x="496" y="866"/>
      <point x="338" y="678" type="curve"/>
      <point x="342" y="727"/>
      <point x="350" y="793"/>
      <point x="350" y="821" type="curve" smooth="yes"/>
      <point x="350" y="915"/>
      <point x="346" y="936"/>
      <point x="305" y="936" type="curve" smooth="yes"/>
      <point x="272" y="936"/>
      <point x="154" y="891"/>
      <point x="41" y="842" type="curve"/>
      <point x="53" y="803" type="line"/>
      <point x="53" y="803"/>
      <point x="135" y="829"/>
      <point x="160" y="829" type="curve" smooth="yes"/>
      <point x="182" y="829"/>
      <point x="199" y="821"/>
      <point x="199" y="760" type="curve" smooth="yes"/>
      <point x="199" y="645"/>
      <point x="141" y="272"/>
      <point x="86" y="-10" type="curve"/>
      <point x="119" y="-41" type="line"/>
      <point x="152" y="-23"/>
      <point x="227" y="6"/>
      <point x="262" y="25" type="curve"/>
      <point x="260" y="88"/>
      <point x="264" y="174"/>
      <point x="285" y="295" type="curve" smooth="yes"/>
      <point x="307" y="424"/>
      <point x="326" y="516"/>
      <point x="381" y="602" type="curve" smooth="yes"/>
      <point x="483" y="766"/>
      <point x="600" y="834"/>
      <point x="635" y="834" type="curve" smooth="yes"/>
      <point x="672" y="834"/>
      <point x="694" y="801"/>
      <point x="694" y="700" type="curve" smooth="yes"/>
      <point x="694" y="602"/>
      <point x="639" y="262"/>
      <point x="580" y="-10" type="curve"/>
      <point x="612" y="-41" type="line"/>
      <point x="647" y="-23"/>
      <point x="723" y="6"/>
      <point x="760" y="25" type="curve"/>
      <point x="756" y="90"/>
      <point x="760" y="174"/>
      <point x="778" y="295" type="curve" smooth="yes"/>
      <point x="799" y="422"/>
      <point x="811" y="508"/>
      <point x="870" y="600" type="curve" smooth="yes"/>
      <point x="975" y="764"/>
      <point x="1085" y="834"/>
      <point x="1135" y="834" type="curve" smooth="yes"/>
      <point x="1159" y="834"/>
      <point x="1178" y="801"/>
      <point x="1178" y="719" type="curve" smooth="yes"/>
      <point x="1178" y="586"/>
      <point x="1085" y="147"/>
      <point x="1085" y="76" type="curve" smooth="yes"/>
      <point x="1085" y="4"/>
      <point x="1116" y="-41"/>
      <point x="1155" y="-41" type="curve" smooth="yes"/>
      <point x="1212" y="-41"/>
      <point x="1290" y="0"/>
    </contour>
  </outline>
</glyph>
<glyph name="LtnSmQ" format="2">
  <advance width="918"/>
  <unicode hex="0071"/>
  <anchor x="265" y="-100" name="L"/>
  <anchor x="952" y="870" name="R"/>
  <anchor x="525" y="1000" name="U"/>
  <outline>
    <contour>
      <point x="829" y="848" type="curve"/>
      <point x="784" y="854"/>
      <point x="702" y="936"/>
      <point x="612" y="936" type="curve" smooth="yes"/>
      <point x="528" y="936"/>
      <point x="428" y="891"/>
      <point x="354" y="842" type="curve" smooth="yes"/>
      <point x="166" y="719"/>
      <point x="53" y="516"/>
      <point x="53" y="305" type="curve" smooth="yes"/>
      <point x="53" y="55"/>
      <point x="188" y="-41"/>
      <point x="276" y="-41" type="curve" smooth="yes"/>
      <point x="383" y="-41"/>
      <point x="510" y="106"/>
      <point x="604" y="262" type="curve"/>
      <point x="639" y="449" type="line"/>
      <point x="547" y="281"/>
      <point x="420" y="96"/>
      <point x="348" y="96" type="curve" smooth="yes"/>
      <point x="270" y="96"/>
      <point x="182" y="207"/>
      <point x="182" y="379" type="curve" smooth="yes"/>
      <point x="182" y="537"/>
      <point x="330" y="831"/>
      <point x="512" y="831" type="curve" smooth="yes"/>
      <point x="633" y="831"/>
      <point x="713" y="721"/>
      <point x="748" y="721" type="curve" smooth="yes"/>
      <point x="780" y="721"/>
      <point x="772" y="809"/>
    </contour>
    <contour>
      <point x="895" y="901" type="curve"/>
      <point x="872" y="936" type="line"/>
      <point x="782" y="893"/>
      <point x="696" y="831"/>
      <point x="686" y="770" type="curve" smooth="yes"/>
      <point x="608" y="303"/>
      <point x="509" y="-318"/>
      <point x="488" y="-471" type="curve"/>
      <point x="523" y="-500" type="line"/>
      <point x="556" y="-484"/>
      <point x="636" y="-458"/>
      <point x="672" y="-447" type="curve"/>
      <point x="629" y="-359"/>
      <point x="732" y="229"/>
      <point x="821" y="760" type="curve" smooth="yes"/>
      <point x="836" y="850"/>
      <point x="850" y="864"/>
    </contour>
  </outline>
</glyph>
<glyph name="LtnSmY" format="2">
  <advance width="926"/>
  <unicode hex="0079"/>
  <anchor x="620" y="-100" name="L"/>
  <anchor x="988" y="870" name="R"/>
  <anchor x="565" y="1000" name="U"/>
  <outline>
    <contour>
      <point x="512" y="47" type="line"/>
      <point x="465" y="315"/>
      <point x="376" y="641"/>
      <point x="317" y="809" type="curve" smooth="yes"/>
      <point x="285" y="901"/>
      <point x="268" y="936"/>
      <point x="231" y="936" type="curve" smooth="yes"/>
      <point x="199" y="936"/>
      <point x="96" y="891"/>
      <point x="-6" y="840" type="curve"/>
      <point x="6" y="803" type="line"/>
      <point x="38" y="813"/>
      <point x="86" y="827"/>
      <point x="104" y="827" type="curve" smooth="yes"/>
      <point x="127" y="827"/>
      <point x="145" y="813"/>
      <point x="176" y="745" type="curve" smooth="yes"/>
      <point x="235" y="618"/>
      <point x="340" y="174"/>
      <point x="379" y="-57" type="curve"/>
      <point x="412" y="-86" type="line"/>
    </contour>
    <contour>
      <point x="893" y="860" type="curve"/>
      <point x="893" y="926"/>
      <point x="856" y="936"/>
      <point x="811" y="936" type="curve" smooth="yes"/>
      <point x="766" y="936"/>
      <point x="692" y="913"/>
      <point x="596" y="858" type="curve"/>
      <point x="614" y="821" type="line"/>
      <point x="653" y="838"/>
      <point x="682" y="844"/>
      <point x="705" y="844" type="curve" smooth="yes"/>
      <point x="739" y="844"/>
      <point x="758" y="823"/>
      <point x="758" y="791" type="curve" smooth="yes"/>
      <point x="758" y="711"/>
      <point x="579" y="336"/>
      <point x="442" y="74" type="curve" smooth="yes"/>
      <point x="305" y="-189"/>
      <point x="185" y="-344"/>
      <point x="56" y="-344" type="curve" smooth="yes"/>
      <point x="7" y="-344"/>
      <point x="-23" y="-344"/>
      <point x="-87" y="-301" type="curve"/>
      <point x="-124" y="-320"/>
      <point x="-181" y="-418"/>
      <point x="-181" y="-449" type="curve" smooth="yes"/>
      <point x="-181" y="-471"/>
      <point x="-116" y="-500"/>
      <point x="-36" y="-500" type="curve" smooth="yes"/>
      <point x="192" y="-500"/>
      <point x="362" y="-266"/>
      <point x="541" y="82" type="curve" smooth="yes"/>
      <point x="804" y="593"/>
      <point x="893" y="770"/>
    </contour>
  </outline>
</glyph>
<glyph name="LtnSmZ" format="2">
  <advance width="776"/>
  <unicode hex="007A"/>
  <anchor x="380" y="0" name="H"/>
  <anchor x="347" y="-100" name="L"/>
  <anchor x="488" y="1000" name="U"/>
  <outline>
    <contour>
      <point x="776" y="885" type="curve"/>
      <point x="756" y="915" type="line"/>
      <point x="268" y="915" type="line" smooth="yes"/>
      <point x="221" y="915"/>
      <point x="195" y="930"/>
      <point x="170" y="936" type="curve"/>
      <point x="160" y="879"/>
      <point x="131" y="793"/>
      <point x="106" y="674" type="curve"/>
      <point x="145" y="666" type="line"/>
      <point x="184" y="778"/>
      <point x="205" y="795"/>
      <point x="268" y="795" type="curve" smooth="yes"/>
      <point x="569" y="795" type="line"/>
      <point x="453" y="657"/>
      <point x="195" y="242"/>
      <point x="-4" y="2" type="curve"/>
      <point x="18" y="-31" type="line"/>
      <point x="119" y="20"/>
      <point x="162" y="47"/>
      <point x="205" y="47" type="curve" smooth="yes"/>
      <point x="289" y="47"/>
      <point x="391" y="-20"/>
      <point x="522" y="-20" type="curve" smooth="yes"/>
      <point x="653" y="-20"/>
      <point x="680" y="27"/>
      <point x="754" y="193" type="curve"/>
      <point x="719" y="213" type="line"/>
      <point x="666" y="111"/>
      <point x="623" y="104"/>
      <point x="598" y="104" type="curve" smooth="yes"/>
      <point x="500" y="104"/>
      <point x="365" y="166"/>
      <point x="311" y="166" type="curve" smooth="yes"/>
      <point x="268" y="166"/>
      <point x="229" y="150"/>
      <point x="229" y="150" type="curve"/>
      <point x="440" y="420"/>
      <point x="557" y="649"/>
    </contour>
  </outline>
</glyph>
<glyph name="LftCurlyBrac" format="2">
  <advance width="641"/>
  <unicode hex="007B"/>
  <outline>
    <contour>
      <point x="741" y="1552" type="curve"/>
      <point x="723" y="1599" type="line"/>
      <point x="524" y="1509"/>
      <point x="391" y="1374"/>
      <point x="365" y="1194" type="curve" smooth="yes"/>
      <point x="342" y="1030"/>
      <point x="379" y="1024"/>
      <point x="356" y="862" type="curve" smooth="yes"/>
      <point x="342" y="762"/>
      <point x="254" y="674"/>
      <point x="102" y="633" type="curve"/>
      <point x="111" y="580" type="line"/>
      <point x="147" y="586"/>
      <point x="139" y="586"/>
      <point x="172" y="586" type="curve" smooth="yes"/>
      <point x="264" y="586"/>
      <point x="309" y="530"/>
      <point x="295" y="422" type="curve" smooth="yes"/>
      <point x="270" y="256"/>
      <point x="229" y="229"/>
      <point x="207" y="72" type="curve" smooth="yes"/>
      <point x="180" y="-121"/>
      <point x="254" y="-225"/>
      <point x="449" y="-315" type="curve"/>
      <point x="477" y="-254" type="line"/>
      <point x="358" y="-176"/>
      <point x="336" y="-104"/>
      <point x="356" y="43" type="curve" smooth="yes"/>
      <point x="375" y="176"/>
      <point x="420" y="225"/>
      <point x="442" y="385" type="curve" smooth="yes"/>
      <point x="463" y="532"/>
      <point x="434" y="629"/>
      <point x="313" y="653" type="curve"/>
      <point x="426" y="702"/>
      <point x="502" y="811"/>
      <point x="518" y="922" type="curve" smooth="yes"/>
      <point x="541" y="1077"/>
      <point x="506" y="1096"/>
      <point x="526" y="1251" type="curve"/>
      <point x="547" y="1389"/>
      <point x="635" y="1487"/>
    </contour>
  </outline>
</glyph>
<glyph name="RtCurlyBrac" format="2">
  <advance width="641"/>
  <unicode hex="007D"/>
  <outline>
    <contour>
      <point x="557" y="651" type="curve"/>
      <point x="549" y="707" type="line"/>
      <point x="510" y="698"/>
      <point x="520" y="700"/>
      <point x="487" y="700" type="curve" smooth="yes"/>
      <point x="395" y="700"/>
      <point x="350" y="756"/>
      <point x="367" y="864" type="curve" smooth="yes"/>
      <point x="389" y="1028"/>
      <point x="430" y="1057"/>
      <point x="453" y="1214" type="curve" smooth="yes"/>
      <point x="479" y="1405"/>
      <point x="408" y="1511"/>
      <point x="211" y="1599" type="curve"/>
      <point x="180" y="1538" type="line"/>
      <point x="301" y="1462"/>
      <point x="324" y="1391"/>
      <point x="301" y="1241" type="curve" smooth="yes"/>
      <point x="283" y="1110"/>
      <point x="240" y="1059"/>
      <point x="217" y="901" type="curve" smooth="yes"/>
      <point x="197" y="752"/>
      <point x="225" y="657"/>
      <point x="346" y="631" type="curve"/>
      <point x="233" y="582"/>
      <point x="158" y="475"/>
      <point x="141" y="365" type="curve"/>
      <point x="121" y="207"/>
      <point x="154" y="190"/>
      <point x="131" y="35" type="curve" smooth="yes"/>
      <point x="113" y="-104"/>
      <point x="25" y="-201"/>
      <point x="-82" y="-266" type="curve"/>
      <point x="-63" y="-315" type="line"/>
      <point x="133" y="-225"/>
      <point x="268" y="-88"/>
      <point x="295" y="92" type="curve" smooth="yes"/>
      <point x="317" y="256"/>
      <point x="281" y="260"/>
      <point x="303" y="422" type="curve" smooth="yes"/>
      <point x="317" y="524"/>
      <point x="406" y="610"/>
    </contour>
  </outline>
</glyph>
<glyph name="PoundSgn" format="2">
  <advance width="823"/>
  <unicode hex="00A3"/>
  <outline>
    <contour>
      <point x="833" y="1165" type="curve"/>
      <point x="729" y="1228"/>
      <point x="683" y="1235"/>
      <point x="620" y="1235" type="curve" smooth="yes"/>
      <point x="334" y="1235"/>
      <point x="182" y="986"/>
      <point x="153" y="578" type="curve" smooth="yes"/>
      <point x="123" y="158"/>
      <point x="86" y="124"/>
      <point x="-44" y="19" type="curve"/>
      <point x="-31" y="-30" type="line"/>
      <point x="164" y="95"/>
      <point x="492" y="-99"/>
      <point x="667" y="0" type="curve"/>
      <point x="681" y="39"/>
      <point x="714" y="139"/>
      <point x="739" y="254" type="curve"/>
      <point x="702" y="272" type="line"/>
      <point x="630" y="116"/>
      <point x="587" y="104"/>
      <point x="476" y="101" type="curve" smooth="yes"/>
      <point x="342" y="97"/>
      <point x="308" y="116"/>
      <point x="142" y="101" type="curve"/>
      <point x="225" y="207"/>
      <point x="302" y="388"/>
      <point x="309" y="595" type="curve" smooth="yes"/>
      <point x="326" y="1091"/>
      <point x="443" y="1136"/>
      <point x="540" y="1136" type="curve" smooth="yes"/>
      <point x="661" y="1136"/>
      <point x="724" y="1065"/>
      <point x="718" y="900" type="curve"/>
      <point x="761" y="900" type="line"/>
      <point x="782" y="951"/>
      <point x="821" y="1097"/>
    </contour>
    <contour>
      <point x="556" y="604" type="line"/>
      <point x="536" y="627" type="line"/>
      <point x="60" y="627" type="line"/>
      <point x="50" y="606"/>
      <point x="39" y="582"/>
      <point x="32" y="562" type="curve"/>
      <point x="47" y="537" type="line"/>
      <point x="523" y="537" type="line"/>
    </contour>
  </outline>
</glyph>
<glyph name="SectionSgn" format="2">
  <advance width="865"/>
  <unicode hex="00A7"/>
  <outline>
    <contour>
      <point x="350" y="-30" type="curve" smooth="yes"/>
      <point x="420" y="-30"/>
      <point x="662" y="-20"/>
      <point x="701" y="263" type="curve"/>
      <point x="722" y="412"/>
      <point x="614" y="470"/>
      <point x="517" y="529" type="curve"/>
      <point x="353" y="643"/>
      <point x="282" y="700"/>
      <point x="299" y="822" type="curve" smooth="yes"/>
      <point x="307" y="877"/>
      <point x="356" y="981"/>
      <point x="423" y="950" type="curve"/>
      <point x="424" y="950"/>
      <point x="456" y="1042"/>
      <point x="459" y="1040" type="curve"/>
      <point x="370" y="1066"/>
      <point x="197" y="935"/>
      <point x="174" y="775" type="curve" smooth="yes"/>
      <point x="151" y="605"/>
      <point x="236" y="516"/>
      <point x="382" y="419" type="curve" smooth="yes"/>
      <point x="482" y="353"/>
      <point x="591" y="314"/>
      <point x="576" y="207" type="curve" smooth="yes"/>
      <point x="563" y="113"/>
      <point x="495" y="68"/>
      <point x="409" y="68" type="curve" smooth="yes"/>
      <point x="285" y="68"/>
      <point x="203" y="170"/>
      <point x="214" y="282" type="curve"/>
      <point x="176" y="293" type="line"/>
      <point x="151" y="233"/>
      <point x="122" y="61"/>
      <point x="137" y="53" type="curve"/>
      <point x="210" y="4"/>
      <point x="293" y="-30"/>
    </contour>
    <contour>
      <point x="580" y="369" type="curve"/>
      <point x="650" y="371"/>
      <point x="783" y="474"/>
      <point x="809" y="656" type="curve"/>
      <point x="834" y="839"/>
      <point x="730" y="907"/>
      <point x="584" y="1009" type="curve" smooth="yes"/>
      <point x="464" y="1092"/>
      <point x="404" y="1147"/>
      <point x="417" y="1240" type="curve" smooth="yes"/>
      <point x="427" y="1310"/>
      <point x="480" y="1350"/>
      <point x="559" y="1350" type="curve" smooth="yes"/>
      <point x="618" y="1350"/>
      <point x="676" y="1306"/>
      <point x="720" y="1211" type="curve"/>
      <point x="754" y="1203" type="line"/>
      <point x="773" y="1224"/>
      <point x="833" y="1338"/>
      <point x="820" y="1353" type="curve" smooth="yes"/>
      <point x="778" y="1400"/>
      <point x="671" y="1440"/>
      <point x="596" y="1440" type="curve" smooth="yes"/>
      <point x="460" y="1440"/>
      <point x="318" y="1366"/>
      <point x="295" y="1200" type="curve" smooth="yes"/>
      <point x="276" y="1065"/>
      <point x="341" y="969"/>
      <point x="449" y="899" type="curve" smooth="yes"/>
      <point x="621" y="787"/>
      <point x="699" y="717"/>
      <point x="682" y="594" type="curve"/>
      <point x="671" y="514"/>
      <point x="602" y="448"/>
      <point x="516" y="448" type="curve"/>
      <point x="511" y="448"/>
      <point x="577" y="370"/>
    </contour>
  </outline>
</glyph>
<glyph name="Diaer" format="2">
  <advance width="1042"/>
  <unicode hex="00A8"/>
  <anchor x="620" y="1353" name="U"/>
  <outline>
    <contour>
      <point x="886" y="1262" type="curve"/>
      <point x="886" y="1307"/>
      <point x="859" y="1333"/>
      <point x="818" y="1333" type="curve" smooth="yes"/>
      <point x="742" y="1333"/>
      <point x="693" y="1247"/>
      <point x="693" y="1176" type="curve" smooth="yes"/>
      <point x="693" y="1131"/>
      <point x="718" y="1106"/>
      <point x="759" y="1106" type="curve" smooth="yes"/>
      <point x="836" y="1106"/>
      <point x="886" y="1188"/>
    </contour>
    <contour>
      <point x="513" y="1262" type="curve"/>
      <point x="513" y="1307"/>
      <point x="488" y="1333"/>
      <point x="447" y="1333" type="curve" smooth="yes"/>
      <point x="372" y="1333"/>
      <point x="320" y="1247"/>
      <point x="320" y="1176" type="curve" smooth="yes"/>
      <point x="320" y="1131"/>
      <point x="345" y="1106"/>
      <point x="388" y="1106" type="curve" smooth="yes"/>
      <point x="464" y="1106"/>
      <point x="513" y="1188"/>
    </contour>
  </outline>
</glyph>
<glyph name="CopyrightSgn" format="2">
  <advance width="1360"/>
  <unicode hex="00A9"/>
  <outline>
    <contour>
      <point x="1280" y="752" type="curve"/>
      <point x="1280" y="1059"/>
      <point x="1079" y="1290"/>
      <point x="778" y="1290" type="curve" smooth="yes"/>
      <point x="381" y="1290"/>
      <point x="94" y="899"/>
      <point x="94" y="526" type="curve" smooth="yes"/>
      <point x="94" y="213"/>
      <point x="289" y="-31"/>
      <point x="594" y="-31" type="curve" smooth="yes"/>
      <point x="1006" y="-31"/>
      <point x="1280" y="371"/>
    </contour>
    <contour>
      <point x="1200" y="719" type="curve"/>
      <point x="1200" y="395"/>
      <point x="950" y="55"/>
      <point x="606" y="55" type="curve" smooth="yes"/>
      <point x="338" y="55"/>
      <point x="172" y="274"/>
      <point x="172" y="545" type="curve" smooth="yes"/>
      <point x="172" y="866"/>
      <point x="426" y="1204"/>
      <point x="768" y="1204" type="curve" smooth="yes"/>
      <point x="1034" y="1204"/>
      <point x="1200" y="989"/>
    </contour>
    <contour>
      <point x="1014" y="942" type="curve"/>
      <point x="977" y="954"/>
      <point x="918" y="1044"/>
      <point x="809" y="1044" type="curve" smooth="yes"/>
      <point x="733" y="1044"/>
      <point x="623" y="1014"/>
      <point x="561" y="965" type="curve" smooth="yes"/>
      <point x="389" y="834"/>
      <point x="336" y="678"/>
      <point x="336" y="526" type="curve" smooth="yes"/>
      <point x="336" y="291"/>
      <point x="498" y="223"/>
      <point x="580" y="223" type="curve" smooth="yes"/>
      <point x="670" y="223"/>
      <point x="754" y="248"/>
      <point x="946" y="408" type="curve"/>
      <point x="940" y="418"/>
      <point x="928" y="430"/>
      <point x="918" y="444" type="curve"/>
      <point x="784" y="344"/>
      <point x="715" y="315"/>
      <point x="672" y="315" type="curve" smooth="yes"/>
      <point x="559" y="315"/>
      <point x="461" y="414"/>
      <point x="461" y="559" type="curve" smooth="yes"/>
      <point x="461" y="715"/>
      <point x="557" y="963"/>
      <point x="725" y="963" type="curve" smooth="yes"/>
      <point x="815" y="963"/>
      <point x="858" y="872"/>
      <point x="885" y="872" type="curve" smooth="yes"/>
      <point x="915" y="872"/>
      <point x="963" y="909"/>
    </contour>
  </outline>
</glyph>
<glyph name="LftPtngDblAngQuotMrk" format="2">
  <advance width="882"/>
  <unicode hex="00AB"/>
  <outline>
    <contour>
      <point x="651" y="7" type="line"/>
      <point x="693" y="36" type="line"/>
      <point x="545" y="450" type="line"/>
      <point x="542" y="448"/>
      <point x="805" y="860"/>
      <point x="804" y="860" type="curve"/>
      <point x="770" y="889" type="line"/>
      <point x="398" y="485" type="line"/>
      <point x="395" y="482"/>
      <point x="386" y="414"/>
      <point x="386" y="414" type="curve"/>
    </contour>
    <contour>
      <point x="323" y="7" type="line"/>
      <point x="365" y="36" type="line"/>
      <point x="217" y="450" type="line"/>
      <point x="214" y="448"/>
      <point x="477" y="860"/>
      <point x="476" y="860" type="curve"/>
      <point x="442" y="889" type="line"/>
      <point x="70" y="485" type="line"/>
      <point x="67" y="482"/>
      <point x="58" y="414"/>
      <point x="58" y="414" type="curve"/>
    </contour>
  </outline>
</glyph>
<glyph name="SupTwo" format="2">
  <advance width="576"/>
  <unicode hex="00B2"/>
  <anchor x="285" y="550" name="L"/>
  <anchor x="403" y="1400" name="U"/>
  <outline>
    <contour>
      <point x="604" y="1212" type="curve"/>
      <point x="604" y="1307"/>
      <point x="527" y="1351"/>
      <point x="424" y="1349" type="curve" smooth="yes"/>
      <point x="282" y="1346"/>
      <point x="151" y="1240"/>
      <point x="138" y="1157" type="curve"/>
      <point x="153" y="1139" type="line"/>
      <point x="191" y="1143"/>
      <point x="229" y="1153"/>
      <point x="259" y="1168" type="curve"/>
      <point x="267" y="1225"/>
      <point x="308" y="1283"/>
      <point x="377" y="1283" type="curve" smooth="yes"/>
      <point x="445" y="1283"/>
      <point x="484" y="1252"/>
      <point x="484" y="1194" type="curve" smooth="yes"/>
      <point x="484" y="1093"/>
      <point x="384" y="952"/>
      <point x="45" y="662" type="curve"/>
      <point x="55" y="608" type="line"/>
      <point x="509" y="608" type="line"/>
      <point x="545" y="780" type="line"/>
      <point x="505" y="787" type="line"/>
      <point x="505" y="787"/>
      <point x="478" y="687"/>
      <point x="422" y="687" type="curve" smooth="yes"/>
      <point x="170" y="687" type="line"/>
      <point x="513" y="991"/>
      <point x="604" y="1112"/>
    </contour>
  </outline>
</glyph>
<glyph name="AcuteAccent" format="2">
  <advance width="606"/>
  <unicode hex="00B4"/>
  <anchor x="306" y="1370" name="U"/>
  <outline>
    <contour>
      <point x="557" y="1419" type="line"/>
      <point x="535" y="1432"/>
      <point x="470" y="1452"/>
      <point x="444" y="1459" type="curve"/>
      <point x="172" y="1061" type="line"/>
      <point x="191" y="1038"/>
      <point x="196" y="1031"/>
      <point x="217" y="1026" type="curve"/>
      <point x="572" y="1374" type="line"/>
    </contour>
  </outline>
</glyph>
<glyph name="SupOne" format="2">
  <advance width="576"/>
  <unicode hex="00B9"/>
  <anchor x="285" y="550" name="L"/>
  <anchor x="403" y="1400" name="U"/>
  <outline>
    <contour>
      <point x="519" y="650" type="line"/>
      <point x="394" y="665"/>
      <point x="377" y="688"/>
      <point x="380" y="704" type="curve" smooth="yes"/>
      <point x="479" y="1334" type="line"/>
      <point x="460" y="1355" type="line"/>
      <point x="399" y="1326"/>
      <point x="244" y="1272"/>
      <point x="172" y="1253" type="curve"/>
      <point x="180" y="1212" type="line"/>
      <point x="293" y="1235"/>
      <point x="328" y="1231"/>
      <point x="336" y="1221" type="curve" smooth="yes"/>
      <point x="345" y="1210"/>
      <point x="343" y="1194"/>
      <point x="338" y="1162" type="curve" smooth="yes"/>
      <point x="265" y="704" type="line" smooth="yes"/>
      <point x="262" y="687"/>
      <point x="230" y="665"/>
      <point x="96" y="650" type="curve"/>
      <point x="89" y="608" type="line"/>
      <point x="511" y="608" type="line"/>
    </contour>
  </outline>
</glyph>
<glyph name="MascOrdIndicator" format="2">
  <advance width="508"/>
  <unicode hex="00BA"/>
  <outline>
    <contour>
      <point x="518" y="1034" type="curve"/>
      <point x="518" y="1153"/>
      <point x="477" y="1237"/>
      <point x="362" y="1237" type="curve" smooth="yes"/>
      <point x="319" y="1237"/>
      <point x="272" y="1214"/>
      <point x="236" y="1186" type="curve" smooth="yes"/>
      <point x="141" y="1112"/>
      <point x="111" y="1022"/>
      <point x="111" y="920" type="curve" smooth="yes"/>
      <point x="111" y="801"/>
      <point x="168" y="713"/>
      <point x="268" y="713" type="curve" smooth="yes"/>
      <point x="311" y="713"/>
      <point x="356" y="737"/>
      <point x="395" y="768" type="curve" smooth="yes"/>
      <point x="475" y="834"/>
      <point x="518" y="938"/>
    </contour>
    <contour>
      <point x="469" y="635" type="curve"/>
      <point x="451" y="659" type="line"/>
      <point x="82" y="659" type="line"/>
      <point x="74" y="639"/>
      <point x="66" y="627"/>
      <point x="59" y="606" type="curve"/>
      <point x="76" y="586" type="line"/>
      <point x="446" y="586" type="line"/>
      <point x="453" y="604"/>
      <point x="463" y="614"/>
    </contour>
    <contour>
      <point x="440" y="1006" type="curve"/>
      <point x="440" y="918"/>
      <point x="403" y="772"/>
      <point x="303" y="772" type="curve" smooth="yes"/>
      <point x="238" y="772"/>
      <point x="186" y="854"/>
      <point x="186" y="948" type="curve" smooth="yes"/>
      <point x="186" y="1040"/>
      <point x="221" y="1176"/>
      <point x="326" y="1176" type="curve" smooth="yes"/>
      <point x="397" y="1176"/>
      <point x="440" y="1114"/>
    </contour>
  </outline>
</glyph>
<glyph name="VulgFracOneQuarter" format="2">
  <advance width="1110"/>
  <unicode hex="00BC"/>
  <outline>
    <contour>
      <point x="1090" y="1207" type="line"/>
      <point x="1071" y="1235" type="line"/>
      <point x="1044" y="1229"/>
      <point x="1011" y="1214"/>
      <point x="987" y="1203" type="curve"/>
      <point x="128" y="0" type="line"/>
      <point x="146" y="-30" type="line"/>
      <point x="180" y="-21"/>
      <point x="205" y="-12"/>
      <point x="235" y="3" type="curve"/>
    </contour>
    <contour>
      <point x="983" y="210" type="curve"/>
      <point x="971" y="226" type="line"/>
      <point x="916" y="226" type="line"/>
      <point x="966" y="581" type="line"/>
      <point x="951" y="598" type="line"/>
      <point x="928" y="588"/>
      <point x="892" y="575"/>
      <point x="863" y="563" type="curve"/>
      <point x="556" y="180" type="line"/>
      <point x="571" y="164" type="line"/>
      <point x="823" y="164" type="line"/>
      <point x="808" y="63" type="line"/>
      <point x="807" y="52"/>
      <point x="793" y="42"/>
      <point x="704" y="29" type="curve"/>
      <point x="700" y="0" type="line"/>
      <point x="948" y="0" type="line"/>
      <point x="952" y="29" type="line"/>
      <point x="897" y="41"/>
      <point x="891" y="48"/>
      <point x="893" y="58" type="curve" smooth="yes"/>
      <point x="908" y="164" type="line"/>
      <point x="936" y="164" type="line"/>
      <point x="952" y="175"/>
      <point x="965" y="190"/>
    </contour>
    <contour>
      <point x="831" y="226" type="line"/>
      <point x="649" y="226" type="line"/>
      <point x="869" y="491" type="line"/>
    </contour>
    <contour>
      <point x="456" y="637" type="line"/>
      <point x="461" y="671" type="line"/>
      <point x="361" y="683"/>
      <point x="346" y="701"/>
      <point x="348" y="714" type="curve" smooth="yes"/>
      <point x="419" y="1218" type="line"/>
      <point x="403" y="1235" type="line"/>
      <point x="355" y="1211"/>
      <point x="233" y="1168"/>
      <point x="174" y="1153" type="curve"/>
      <point x="180" y="1120" type="line"/>
      <point x="272" y="1139"/>
      <point x="299" y="1135"/>
      <point x="306" y="1127" type="curve" smooth="yes"/>
      <point x="314" y="1119"/>
      <point x="312" y="1106"/>
      <point x="308" y="1080" type="curve" smooth="yes"/>
      <point x="257" y="714" type="line" smooth="yes"/>
      <point x="255" y="700"/>
      <point x="229" y="683"/>
      <point x="122" y="671" type="curve"/>
      <point x="117" y="637" type="line"/>
    </contour>
  </outline>
</glyph>
<glyph name="VulgFracOneHalf" format="2">
  <advance width="1110"/>
  <unicode hex="00BD"/>
  <outline>
    <contour>
      <point x="1090" y="1207" type="line"/>
      <point x="1071" y="1235" type="line"/>
      <point x="1044" y="1229"/>
      <point x="1011" y="1214"/>
      <point x="987" y="1203" type="curve"/>
      <point x="128" y="0" type="line"/>
      <point x="146" y="-30" type="line"/>
      <point x="180" y="-21"/>
      <point x="205" y="-12"/>
      <point x="235" y="3" type="curve"/>
    </contour>
    <contour>
      <point x="472" y="637" type="line"/>
      <point x="477" y="671" type="line"/>
      <point x="377" y="683"/>
      <point x="362" y="701"/>
      <point x="364" y="714" type="curve" smooth="yes"/>
      <point x="435" y="1218" type="line"/>
      <point x="419" y="1235" type="line"/>
      <point x="371" y="1211"/>
      <point x="249" y="1168"/>
      <point x="190" y="1153" type="curve"/>
      <point x="196" y="1120" type="line"/>
      <point x="288" y="1139"/>
      <point x="315" y="1135"/>
      <point x="322" y="1127" type="curve" smooth="yes"/>
      <point x="330" y="1119"/>
      <point x="328" y="1106"/>
      <point x="324" y="1080" type="curve" smooth="yes"/>
      <point x="273" y="714" type="line" smooth="yes"/>
      <point x="271" y="700"/>
      <point x="245" y="683"/>
      <point x="138" y="671" type="curve"/>
      <point x="133" y="637" type="line"/>
    </contour>
    <contour>
      <point x="989" y="138" type="line"/>
      <point x="957" y="143" type="line"/>
      <point x="957" y="143"/>
      <point x="941" y="66"/>
      <point x="894" y="66" type="curve" smooth="yes"/>
      <point x="697" y="66" type="line"/>
      <point x="936" y="297"/>
      <point x="1014" y="371"/>
      <point x="1026" y="457" type="curve" smooth="yes"/>
      <point x="1039" y="550"/>
      <point x="982" y="593"/>
      <point x="893" y="593" type="curve" smooth="yes"/>
      <point x="782" y="593"/>
      <point x="666" y="506"/>
      <point x="656" y="439" type="curve"/>
      <point x="668" y="425" type="line"/>
      <point x="699" y="428"/>
      <point x="727" y="435"/>
      <point x="751" y="448" type="curve"/>
      <point x="758" y="494"/>
      <point x="799" y="540"/>
      <point x="851" y="540" type="curve" smooth="yes"/>
      <point x="920" y="540"/>
      <point x="940" y="502"/>
      <point x="932" y="443" type="curve" smooth="yes"/>
      <point x="922" y="370"/>
      <point x="864" y="300"/>
      <point x="585" y="35" type="curve"/>
      <point x="596" y="0" type="line"/>
      <point x="962" y="0" type="line"/>
    </contour>
  </outline>
</glyph>
<glyph name="LtnCapADiaer" format="1">
  <advance width="1147"/>
  <unicode hex="00C4"/>
  <outline>
    <component base="LtnCapA"/>
    <component base="CombDiaer.LP" xOffset="1051" yOffset="320"/>
    <contour>
      <point x="514" y="0" type="move" name="H"/>
    </contour>
    <contour>
      <point x="502" y="-100" type="move" name="L"/>
    </contour>
    <contour>
      <point x="846" y="0" type="move" name="O"/>
    </contour>
    <contour>
      <point x="740" y="1640" type="move" name="U"/>
    </contour>
  </outline>
</glyph>
<glyph name="LtnCapOCircum" format="1">
  <advance width="1116"/>
  <unicode hex="00D4"/>
  <outline>
    <component base="LtnCapO"/>
    <component base="CombCircum.LP" xOffset="1052" yOffset="320"/>
    <contour>
      <point x="500" y="0" type="move" name="H"/>
    </contour>
    <contour>
      <point x="505" y="-100" type="move" name="L"/>
    </contour>
    <contour>
      <point x="560" y="0" type="move" name="O"/>
    </contour>
    <contour>
      <point x="1202" y="1072" type="move" name="R"/>
    </contour>
    <contour>
      <point x="759" y="1735" type="move" name="U"/>
    </contour>
  </outline>
</glyph>
<glyph name="MultSgn" format="2">
  <advance width="770"/>
  <unicode hex="00D7"/>
  <outline>
    <contour>
      <point x="647" y="280" type="curve"/>
      <point x="652" y="314" type="line"/>
      <point x="227" y="873" type="line"/>
      <point x="200" y="866"/>
      <point x="164" y="854"/>
      <point x="140" y="842" type="curve"/>
      <point x="135" y="808" type="line"/>
      <point x="561" y="249" type="line"/>
      <point x="583" y="255"/>
      <point x="622" y="269"/>
    </contour>
    <contour>
      <point x="60" y="280" type="line"/>
      <point x="83" y="269"/>
      <point x="118" y="255"/>
      <point x="139" y="249" type="curve"/>
      <point x="720" y="808" type="line"/>
      <point x="725" y="842" type="line"/>
      <point x="703" y="854"/>
      <point x="671" y="866"/>
      <point x="646" y="873" type="curve"/>
      <point x="65" y="314" type="line"/>
    </contour>
  </outline>
</glyph>
<glyph name="LtnCapOStrk" format="2">
  <advance width="1116"/>
  <unicode hex="00D8"/>
  <anchor x="507" y="-100" name="L"/>
  <anchor x="701" y="1320" name="U"/>
  <outline>
    <contour>
      <point x="1153" y="1280" type="line"/>
      <point x="1130" y="1313" type="line"/>
      <point x="1094" y="1303"/>
      <point x="1047" y="1286"/>
      <point x="1010" y="1264" type="curve"/>
      <point x="27" y="-20" type="line"/>
      <point x="47" y="-53" type="line"/>
      <point x="78" y="-43"/>
      <point x="143" y="-23"/>
      <point x="170" y="-2" type="curve"/>
    </contour>
    <contour>
      <point x="1085" y="774" type="curve"/>
      <point x="1085" y="1055"/>
      <point x="967" y="1290"/>
      <point x="705" y="1290" type="curve" smooth="yes"/>
      <point x="516" y="1290"/>
      <point x="369" y="1167"/>
      <point x="258" y="1018" type="curve" smooth="yes"/>
      <point x="152" y="872"/>
      <point x="90" y="653"/>
      <point x="90" y="485" type="curve" smooth="yes"/>
      <point x="90" y="205"/>
      <point x="215" y="-31"/>
      <point x="471" y="-31" type="curve" smooth="yes"/>
      <point x="649" y="-31"/>
      <point x="788" y="82"/>
      <point x="901" y="225" type="curve" smooth="yes"/>
      <point x="1022" y="377"/>
      <point x="1085" y="586"/>
    </contour>
    <contour>
      <point x="936" y="756" type="curve"/>
      <point x="936" y="502"/>
      <point x="825" y="100"/>
      <point x="516" y="100" type="curve" smooth="yes"/>
      <point x="352" y="100"/>
      <point x="242" y="283"/>
      <point x="242" y="532" type="curve" smooth="yes"/>
      <point x="242" y="784"/>
      <point x="358" y="1165"/>
      <point x="662" y="1165" type="curve" smooth="yes"/>
      <point x="838" y="1165"/>
      <point x="936" y="981"/>
    </contour>
  </outline>
</glyph>
<glyph name="LtnSmSharpS" format="2">
  <advance width="999"/>
  <unicode hex="00DF"/>
  <anchor x="382" y="-100" name="L"/>
  <anchor x="620" y="1640" name="U"/>
  <outline>
    <contour>
      <point x="940" y="1225" type="curve"/>
      <point x="940" y="1364"/>
      <point x="842" y="1518"/>
      <point x="670" y="1518" type="curve" smooth="yes"/>
      <point x="610" y="1518"/>
      <point x="524" y="1483"/>
      <point x="453" y="1425" type="curve"/>
      <point x="283" y="1300"/>
      <point x="207" y="1118"/>
      <point x="180" y="899" type="curve" smooth="yes"/>
      <point x="92" y="139" type="line" smooth="yes"/>
      <point x="68" y="-80"/>
      <point x="-16" y="-348"/>
      <point x="-150" y="-422" type="curve"/>
      <point x="-123" y="-485" type="line"/>
      <point x="74" y="-365"/>
      <point x="211" y="-102"/>
      <point x="246" y="193" type="curve" smooth="yes"/>
      <point x="334" y="952" type="line" smooth="yes"/>
      <point x="358" y="1174"/>
      <point x="455" y="1397"/>
      <point x="604" y="1397" type="curve" smooth="yes"/>
      <point x="743" y="1397"/>
      <point x="799" y="1272"/>
      <point x="799" y="1153" type="curve" smooth="yes"/>
      <point x="799" y="889"/>
      <point x="455" y="981"/>
      <point x="455" y="668" type="curve" smooth="yes"/>
      <point x="455" y="455"/>
      <point x="788" y="477"/>
      <point x="788" y="233" type="curve" smooth="yes"/>
      <point x="788" y="121"/>
      <point x="727" y="57"/>
      <point x="621" y="57" type="curve" smooth="yes"/>
      <point x="489" y="57"/>
      <point x="467" y="223"/>
      <point x="442" y="223" type="curve" smooth="yes"/>
      <point x="412" y="223"/>
      <point x="342" y="131"/>
      <point x="342" y="104" type="curve" smooth="yes"/>
      <point x="342" y="45"/>
      <point x="461" y="-41"/>
      <point x="573" y="-41" type="curve" smooth="yes"/>
      <point x="797" y="-41"/>
      <point x="924" y="147"/>
      <point x="924" y="311" type="curve" smooth="yes"/>
      <point x="924" y="559"/>
      <point x="586" y="586"/>
      <point x="586" y="731" type="curve" smooth="yes"/>
      <point x="586" y="915"/>
      <point x="940" y="868"/>
    </contour>
  </outline>
</glyph>
<glyph name="LtnSmARingAbv" format="1">
  <advance width="922"/>
  <unicode hex="00E5"/>
  <outline>
    <component base="LtnSmA"/>
    <component base="CombRingAbv" xOffset="904"/>
    <contour>
      <point x="368" y="0" type="move" name="H"/>
    </contour>
    <contour>
      <point x="400" y="-100" type="move" name="L"/>
    </contour>
    <contour>
      <point x="723" y="0" type="move" name="O"/>
    </contour>
    <contour>
      <point x="933" y="870" type="move" name="R"/>
    </contour>
    <contour>
      <point x="604" y="1420" type="move" name="U"/>
    </contour>
  </outline>
</glyph>
<glyph name="LtnSmAe" format="2">
  <advance width="1325"/>
  <unicode hex="00E6"/>
  <anchor x="618" y="0" name="H"/>
  <anchor x="599" y="-100" name="L"/>
  <anchor x="930" y="0" name="O"/>
  <anchor x="1408" y="870" name="R"/>
  <anchor x="750" y="1000" name="U"/>
  <outline>
    <contour>
      <point x="1270" y="760" type="curve"/>
      <point x="1270" y="846"/>
      <point x="1217" y="936"/>
      <point x="1102" y="936" type="curve" smooth="yes"/>
      <point x="1020" y="936"/>
      <point x="924" y="895"/>
      <point x="860" y="846" type="curve" smooth="yes"/>
      <point x="684" y="709"/>
      <point x="584" y="512"/>
      <point x="584" y="303" type="curve" smooth="yes"/>
      <point x="584" y="51"/>
      <point x="737" y="-41"/>
      <point x="825" y="-41" type="curve" smooth="yes"/>
      <point x="922" y="-41"/>
      <point x="1026" y="-10"/>
      <point x="1247" y="180" type="curve"/>
      <point x="1241" y="190"/>
      <point x="1231" y="213"/>
      <point x="1217" y="221" type="curve"/>
      <point x="1055" y="92"/>
      <point x="954" y="76"/>
      <point x="897" y="76" type="curve" smooth="yes"/>
      <point x="819" y="76"/>
      <point x="725" y="203"/>
      <point x="725" y="377" type="curve" smooth="yes"/>
      <point x="725" y="524"/>
      <point x="817" y="698"/>
      <point x="911" y="782" type="curve" smooth="yes"/>
      <point x="950" y="817"/>
      <point x="997" y="831"/>
      <point x="1018" y="831" type="curve" smooth="yes"/>
      <point x="1063" y="831"/>
      <point x="1110" y="799"/>
      <point x="1110" y="715" type="curve" smooth="yes"/>
      <point x="1110" y="616"/>
      <point x="1073" y="530"/>
      <point x="664" y="381" type="curve"/>
      <point x="639" y="352"/>
      <point x="670" y="307"/>
      <point x="670" y="307" type="curve"/>
      <point x="1206" y="496"/>
      <point x="1270" y="643"/>
    </contour>
    <contour>
      <point x="862" y="901" type="curve"/>
      <point x="842" y="936" type="line"/>
      <point x="754" y="893"/>
      <point x="662" y="821"/>
      <point x="649" y="760" type="curve" smooth="yes"/>
      <point x="635" y="682"/>
      <point x="575" y="281"/>
      <point x="575" y="281" type="curve"/>
      <point x="575" y="281"/>
      <point x="748" y="569"/>
      <point x="786" y="760" type="curve"/>
      <point x="807" y="850"/>
      <point x="817" y="864"/>
    </contour>
    <contour>
      <point x="811" y="842" type="curve"/>
      <point x="764" y="848"/>
      <point x="682" y="936"/>
      <point x="592" y="936" type="curve" smooth="yes"/>
      <point x="510" y="936"/>
      <point x="410" y="891"/>
      <point x="338" y="842" type="curve" smooth="yes"/>
      <point x="147" y="713"/>
      <point x="53" y="516"/>
      <point x="53" y="305" type="curve" smooth="yes"/>
      <point x="53" y="55"/>
      <point x="172" y="-41"/>
      <point x="262" y="-41" type="curve" smooth="yes"/>
      <point x="373" y="-41"/>
      <point x="524" y="158"/>
      <point x="590" y="279" type="curve"/>
      <point x="606" y="457" type="line"/>
      <point x="530" y="297"/>
      <point x="393" y="96"/>
      <point x="326" y="96" type="curve" smooth="yes"/>
      <point x="248" y="96"/>
      <point x="190" y="207"/>
      <point x="190" y="379" type="curve" smooth="yes"/>
      <point x="190" y="537"/>
      <point x="307" y="831"/>
      <point x="489" y="831" type="curve" smooth="yes"/>
      <point x="600" y="831"/>
      <point x="680" y="721"/>
      <point x="717" y="721" type="curve" smooth="yes"/>
      <point x="750" y="721"/>
      <point x="754" y="803"/>
    </contour>
  </outline>
</glyph>
<glyph name="LtnSmDBarredStem" format="2">
  <advance width="969"/>
  <unicode hex="0111"/>
  <anchor x="374" y="-100" name="L"/>
  <anchor x="618" y="1640" name="U"/>
  <outline>
    <contour>
      <point x="1047" y="1180" type="line"/>
      <point x="1028" y="1202" type="line"/>
      <point x="469" y="1202" type="line"/>
      <point x="457" y="1184"/>
      <point x="446" y="1157"/>
      <point x="438" y="1137" type="curve"/>
      <point x="457" y="1112" type="line"/>
      <point x="1016" y="1112" type="line"/>
    </contour>
    <contour>
      <point x="924" y="68" type="curve"/>
      <point x="911" y="104" type="line"/>
      <point x="864" y="84"/>
      <point x="829" y="78"/>
      <point x="795" y="78" type="curve" smooth="yes"/>
      <point x="764" y="78"/>
      <point x="750" y="145"/>
      <point x="750" y="299" type="curve" smooth="yes"/>
      <point x="750" y="479"/>
      <point x="913" y="1231"/>
      <point x="913" y="1438" type="curve" smooth="yes"/>
      <point x="913" y="1499"/>
      <point x="895" y="1520"/>
      <point x="858" y="1520" type="curve" smooth="yes"/>
      <point x="825" y="1520"/>
      <point x="702" y="1475"/>
      <point x="590" y="1425" type="curve"/>
      <point x="602" y="1386" type="line"/>
      <point x="602" y="1386"/>
      <point x="686" y="1413"/>
      <point x="709" y="1413" type="curve" smooth="yes"/>
      <point x="733" y="1413"/>
      <point x="754" y="1407"/>
      <point x="754" y="1346" type="curve" smooth="yes"/>
      <point x="754" y="1159"/>
      <point x="608" y="422"/>
      <point x="608" y="299" type="curve" smooth="yes"/>
      <point x="608" y="39"/>
      <point x="645" y="-41"/>
      <point x="696" y="-41" type="curve" smooth="yes"/>
      <point x="741" y="-41"/>
      <point x="811" y="-8"/>
    </contour>
    <contour>
      <point x="813" y="811" type="curve"/>
      <point x="756" y="803"/>
      <point x="668" y="934"/>
      <point x="592" y="934" type="curve" smooth="yes"/>
      <point x="510" y="934"/>
      <point x="406" y="889"/>
      <point x="332" y="842" type="curve" smooth="yes"/>
      <point x="143" y="717"/>
      <point x="53" y="526"/>
      <point x="53" y="315" type="curve" smooth="yes"/>
      <point x="53" y="66"/>
      <point x="186" y="-41"/>
      <point x="276" y="-41" type="curve" smooth="yes"/>
      <point x="393" y="-41"/>
      <point x="520" y="115"/>
      <point x="610" y="285" type="curve"/>
      <point x="641" y="463" type="line"/>
      <point x="539" y="260"/>
      <point x="424" y="96"/>
      <point x="346" y="96" type="curve" smooth="yes"/>
      <point x="268" y="96"/>
      <point x="190" y="207"/>
      <point x="190" y="379" type="curve" smooth="yes"/>
      <point x="190" y="537"/>
      <point x="307" y="831"/>
      <point x="489" y="831" type="curve" smooth="yes"/>
      <point x="616" y="831"/>
      <point x="696" y="659"/>
      <point x="745" y="659" type="curve" smooth="yes"/>
      <point x="780" y="659"/>
      <point x="756" y="772"/>
    </contour>
  </outline>
</glyph>
<glyph name="LtnCapEBreve" format="1">
  <advance width="946"/>
  <unicode hex="0114"/>
  <outline>
    <component base="LtnCapE"/>
    <component base="CombBreve" xOffset="945" yOffset="320"/>
    <contour>
      <point x="411" y="0" type="move" name="H"/>
    </contour>
    <contour>
      <point x="397" y="-100" type="move" name="L"/>
    </contour>
    <contour>
      <point x="621" y="0" type="move" name="O"/>
    </contour>
    <contour>
      <point x="972" y="1072" type="move" name="R"/>
    </contour>
    <contour>
      <point x="635" y="1640" type="move" name="U"/>
    </contour>
  </outline>
</glyph>
<glyph name="LtnSmEOgonek" format="2">
  <advance width="805"/>
  <unicode hex="0119"/>
  <anchor x="284" y="-600" name="L"/>
  <anchor x="510" y="1000" name="U"/>
  <outline>
    <contour>
      <point x="581" y="-282" type="curve"/>
      <point x="562" y="-247" type="line"/>
      <point x="492" y="-314"/>
      <point x="444" y="-340"/>
      <point x="403" y="-340" type="curve" smooth="yes"/>
      <point x="365" y="-340"/>
      <point x="345" y="-318"/>
      <point x="345" y="-281" type="curve" smooth="yes"/>
      <point x="345" y="-175"/>
      <point x="453" y="-35"/>
      <point x="654" y="119" type="curve" smooth="yes"/>
      <point x="691" y="147"/>
      <point x="701" y="157"/>
      <point x="727" y="180" type="curve"/>
      <point x="723" y="190"/>
      <point x="711" y="213"/>
      <point x="696" y="221" type="curve"/>
      <point x="535" y="92"/>
      <point x="434" y="76"/>
      <point x="377" y="76" type="curve" smooth="yes"/>
      <point x="306" y="76"/>
      <point x="223" y="179"/>
      <point x="207" y="327" type="curve"/>
      <point x="690" y="506"/>
      <point x="750" y="647"/>
      <point x="750" y="760" type="curve" smooth="yes"/>
      <point x="750" y="846"/>
      <point x="696" y="936"/>
      <point x="582" y="936" type="curve" smooth="yes"/>
      <point x="500" y="936"/>
      <point x="403" y="895"/>
      <point x="342" y="846" type="curve"/>
      <point x="166" y="709"/>
      <point x="63" y="512"/>
      <point x="63" y="303" type="curve" smooth="yes"/>
      <point x="63" y="51"/>
      <point x="217" y="-41"/>
      <point x="305" y="-41" type="curve" smooth="yes"/>
      <point x="340" y="-41"/>
      <point x="393" y="-33"/>
      <point x="421" y="-22" type="curve"/>
      <point x="280" y="-138"/>
      <point x="227" y="-243"/>
      <point x="226" y="-326" type="curve" smooth="yes"/>
      <point x="225" y="-412"/>
      <point x="274" y="-446"/>
      <point x="336" y="-446" type="curve" smooth="yes"/>
      <point x="412" y="-446"/>
      <point x="489" y="-391"/>
    </contour>
    <contour>
      <point x="391" y="782" type="curve"/>
      <point x="430" y="817"/>
      <point x="477" y="831"/>
      <point x="498" y="831" type="curve" smooth="yes"/>
      <point x="543" y="831"/>
      <point x="590" y="799"/>
      <point x="590" y="715" type="curve" smooth="yes"/>
      <point x="590" y="621"/>
      <point x="556" y="539"/>
      <point x="206" y="404" type="curve"/>
      <point x="216" y="545"/>
      <point x="303" y="703"/>
    </contour>
  </outline>
</glyph>
<glyph name="LtnCapGDotAbv" format="1">
  <advance width="1073"/>
  <unicode hex="0120"/>
  <outline>
    <component base="LtnCapG"/>
    <component base="CombDotAbv.LP" xOffset="1076" yOffset="320"/>
    <contour>
      <point x="520" y="0" type="move" name="H"/>
    </contour>
    <contour>
      <point x="525" y="-100" type="move" name="L"/>
    </contour>
    <contour>
      <point x="764" y="1640" type="move" name="U"/>
    </contour>
  </outline>
</glyph>
<glyph name="LtnSmGCedilla" format="1">
  <advance width="911"/>
  <unicode hex="0123"/>
  <outline>
    <component base="LtnSmG"/>
    <component base="CombTrndCommaAbv" xOffset="873"/>
    <contour>
      <point x="310" y="-450" type="move" name="H"/>
    </contour>
    <contour>
      <point x="296" y="-600" type="move" name="L"/>
    </contour>
    <contour>
      <point x="940" y="870" type="move" name="R"/>
    </contour>
    <contour>
      <point x="559" y="1320" type="move" name="U"/>
    </contour>
  </outline>
</glyph>
<glyph name="LtnSmHStrk" format="2">
  <advance width="1012"/>
  <unicode hex="0127"/>
  <anchor x="424" y="-100" name="L"/>
  <anchor x="663" y="1640" name="U"/>
  <outline>
    <contour>
      <point x="686" y="1180" type="line"/>
      <point x="670" y="1202" type="line"/>
      <point x="109" y="1202" type="line"/>
      <point x="98" y="1184"/>
      <point x="86" y="1157"/>
      <point x="80" y="1137" type="curve"/>
      <point x="96" y="1112" type="line"/>
      <point x="655" y="1112" type="line"/>
    </contour>
    <contour>
      <point x="969" y="72" type="curve"/>
      <point x="954" y="109" type="line"/>
      <point x="905" y="88"/>
      <point x="866" y="76"/>
      <point x="829" y="76" type="curve" smooth="yes"/>
      <point x="813" y="76"/>
      <point x="793" y="90"/>
      <point x="793" y="135" type="curve" smooth="yes"/>
      <point x="793" y="246"/>
      <point x="879" y="621"/>
      <point x="879" y="760" type="curve" smooth="yes"/>
      <point x="879" y="889"/>
      <point x="846" y="936"/>
      <point x="762" y="936" type="curve" smooth="yes"/>
      <point x="643" y="936"/>
      <point x="494" y="870"/>
      <point x="338" y="678" type="curve"/>
      <point x="362" y="823"/>
      <point x="442" y="1343"/>
      <point x="442" y="1438" type="curve" smooth="yes"/>
      <point x="442" y="1499"/>
      <point x="420" y="1520"/>
      <point x="383" y="1520" type="curve" smooth="yes"/>
      <point x="348" y="1520"/>
      <point x="225" y="1475"/>
      <point x="113" y="1425" type="curve"/>
      <point x="125" y="1386" type="line"/>
      <point x="153" y="1394"/>
      <point x="220" y="1413"/>
      <point x="240" y="1413" type="curve" smooth="yes"/>
      <point x="262" y="1413"/>
      <point x="281" y="1407"/>
      <point x="281" y="1346" type="curve" smooth="yes"/>
      <point x="281" y="1176"/>
      <point x="135" y="276"/>
      <point x="86" y="-10" type="curve"/>
      <point x="119" y="-41" type="line"/>
      <point x="152" y="-23"/>
      <point x="227" y="10"/>
      <point x="262" y="25" type="curve"/>
      <point x="262" y="82"/>
      <point x="264" y="154"/>
      <point x="285" y="301" type="curve" smooth="yes"/>
      <point x="302" y="420"/>
      <point x="324" y="519"/>
      <point x="362" y="582" type="curve" smooth="yes"/>
      <point x="464" y="752"/>
      <point x="621" y="834"/>
      <point x="655" y="834" type="curve" smooth="yes"/>
      <point x="713" y="834"/>
      <point x="725" y="801"/>
      <point x="725" y="700" type="curve" smooth="yes"/>
      <point x="725" y="610"/>
      <point x="639" y="147"/>
      <point x="639" y="76" type="curve" smooth="yes"/>
      <point x="639" y="4"/>
      <point x="674" y="-41"/>
      <point x="713" y="-41" type="curve" smooth="yes"/>
      <point x="768" y="-41"/>
      <point x="846" y="0"/>
    </contour>
  </outline>
</glyph>
<glyph name="LtnCapIOgonek" format="1">
  <advance width="573"/>
  <unicode hex="012E"/>
  <outline>
    <component base="LtnCapI"/>
    <component base="CombOgonek" xOffset="741"/>
    <contour>
      <point x="225" y="0" type="move" name="H"/>
    </contour>
    <contour>
      <point x="153" y="-600" type="move" name="L"/>
    </contour>
    <contour>
      <point x="568" y="1072" type="move" name="R"/>
    </contour>
    <contour>
      <point x="406" y="1320" type="move" name="U"/>
    </contour>
  </outline>
</glyph>
<glyph name="LtnSmDotlessI" format="2">
  <advance width="504"/>
  <unicode hex="0131"/>
  <anchor x="210" y="0" name="H"/>
  <anchor x="212" y="-100" name="L"/>
  <anchor x="272" y="0" name="O"/>
  <anchor x="520" y="870" name="R"/>
  <anchor x="334" y="1000" name="U"/>
  <outline>
    <contour>
      <point x="455" y="72" type="curve"/>
      <point x="440" y="109" type="line"/>
      <point x="385" y="86"/>
      <point x="352" y="76"/>
      <point x="311" y="76" type="curve" smooth="yes"/>
      <point x="289" y="76"/>
      <point x="281" y="94"/>
      <point x="281" y="135" type="curve" smooth="yes"/>
      <point x="281" y="252"/>
      <point x="385" y="735"/>
      <point x="385" y="852" type="curve" smooth="yes"/>
      <point x="385" y="913"/>
      <point x="371" y="936"/>
      <point x="334" y="936" type="curve" smooth="yes"/>
      <point x="299" y="936"/>
      <point x="182" y="891"/>
      <point x="70" y="840" type="curve"/>
      <point x="84" y="803" type="line"/>
      <point x="118" y="813"/>
      <point x="168" y="827"/>
      <point x="184" y="827" type="curve" smooth="yes"/>
      <point x="209" y="827"/>
      <point x="225" y="821"/>
      <point x="225" y="760" type="curve" smooth="yes"/>
      <point x="225" y="662"/>
      <point x="125" y="195"/>
      <point x="125" y="76" type="curve" smooth="yes"/>
      <point x="125" y="4"/>
      <point x="154" y="-41"/>
      <point x="199" y="-41" type="curve" smooth="yes"/>
      <point x="258" y="-41"/>
      <point x="330" y="-2"/>
    </contour>
  </outline>
</glyph>
<glyph name="LtnCapLAcute" format="1">
  <advance width="918"/>
  <unicode hex="0139"/>
  <outline>
    <component base="LtnCapL"/>
    <component base="CombAcute.LP" xOffset="910" yOffset="320"/>
    <contour>
      <point x="415" y="0" type="move" name="H"/>
    </contour>
    <contour>
      <point x="393" y="-100" type="move" name="L"/>
    </contour>
    <contour>
      <point x="750" y="870" type="move" name="R"/>
    </contour>
    <contour>
      <point x="601" y="1640" type="move" name="U"/>
    </contour>
  </outline>
</glyph>
<glyph name="LtnCapLStrk" format="2">
  <advance width="918"/>
  <unicode hex="0141"/>
  <anchor x="391" y="-100" name="L"/>
  <anchor x="585" y="1320" name="U"/>
  <outline>
    <contour>
      <point x="848" y="244" type="curve"/>
      <point x="809" y="262" type="line"/>
      <point x="735" y="106"/>
      <point x="700" y="90"/>
      <point x="588" y="90" type="curve" smooth="yes"/>
      <point x="461" y="90" type="line" smooth="yes"/>
      <point x="328" y="90"/>
      <point x="293" y="106"/>
      <point x="299" y="154" type="curve" smooth="yes"/>
      <point x="436" y="1155" type="line"/>
      <point x="440" y="1174"/>
      <point x="494" y="1198"/>
      <point x="578" y="1217" type="curve"/>
      <point x="584" y="1260" type="line"/>
      <point x="174" y="1260" type="line"/>
      <point x="168" y="1217" type="line"/>
      <point x="254" y="1198"/>
      <point x="295" y="1171"/>
      <point x="293" y="1155" type="curve" smooth="yes"/>
      <point x="147" y="104" type="line" smooth="yes"/>
      <point x="145" y="86"/>
      <point x="90" y="61"/>
      <point x="6" y="43" type="curve"/>
      <point x="0" y="0" type="line"/>
      <point x="774" y="0" type="line"/>
      <point x="791" y="39"/>
      <point x="821" y="129"/>
    </contour>
    <contour>
      <point x="657" y="823" type="curve"/>
      <point x="637" y="848" type="line"/>
      <point x="113" y="575" type="line"/>
      <point x="98" y="559"/>
      <point x="70" y="504"/>
      <point x="61" y="477" type="curve"/>
      <point x="84" y="455" type="line"/>
      <point x="606" y="729" type="line"/>
      <point x="623" y="748"/>
      <point x="649" y="799"/>
    </contour>
  </outline>
</glyph>
<glyph name="LtnSmLStrk" format="2">
  <advance width="521"/>
  <unicode hex="0142"/>
  <anchor x="173" y="-100" name="L"/>
  <anchor x="412" y="1640" name="U"/>
  <outline>
    <contour>
      <point x="546" y="944" type="curve"/>
      <point x="523" y="966" type="line"/>
      <point x="74" y="652" type="line"/>
      <point x="47" y="594"/>
      <point x="51" y="600"/>
      <point x="43" y="565" type="curve"/>
      <point x="61" y="545" type="line"/>
      <point x="513" y="862" type="line"/>
      <point x="536" y="907"/>
      <point x="532" y="899"/>
    </contour>
    <contour>
      <point x="456" y="72" type="curve"/>
      <point x="444" y="109" type="line"/>
      <point x="385" y="86"/>
      <point x="346" y="76"/>
      <point x="315" y="76" type="curve" smooth="yes"/>
      <point x="294" y="76"/>
      <point x="280" y="90"/>
      <point x="280" y="135" type="curve" smooth="yes"/>
      <point x="280" y="317"/>
      <point x="454" y="1231"/>
      <point x="454" y="1438" type="curve" smooth="yes"/>
      <point x="454" y="1499"/>
      <point x="430" y="1520"/>
      <point x="393" y="1520" type="curve" smooth="yes"/>
      <point x="358" y="1520"/>
      <point x="237" y="1475"/>
      <point x="124" y="1425" type="curve"/>
      <point x="139" y="1386" type="line"/>
      <point x="139" y="1386"/>
      <point x="221" y="1413"/>
      <point x="243" y="1413" type="curve" smooth="yes"/>
      <point x="268" y="1413"/>
      <point x="294" y="1407"/>
      <point x="294" y="1346" type="curve" smooth="yes"/>
      <point x="294" y="1159"/>
      <point x="122" y="211"/>
      <point x="122" y="78" type="curve" smooth="yes"/>
      <point x="122" y="0"/>
      <point x="157" y="-41"/>
      <point x="194" y="-41" type="curve" smooth="yes"/>
      <point x="262" y="-41"/>
      <point x="325" y="-10"/>
    </contour>
  </outline>
</glyph>
<glyph name="LtnSmEng" format="2">
  <advance width="989"/>
  <unicode hex="014B"/>
  <anchor x="353" y="-600" name="L"/>
  <anchor x="572" y="1000" name="U"/>
  <outline>
    <contour>
      <point x="881" y="762" type="curve"/>
      <point x="881" y="891"/>
      <point x="836" y="936"/>
      <point x="752" y="936" type="curve" smooth="yes"/>
      <point x="633" y="936"/>
      <point x="483" y="860"/>
      <point x="338" y="678" type="curve"/>
      <point x="342" y="711"/>
      <point x="348" y="795"/>
      <point x="348" y="823" type="curve" smooth="yes"/>
      <point x="348" y="918"/>
      <point x="346" y="936"/>
      <point x="309" y="936" type="curve" smooth="yes"/>
      <point x="276" y="936"/>
      <point x="154" y="891"/>
      <point x="41" y="842" type="curve"/>
      <point x="55" y="803" type="line"/>
      <point x="55" y="803"/>
      <point x="139" y="829"/>
      <point x="162" y="829" type="curve" smooth="yes"/>
      <point x="186" y="829"/>
      <point x="199" y="823"/>
      <point x="199" y="762" type="curve" smooth="yes"/>
      <point x="199" y="668"/>
      <point x="141" y="256"/>
      <point x="86" y="-10" type="curve"/>
      <point x="119" y="-41" type="line"/>
      <point x="152" y="-23"/>
      <point x="227" y="6"/>
      <point x="262" y="25" type="curve"/>
      <point x="260" y="104"/>
      <point x="264" y="182"/>
      <point x="285" y="301" type="curve" smooth="yes"/>
      <point x="307" y="430"/>
      <point x="328" y="516"/>
      <point x="365" y="580" type="curve" smooth="yes"/>
      <point x="465" y="750"/>
      <point x="616" y="836"/>
      <point x="651" y="836" type="curve" smooth="yes"/>
      <point x="709" y="836"/>
      <point x="727" y="801"/>
      <point x="727" y="700" type="curve" smooth="yes"/>
      <point x="727" y="623"/>
      <point x="686" y="323"/>
      <point x="620" y="-11" type="curve" smooth="yes"/>
      <point x="570" y="-277"/>
      <point x="510" y="-386"/>
      <point x="375" y="-386" type="curve" smooth="yes"/>
      <point x="276" y="-386"/>
      <point x="203" y="-284"/>
      <point x="180" y="-284" type="curve" smooth="yes"/>
      <point x="151" y="-284"/>
      <point x="71" y="-372"/>
      <point x="71" y="-407" type="curve" smooth="yes"/>
      <point x="71" y="-431"/>
      <point x="217" y="-501"/>
      <point x="291" y="-501" type="curve" smooth="yes"/>
      <point x="338" y="-501"/>
      <point x="444" y="-485"/>
      <point x="516" y="-425" type="curve" smooth="yes"/>
      <point x="637" y="-323"/>
      <point x="725" y="-217"/>
      <point x="776" y="44" type="curve" smooth="yes"/>
      <point x="829" y="311"/>
      <point x="881" y="668"/>
    </contour>
  </outline>
</glyph>
<glyph name="LtnSmLigOe" format="2">
  <advance width="1374"/>
  <unicode hex="0153"/>
  <anchor x="644" y="0" name="H"/>
  <anchor x="620" y="-100" name="L"/>
  <anchor x="980" y="0" name="O"/>
  <anchor x="1468" y="870" name="R"/>
  <anchor x="771" y="1000" name="U"/>
  <outline>
    <contour>
      <point x="1321" y="760" type="curve" smooth="yes"/>
      <point x="1321" y="846"/>
      <point x="1266" y="936"/>
      <point x="1151" y="936" type="curve" smooth="yes"/>
      <point x="1069" y="936"/>
      <point x="973" y="895"/>
      <point x="911" y="846" type="curve" smooth="yes"/>
      <point x="735" y="709"/>
      <point x="638" y="512"/>
      <point x="638" y="303" type="curve" smooth="yes"/>
      <point x="638" y="51"/>
      <point x="786" y="-41"/>
      <point x="877" y="-41" type="curve" smooth="yes"/>
      <point x="973" y="-41"/>
      <point x="1077" y="-10"/>
      <point x="1296" y="180" type="curve"/>
      <point x="1292" y="190"/>
      <point x="1280" y="213"/>
      <point x="1268" y="221" type="curve"/>
      <point x="1104" y="92"/>
      <point x="1004" y="76"/>
      <point x="946" y="76" type="curve" smooth="yes"/>
      <point x="868" y="76"/>
      <point x="774" y="203"/>
      <point x="774" y="377" type="curve" smooth="yes"/>
      <point x="774" y="524"/>
      <point x="866" y="698"/>
      <point x="961" y="782" type="curve"/>
      <point x="999" y="817"/>
      <point x="1049" y="831"/>
      <point x="1067" y="831" type="curve" smooth="yes"/>
      <point x="1114" y="831"/>
      <point x="1159" y="799"/>
      <point x="1159" y="715" type="curve" smooth="yes"/>
      <point x="1159" y="616"/>
      <point x="1122" y="530"/>
      <point x="715" y="381" type="curve"/>
      <point x="690" y="352"/>
      <point x="721" y="307"/>
      <point x="721" y="307" type="curve"/>
      <point x="1257" y="496"/>
      <point x="1321" y="643"/>
    </contour>
    <contour>
      <point x="787" y="574" type="curve" smooth="yes"/>
      <point x="787" y="795"/>
      <point x="692" y="936"/>
      <point x="512" y="936" type="curve" smooth="yes"/>
      <point x="436" y="936"/>
      <point x="348" y="895"/>
      <point x="283" y="840" type="curve" smooth="yes"/>
      <point x="117" y="698"/>
      <point x="53" y="535"/>
      <point x="53" y="344" type="curve" smooth="yes"/>
      <point x="53" y="125"/>
      <point x="164" y="-41"/>
      <point x="338" y="-41" type="curve" smooth="yes"/>
      <point x="412" y="-41"/>
      <point x="500" y="4"/>
      <point x="567" y="63" type="curve"/>
      <point x="717" y="199"/>
      <point x="787" y="396"/>
    </contour>
    <contour>
      <point x="647" y="504" type="curve" smooth="yes"/>
      <point x="647" y="340"/>
      <point x="567" y="72"/>
      <point x="403" y="72" type="curve" smooth="yes"/>
      <point x="289" y="72"/>
      <point x="197" y="221"/>
      <point x="197" y="399" type="curve" smooth="yes"/>
      <point x="197" y="569"/>
      <point x="274" y="819"/>
      <point x="442" y="819" type="curve" smooth="yes"/>
      <point x="571" y="819"/>
      <point x="647" y="707"/>
    </contour>
  </outline>
</glyph>
<glyph name="LtnSmSCircum" format="1">
  <advance width="711"/>
  <unicode hex="015D"/>
  <outline>
    <component base="LtnSmS"/>
    <component base="CombCircum" xOffset="789"/>
    <contour>
      <point x="290" y="0" type="move" name="H"/>
    </contour>
    <contour>
      <point x="286" y="-100" type="move" name="L"/>
    </contour>
    <contour>
      <point x="510" y="1490" type="move" name="U"/>
    </contour>
  </outline>
</glyph>
<glyph name="LtnSmTCedilla" format="1">
  <advance width="629"/>
  <unicode hex="0163"/>
  <outline>
    <component base="LtnSmT"/>
    <component base="CombCedilla" xOffset="740"/>
    <contour>
      <point x="171" y="-600" type="move" name="L"/>
    </contour>
    <contour>
      <point x="529" y="870" type="move" name="R"/>
    </contour>
    <contour>
      <point x="424" y="1230" type="move" name="U"/>
    </contour>
  </outline>
</glyph>
<glyph name="LtnCapUBreve" format="1">
  <advance width="1227"/>
  <unicode hex="016C"/>
  <outline>
    <component base="LtnCapU"/>
    <component base="CombBreve" xOffset="1111" yOffset="320"/>
    <contour>
      <point x="580" y="0" type="move" name="H"/>
    </contour>
    <contour>
      <point x="563" y="-100" type="move" name="L"/>
    </contour>
    <contour>
      <point x="661" y="0" type="move" name="O"/>
    </contour>
    <contour>
      <point x="1256" y="1072" type="move" name="R"/>
    </contour>
    <contour>
      <point x="801" y="1640" type="move" name="U"/>
    </contour>
  </outline>
</glyph>
<glyph name="LtnSmZAcute" format="1">
  <advance width="776"/>
  <unicode hex="017A"/>
  <outline>
    <component base="LtnSmZ"/>
    <component base="CombAcute" xOffset="841"/>
    <contour>
      <point x="380" y="0" type="move" name="H"/>
    </contour>
    <contour>
      <point x="347" y="-100" type="move" name="L"/>
    </contour>
    <contour>
      <point x="539" y="1370" type="move" name="U"/>
    </contour>
  </outline>
</glyph>
<glyph name="LtnCapBTopbar" format="2">
  <advance width="1016"/>
  <unicode hex="0182"/>
  <anchor x="420" y="-100" name="L"/>
  <anchor x="614" y="1320" name="U"/>
  <outline>
    <contour>
      <point x="918" y="356" type="curve"/>
      <point x="948" y="581"/>
      <point x="822" y="739"/>
      <point x="559" y="739" type="curve" smooth="yes"/>
      <point x="468" y="739"/>
      <point x="379" y="725"/>
      <point x="313" y="705" type="curve"/>
      <point x="312" y="627" type="line"/>
      <point x="370" y="637"/>
      <point x="433" y="649"/>
      <point x="512" y="649" type="curve" smooth="yes"/>
      <point x="721" y="649"/>
      <point x="786" y="469"/>
      <point x="766" y="322" type="curve" smooth="yes"/>
      <point x="746" y="172"/>
      <point x="621" y="70"/>
      <point x="448" y="70" type="curve" smooth="yes"/>
      <point x="394" y="70"/>
      <point x="313" y="76"/>
      <point x="279" y="98" type="curve"/>
      <point x="67" y="0" type="line"/>
      <point x="67" y="0"/>
      <point x="352" y="-14"/>
      <point x="457" y="-14" type="curve" smooth="yes"/>
      <point x="700" y="-14"/>
      <point x="887" y="129"/>
    </contour>
    <contour>
      <point x="976" y="1235" type="curve"/>
      <point x="952" y="1260" type="line"/>
      <point x="426" y="1260" type="line"/>
      <point x="387" y="1170" type="line"/>
      <point x="816" y="1170" type="line" smooth="yes"/>
      <point x="862" y="1170"/>
      <point x="862" y="1100"/>
      <point x="846" y="930" type="curve"/>
      <point x="889" y="930" type="line"/>
      <point x="917" y="1006"/>
      <point x="964" y="1167"/>
    </contour>
    <contour>
      <point x="452" y="0" type="line"/>
      <point x="457" y="43" type="line"/>
      <point x="317" y="70"/>
      <point x="286" y="86"/>
      <point x="289" y="104" type="curve" smooth="yes"/>
      <point x="434" y="1177" type="line" smooth="yes"/>
      <point x="437" y="1195"/>
      <point x="487" y="1198"/>
      <point x="571" y="1217" type="curve"/>
      <point x="577" y="1260" type="line"/>
      <point x="426" y="1260" type="line"/>
      <point x="171" y="1260" type="line"/>
      <point x="165" y="1217" type="line"/>
      <point x="248" y="1198"/>
      <point x="289" y="1171"/>
      <point x="287" y="1155" type="curve" smooth="yes"/>
      <point x="145" y="104" type="line" smooth="yes"/>
      <point x="142" y="86"/>
      <point x="89" y="61"/>
      <point x="5" y="43" type="curve"/>
      <point x="0" y="0" type="line"/>
    </contour>
  </outline>
</glyph>
<glyph name="LtnSmBTopbar" format="2">
  <advance width="956"/>
  <unicode hex="0183"/>
  <anchor x="416" y="-100" name="L"/>
  <anchor x="655" y="1640" name="U"/>
  <outline>
    <contour>
      <point x="885" y="610" type="curve"/>
      <point x="887" y="821"/>
      <point x="807" y="936"/>
      <point x="702" y="936" type="curve" smooth="yes"/>
      <point x="606" y="936"/>
      <point x="399" y="827"/>
      <point x="254" y="498" type="curve"/>
      <point x="270" y="414" type="line"/>
      <point x="367" y="635"/>
      <point x="549" y="803"/>
      <point x="604" y="803" type="curve" smooth="yes"/>
      <point x="668" y="803"/>
      <point x="741" y="715"/>
      <point x="741" y="530" type="curve" smooth="yes"/>
      <point x="741" y="440"/>
      <point x="729" y="326"/>
      <point x="668" y="229" type="curve" smooth="yes"/>
      <point x="625" y="162"/>
      <point x="555" y="86"/>
      <point x="459" y="86" type="curve" smooth="yes"/>
      <point x="367" y="86"/>
      <point x="276" y="186"/>
      <point x="276" y="256" type="curve" smooth="yes"/>
      <point x="276" y="432"/>
      <point x="432" y="1249"/>
      <point x="432" y="1438" type="curve"/>
      <point x="405" y="1454"/>
      <point x="372" y="1475"/>
      <point x="249" y="1427" type="curve"/>
      <point x="263" y="1409"/>
      <point x="268" y="1344"/>
      <point x="268" y="1316" type="curve" smooth="yes"/>
      <point x="268" y="1152"/>
      <point x="123" y="358"/>
      <point x="123" y="217" type="curve" smooth="yes"/>
      <point x="123" y="96"/>
      <point x="279" y="-41"/>
      <point x="362" y="-41" type="curve" smooth="yes"/>
      <point x="530" y="-41"/>
      <point x="662" y="68"/>
      <point x="752" y="188" type="curve" smooth="yes"/>
      <point x="848" y="322"/>
      <point x="883" y="469"/>
    </contour>
    <contour>
      <point x="906" y="1465" type="curve"/>
      <point x="882" y="1490" type="line"/>
      <point x="393" y="1490" type="line"/>
      <point x="249" y="1427" type="line"/>
      <point x="313" y="1400" type="line"/>
      <point x="746" y="1400" type="line" smooth="yes"/>
      <point x="792" y="1400"/>
      <point x="792" y="1330"/>
      <point x="776" y="1160" type="curve"/>
      <point x="819" y="1160" type="line"/>
      <point x="847" y="1236"/>
      <point x="894" y="1397"/>
    </contour>
  </outline>
</glyph>
<glyph name="LtnCapTnSix" format="2">
  <advance width="1007"/>
  <unicode hex="0184"/>
  <anchor x="414" y="-100" name="L"/>
  <anchor x="609" y="1320" name="U"/>
  <outline>
    <contour>
      <point x="456" y="-14" type="curve" smooth="yes"/>
      <point x="728" y="-14"/>
      <point x="921" y="166"/>
      <point x="921" y="419" type="curve" smooth="yes"/>
      <point x="921" y="610"/>
      <point x="796" y="739"/>
      <point x="558" y="739" type="curve" smooth="yes"/>
      <point x="467" y="739"/>
      <point x="377" y="725"/>
      <point x="311" y="705" type="curve"/>
      <point x="311" y="627" type="line"/>
      <point x="366" y="638"/>
      <point x="432" y="649"/>
      <point x="511" y="649" type="curve" smooth="yes"/>
      <point x="696" y="649"/>
      <point x="768" y="508"/>
      <point x="768" y="373" type="curve" smooth="yes"/>
      <point x="768" y="183"/>
      <point x="629" y="70"/>
      <point x="447" y="70" type="curve" smooth="yes"/>
      <point x="393" y="70"/>
      <point x="312" y="76"/>
      <point x="278" y="98" type="curve"/>
      <point x="66" y="0" type="line"/>
      <point x="206" y="-7"/>
      <point x="351" y="-14"/>
    </contour>
    <contour>
      <point x="405" y="0" type="line"/>
      <point x="410" y="43" type="line"/>
      <point x="327" y="61"/>
      <point x="286" y="88"/>
      <point x="288" y="104" type="curve" smooth="yes"/>
      <point x="339" y="485" type="line"/>
      <point x="195" y="485" type="line"/>
      <point x="144" y="104" type="line" smooth="yes"/>
      <point x="142" y="86"/>
      <point x="89" y="61"/>
      <point x="5" y="43" type="curve"/>
      <point x="0" y="0" type="line"/>
    </contour>
    <contour>
      <point x="445" y="1260" type="line"/>
      <point x="440" y="1269"/>
      <point x="428" y="1283"/>
      <point x="417" y="1290" type="curve"/>
      <point x="384" y="1275"/>
      <point x="324" y="1247"/>
      <point x="290" y="1215" type="curve"/>
      <point x="41" y="897" type="line"/>
      <point x="49" y="885"/>
      <point x="53" y="879"/>
      <point x="60" y="870" type="curve"/>
      <point x="93" y="885"/>
      <point x="153" y="913"/>
      <point x="187" y="945" type="curve"/>
      <point x="272" y="1052" type="line"/>
      <point x="178" y="354" type="line"/>
      <point x="322" y="354" type="line"/>
    </contour>
  </outline>
</glyph>
<glyph name="LtnSmTnSix" format="2">
  <advance width="956"/>
  <unicode hex="0185"/>
  <anchor x="435" y="-100" name="L"/>
  <anchor x="670" y="1640" name="U"/>
  <outline>
    <contour>
      <point x="885" y="610" type="curve"/>
      <point x="887" y="821"/>
      <point x="807" y="936"/>
      <point x="702" y="936" type="curve" smooth="yes"/>
      <point x="618" y="936"/>
      <point x="451" y="853"/>
      <point x="313" y="615" type="curve"/>
      <point x="313" y="617" type="line"/>
      <point x="453" y="1487" type="line"/>
      <point x="425" y="1517" type="line"/>
      <point x="353" y="1374"/>
      <point x="226" y="1207"/>
      <point x="77" y="1162" type="curve"/>
      <point x="72" y="1120" type="line"/>
      <point x="224" y="1107"/>
      <point x="235" y="1059"/>
      <point x="221" y="961" type="curve" smooth="yes"/>
      <point x="174" y="634"/>
      <point x="123" y="304"/>
      <point x="123" y="217" type="curve" smooth="yes"/>
      <point x="123" y="96"/>
      <point x="279" y="-41"/>
      <point x="362" y="-41" type="curve" smooth="yes"/>
      <point x="530" y="-41"/>
      <point x="662" y="68"/>
      <point x="752" y="188" type="curve"/>
      <point x="848" y="322"/>
      <point x="883" y="469"/>
    </contour>
    <contour>
      <point x="604" y="803" type="curve"/>
      <point x="668" y="803"/>
      <point x="741" y="715"/>
      <point x="741" y="530" type="curve" smooth="yes"/>
      <point x="741" y="440"/>
      <point x="729" y="326"/>
      <point x="668" y="229" type="curve" smooth="yes"/>
      <point x="625" y="162"/>
      <point x="555" y="86"/>
      <point x="459" y="86" type="curve" smooth="yes"/>
      <point x="367" y="86"/>
      <point x="276" y="186"/>
      <point x="276" y="256" type="curve" smooth="yes"/>
      <point x="276" y="295"/>
      <point x="283" y="371"/>
      <point x="294" y="465" type="curve"/>
      <point x="394" y="660"/>
      <point x="553" y="803"/>
    </contour>
  </outline>
</glyph>
<glyph name="LtnCapCHook" format="2">
  <advance width="995"/>
  <unicode hex="0187"/>
  <anchor x="491" y="-100" name="L"/>
  <anchor x="686" y="1320" name="U"/>
  <outline>
    <contour>
      <point x="1411" y="1463" type="curve"/>
      <point x="1414" y="1488"/>
      <point x="1355" y="1590"/>
      <point x="1250" y="1590" type="curve" smooth="yes"/>
      <point x="1203" y="1590"/>
      <point x="1127" y="1558"/>
      <point x="1057" y="1498" type="curve"/>
      <point x="951" y="1408"/>
      <point x="903" y="1317"/>
      <point x="874" y="1131" type="curve"/>
      <point x="924" y="1152"/>
      <point x="954" y="1163"/>
      <point x="1017" y="1189" type="curve"/>
      <point x="1043" y="1378"/>
      <point x="1088" y="1467"/>
      <point x="1164" y="1467" type="curve" smooth="yes"/>
      <point x="1197" y="1467"/>
      <point x="1246" y="1447"/>
      <point x="1282" y="1355" type="curve"/>
      <point x="1320" y="1373"/>
      <point x="1408" y="1441"/>
    </contour>
    <contour>
      <point x="1016" y="1190" type="curve"/>
      <point x="958" y="1245"/>
      <point x="864" y="1290"/>
      <point x="733" y="1290" type="curve" smooth="yes"/>
      <point x="608" y="1290"/>
      <point x="494" y="1243"/>
      <point x="397" y="1167" type="curve" smooth="yes"/>
      <point x="172" y="989"/>
      <point x="76" y="711"/>
      <point x="76" y="459" type="curve" smooth="yes"/>
      <point x="76" y="150"/>
      <point x="256" y="-27"/>
      <point x="457" y="-27" type="curve" smooth="yes"/>
      <point x="582" y="-27"/>
      <point x="717" y="29"/>
      <point x="897" y="211" type="curve"/>
      <point x="891" y="219"/>
      <point x="881" y="250"/>
      <point x="868" y="256" type="curve"/>
      <point x="719" y="137"/>
      <point x="618" y="96"/>
      <point x="543" y="96" type="curve" smooth="yes"/>
      <point x="403" y="96"/>
      <point x="227" y="225"/>
      <point x="227" y="516" type="curve" smooth="yes"/>
      <point x="227" y="684"/>
      <point x="293" y="969"/>
      <point x="461" y="1100" type="curve" smooth="yes"/>
      <point x="514" y="1141"/>
      <point x="588" y="1169"/>
      <point x="641" y="1169" type="curve" smooth="yes"/>
      <point x="750" y="1169"/>
      <point x="827" y="1124"/>
      <point x="881" y="1065" type="curve"/>
      <point x="911" y="1057" type="line"/>
      <point x="946" y="1087"/>
      <point x="1026" y="1178"/>
    </contour>
  </outline>
</glyph>
<glyph name="LtnCapDHook" format="2">
  <advance width="1300"/>
  <unicode hex="018A"/>
  <anchor x="639" y="-100" name="L"/>
  <anchor x="835" y="1320" name="U"/>
  <outline>
    <contour>
      <point x="123" y="1003" type="curve" smooth="yes"/>
      <point x="113" y="930"/>
      <point x="138" y="877"/>
      <point x="179" y="856" type="curve"/>
      <point x="230" y="867"/>
      <point x="314" y="914"/>
      <point x="323" y="930" type="curve"/>
      <point x="288" y="949"/>
      <point x="269" y="988"/>
      <point x="275" y="1036" type="curve" smooth="yes"/>
      <point x="286" y="1120"/>
      <point x="357" y="1175"/>
      <point x="504" y="1196" type="curve"/>
      <point x="356" y="104" type="line" smooth="yes"/>
      <point x="353" y="86"/>
      <point x="301" y="61"/>
      <point x="217" y="43" type="curve"/>
      <point x="212" y="0" type="line"/>
      <point x="670" y="0" type="line" smooth="yes"/>
      <point x="922" y="0"/>
      <point x="1213" y="155"/>
      <point x="1280" y="646" type="curve" smooth="yes"/>
      <point x="1309" y="860"/>
      <point x="1252" y="1072"/>
      <point x="1099" y="1193" type="curve" smooth="yes"/>
      <point x="1017" y="1257"/>
      <point x="922" y="1290"/>
      <point x="727" y="1290" type="curve" smooth="yes"/>
      <point x="394" y="1290"/>
      <point x="150" y="1206"/>
    </contour>
    <contour>
      <point x="657" y="1206" type="line"/>
      <point x="847" y="1206"/>
      <point x="925" y="1168"/>
      <point x="1002" y="1091" type="curve" smooth="yes"/>
      <point x="1105" y="988"/>
      <point x="1141" y="797"/>
      <point x="1116" y="616" type="curve" smooth="yes"/>
      <point x="1063" y="228"/>
      <point x="827" y="84"/>
      <point x="661" y="84" type="curve" smooth="yes"/>
      <point x="535" y="84"/>
      <point x="499" y="100"/>
      <point x="506" y="150" type="curve" smooth="yes"/>
      <point x="506" y="152"/>
      <point x="506" y="152"/>
      <point x="649" y="1206" type="curve"/>
    </contour>
  </outline>
</glyph>
<glyph name="LtnCapSchwa" format="2">
  <advance width="1073"/>
  <unicode hex="018F"/>
  <anchor x="450" y="-100" name="L"/>
  <anchor x="644" y="1320" name="U"/>
  <outline>
    <contour>
      <point x="998" y="797" type="curve" smooth="yes"/>
      <point x="998" y="1111"/>
      <point x="820" y="1290"/>
      <point x="619" y="1290" type="curve" smooth="yes"/>
      <point x="498" y="1290"/>
      <point x="378" y="1260"/>
      <point x="191" y="1081" type="curve"/>
      <point x="193" y="1070"/>
      <point x="208" y="1045"/>
      <point x="217" y="1036" type="curve"/>
      <point x="376" y="1149"/>
      <point x="476" y="1174"/>
      <point x="540" y="1174" type="curve" smooth="yes"/>
      <point x="693" y="1174"/>
      <point x="851" y="1033"/>
      <point x="851" y="754" type="curve" smooth="yes"/>
      <point x="851" y="462"/>
      <point x="727" y="84"/>
      <point x="457" y="84" type="curve" smooth="yes"/>
      <point x="327" y="84"/>
      <point x="235" y="209"/>
      <point x="235" y="341" type="curve" smooth="yes"/>
      <point x="235" y="406"/>
      <point x="264" y="500"/>
      <point x="315" y="500" type="curve" smooth="yes"/>
      <point x="837" y="500" type="line"/>
      <point x="850" y="590" type="line"/>
      <point x="315" y="590" type="line" smooth="yes"/>
      <point x="299" y="590"/>
      <point x="192" y="540"/>
      <point x="131" y="502" type="curve"/>
      <point x="97" y="458"/>
      <point x="77" y="374"/>
      <point x="77" y="306" type="curve" smooth="yes"/>
      <point x="77" y="142"/>
      <point x="187" y="-30"/>
      <point x="400" y="-30" type="curve" smooth="yes"/>
      <point x="762" y="-30"/>
      <point x="998" y="400"/>
    </contour>
  </outline>
</glyph>
<glyph name="LtnCapFHook" format="2">
  <advance width="891"/>
  <unicode hex="0191"/>
  <anchor x="487" y="-100" name="L"/>
  <anchor x="588" y="1320" name="U"/>
  <outline>
    <contour>
      <point x="303" y="178" type="curve"/>
      <point x="367" y="655" type="line"/>
      <point x="448" y="655" type="line" smooth="yes"/>
      <point x="548" y="655"/>
      <point x="588" y="639"/>
      <point x="619" y="600" type="curve"/>
      <point x="647" y="621"/>
      <point x="690" y="670"/>
      <point x="717" y="707" type="curve"/>
      <point x="695" y="735" type="line"/>
      <point x="378" y="735" type="line"/>
      <point x="437" y="1170" type="line"/>
      <point x="784" y="1170" type="line" smooth="yes"/>
      <point x="830" y="1170"/>
      <point x="849" y="1133"/>
      <point x="837" y="1010" type="curve"/>
      <point x="879" y="1010" type="line"/>
      <point x="900" y="1061"/>
      <point x="933" y="1167"/>
      <point x="944" y="1235" type="curve"/>
      <point x="920" y="1260" type="line"/>
      <point x="176" y="1260" type="line"/>
      <point x="170" y="1217" type="line"/>
      <point x="253" y="1198"/>
      <point x="293" y="1171"/>
      <point x="291" y="1155" type="curve" smooth="yes"/>
      <point x="149" y="104" type="line" smooth="yes"/>
      <point x="110" y="-184"/>
      <point x="12" y="-257"/>
      <point x="-48" y="-257" type="curve" smooth="yes"/>
      <point x="-94" y="-257"/>
      <point x="-123" y="-249"/>
      <point x="-183" y="-200" type="curve"/>
      <point x="-218" y="-214"/>
      <point x="-298" y="-278"/>
      <point x="-301" y="-300" type="curve" smooth="yes"/>
      <point x="-304" y="-323"/>
      <point x="-236" y="-380"/>
      <point x="-163" y="-380" type="curve" smooth="yes"/>
      <point x="-116" y="-380"/>
      <point x="-11" y="-345"/>
      <point x="60" y="-288" type="curve"/>
      <point x="163" y="-204"/>
      <point x="263" y="-116"/>
    </contour>
  </outline>
</glyph>
<glyph name="LtnCapGHook" format="2">
  <advance width="1073"/>
  <unicode hex="0193"/>
  <anchor x="525" y="-100" name="L"/>
  <anchor x="720" y="1320" name="U"/>
  <outline>
    <contour>
      <point x="1063" y="582" type="line"/>
      <point x="602" y="582" type="line"/>
      <point x="596" y="539" type="line"/>
      <point x="797" y="508"/>
      <point x="817" y="485"/>
      <point x="813" y="457" type="curve" smooth="yes"/>
      <point x="774" y="157" type="line"/>
      <point x="727" y="122"/>
      <point x="652" y="98"/>
      <point x="580" y="98" type="curve" smooth="yes"/>
      <point x="416" y="98"/>
      <point x="225" y="231"/>
      <point x="225" y="516" type="curve" smooth="yes"/>
      <point x="225" y="702"/>
      <point x="311" y="967"/>
      <point x="446" y="1075" type="curve" smooth="yes"/>
      <point x="518" y="1133"/>
      <point x="596" y="1171"/>
      <point x="647" y="1171" type="curve" smooth="yes"/>
      <point x="768" y="1171"/>
      <point x="850" y="1147"/>
      <point x="920" y="1063" type="curve"/>
      <point x="929" y="1061"/>
      <point x="939" y="1059"/>
      <point x="948" y="1057" type="curve"/>
      <point x="982" y="1085"/>
      <point x="1059" y="1162"/>
      <point x="1057" y="1184" type="curve"/>
      <point x="1083" y="1373"/>
      <point x="1129" y="1467"/>
      <point x="1205" y="1467" type="curve" smooth="yes"/>
      <point x="1238" y="1467"/>
      <point x="1286" y="1447"/>
      <point x="1323" y="1355" type="curve"/>
      <point x="1361" y="1373"/>
      <point x="1449" y="1441"/>
      <point x="1452" y="1463" type="curve" smooth="yes"/>
      <point x="1455" y="1488"/>
      <point x="1395" y="1590"/>
      <point x="1291" y="1590" type="curve" smooth="yes"/>
      <point x="1244" y="1590"/>
      <point x="1167" y="1558"/>
      <point x="1098" y="1498" type="curve" smooth="yes"/>
      <point x="1019" y="1431"/>
      <point x="972" y="1364"/>
      <point x="942" y="1258" type="curve"/>
      <point x="890" y="1279"/>
      <point x="836" y="1290"/>
      <point x="793" y="1290" type="curve" smooth="yes"/>
      <point x="635" y="1290"/>
      <point x="494" y="1231"/>
      <point x="381" y="1143" type="curve" smooth="yes"/>
      <point x="201" y="999"/>
      <point x="76" y="727"/>
      <point x="76" y="473" type="curve" smooth="yes"/>
      <point x="76" y="152"/>
      <point x="281" y="-31"/>
      <point x="502" y="-31" type="curve" smooth="yes"/>
      <point x="666" y="-31"/>
      <point x="817" y="66"/>
      <point x="909" y="160" type="curve"/>
      <point x="923" y="259"/>
      <point x="936" y="358"/>
      <point x="950" y="457" type="curve" smooth="yes"/>
      <point x="954" y="487"/>
      <point x="985" y="518"/>
      <point x="1057" y="539" type="curve"/>
    </contour>
  </outline>
</glyph>
<glyph name="LtnCapGamma" format="2">
  <advance width="1107"/>
  <unicode hex="0194"/>
  <anchor x="490" y="-100" name="L"/>
  <anchor x="685" y="1320" name="U"/>
  <outline>
    <contour>
      <point x="1199" y="1217" type="curve"/>
      <point x="1205" y="1260" type="line"/>
      <point x="900" y="1260" type="line"/>
      <point x="894" y="1217" type="line"/>
      <point x="982" y="1202"/>
      <point x="992" y="1193"/>
      <point x="939" y="1113" type="curve" smooth="yes"/>
      <point x="459" y="399" type="line" smooth="yes"/>
      <point x="389" y="295"/>
      <point x="359" y="243"/>
      <point x="350" y="176" type="curve" smooth="yes"/>
      <point x="333" y="46"/>
      <point x="409" y="-30"/>
      <point x="498" y="-30" type="curve" smooth="yes"/>
      <point x="641" y="-30"/>
      <point x="723" y="107"/>
      <point x="738" y="215" type="curve" smooth="yes"/>
      <point x="747" y="284"/>
      <point x="732" y="347"/>
      <point x="670" y="497" type="curve" smooth="yes"/>
      <point x="422" y="1115" type="line" smooth="yes"/>
      <point x="394" y="1187"/>
      <point x="400" y="1204"/>
      <point x="495" y="1217" type="curve"/>
      <point x="501" y="1260" type="line"/>
      <point x="149" y="1260" type="line"/>
      <point x="143" y="1217" type="line"/>
      <point x="214" y="1208"/>
      <point x="233" y="1187"/>
      <point x="260" y="1115" type="curve" smooth="yes"/>
      <point x="555" y="381" type="line" smooth="yes"/>
      <point x="601" y="263"/>
      <point x="613" y="211"/>
      <point x="607" y="168" type="curve" smooth="yes"/>
      <point x="599" y="107"/>
      <point x="561" y="77"/>
      <point x="524" y="77" type="curve" smooth="yes"/>
      <point x="483" y="77"/>
      <point x="449" y="107"/>
      <point x="462" y="199" type="curve" smooth="yes"/>
      <point x="468" y="244"/>
      <point x="517" y="328"/>
      <point x="609" y="448" type="curve" smooth="yes"/>
      <point x="1054" y="1113" type="line" smooth="yes"/>
      <point x="1110" y="1195"/>
      <point x="1118" y="1202"/>
    </contour>
  </outline>
</glyph>
<glyph name="LtnSmHv" format="2">
  <advance width="1438"/>
  <unicode hex="0195"/>
  <anchor x="695" y="-100" name="L"/>
  <anchor x="934" y="1640" name="U"/>
  <outline>
    <contour>
      <point x="879" y="760" type="line"/>
      <point x="879" y="889"/>
      <point x="846" y="936"/>
      <point x="762" y="936" type="curve" smooth="yes"/>
      <point x="643" y="936"/>
      <point x="494" y="870"/>
      <point x="338" y="678" type="curve"/>
      <point x="362" y="823"/>
      <point x="442" y="1343"/>
      <point x="442" y="1438" type="curve" smooth="yes"/>
      <point x="442" y="1499"/>
      <point x="420" y="1520"/>
      <point x="383" y="1520" type="curve" smooth="yes"/>
      <point x="348" y="1520"/>
      <point x="225" y="1475"/>
      <point x="113" y="1425" type="curve"/>
      <point x="125" y="1386" type="line"/>
      <point x="125" y="1386"/>
      <point x="215" y="1413"/>
      <point x="240" y="1413" type="curve" smooth="yes"/>
      <point x="262" y="1413"/>
      <point x="281" y="1407"/>
      <point x="281" y="1346" type="curve" smooth="yes"/>
      <point x="281" y="1176"/>
      <point x="135" y="276"/>
      <point x="86" y="-10" type="curve"/>
      <point x="119" y="-41" type="line"/>
      <point x="152" y="-23"/>
      <point x="227" y="6"/>
      <point x="262" y="25" type="curve"/>
      <point x="258" y="82"/>
      <point x="262" y="154"/>
      <point x="285" y="301" type="curve" smooth="yes"/>
      <point x="303" y="420"/>
      <point x="326" y="518"/>
      <point x="362" y="582" type="curve" smooth="yes"/>
      <point x="463" y="752"/>
      <point x="621" y="834"/>
      <point x="655" y="834" type="curve" smooth="yes"/>
      <point x="713" y="834"/>
      <point x="725" y="801"/>
      <point x="725" y="700" type="curve" smooth="yes"/>
    </contour>
    <contour>
      <point x="1381" y="588" type="curve"/>
      <point x="1411" y="825"/>
      <point x="1336" y="907"/>
      <point x="1225" y="934" type="curve"/>
      <point x="1184" y="922"/>
      <point x="1084" y="891"/>
      <point x="1043" y="872" type="curve"/>
      <point x="1053" y="831" type="line"/>
      <point x="1237" y="831"/>
      <point x="1264" y="694"/>
      <point x="1239" y="535" type="curve" smooth="yes"/>
      <point x="1215" y="365"/>
      <point x="1063" y="80"/>
      <point x="905" y="80" type="curve" smooth="yes"/>
      <point x="862" y="80"/>
      <point x="817" y="135"/>
      <point x="817" y="262" type="curve" smooth="yes"/>
      <point x="817" y="379"/>
      <point x="879" y="643"/>
      <point x="879" y="760" type="curve" smooth="yes"/>
      <point x="879" y="893"/>
      <point x="725" y="724"/>
      <point x="725" y="700" type="curve" smooth="yes"/>
      <point x="725" y="602"/>
      <point x="664" y="324"/>
      <point x="664" y="205" type="curve" smooth="yes"/>
      <point x="664" y="43"/>
      <point x="766" y="-41"/>
      <point x="832" y="-41" type="curve" smooth="yes"/>
      <point x="1082" y="-41"/>
      <point x="1344" y="313"/>
    </contour>
  </outline>
</glyph>
<glyph name="LtnCapIota" format="2">
  <advance width="642"/>
  <unicode hex="0196"/>
  <anchor x="270" y="-100" name="L"/>
  <anchor x="464" y="1320" name="U"/>
  <outline>
    <contour>
      <point x="599" y="245" type="line"/>
      <point x="571" y="288" type="line"/>
      <point x="468" y="168"/>
      <point x="423" y="149"/>
      <point x="387" y="149" type="curve" smooth="yes"/>
      <point x="334" y="149"/>
      <point x="325" y="174"/>
      <point x="358" y="415" type="curve" smooth="yes"/>
      <point x="503" y="1290" type="line"/>
      <point x="470" y="1290" type="line"/>
      <point x="386" y="1246"/>
      <point x="272" y="1225"/>
      <point x="168" y="1203" type="curve"/>
      <point x="162" y="1160" type="line"/>
      <point x="333" y="1143"/>
      <point x="322" y="1118"/>
      <point x="297" y="935" type="curve" smooth="yes"/>
      <point x="189" y="281" type="line" smooth="yes"/>
      <point x="149" y="39"/>
      <point x="206" y="-30"/>
      <point x="272" y="-30" type="curve" smooth="yes"/>
      <point x="344" y="-30"/>
      <point x="424" y="4"/>
      <point x="570" y="205" type="curve" smooth="yes"/>
    </contour>
  </outline>
</glyph>
<glyph name="LtnCapIStrk" format="2">
  <advance width="573"/>
  <unicode hex="0197"/>
  <anchor x="212" y="-100" name="L"/>
  <anchor x="407" y="1320" name="U"/>
  <outline>
    <contour>
      <point x="604" y="1260" type="line"/>
      <point x="195" y="1260" type="line"/>
      <point x="188" y="1217" type="line"/>
      <point x="272" y="1198"/>
      <point x="313" y="1171"/>
      <point x="311" y="1155" type="curve" smooth="yes"/>
      <point x="168" y="104" type="line"/>
      <point x="164" y="86"/>
      <point x="111" y="61"/>
      <point x="27" y="43" type="curve"/>
      <point x="20" y="0" type="line"/>
      <point x="430" y="0" type="line"/>
      <point x="436" y="43" type="line"/>
      <point x="350" y="61"/>
      <point x="309" y="88"/>
      <point x="311" y="104" type="curve" smooth="yes"/>
      <point x="457" y="1155" type="line" smooth="yes"/>
      <point x="459" y="1174"/>
      <point x="514" y="1198"/>
      <point x="598" y="1217" type="curve"/>
    </contour>
    <contour>
      <point x="552" y="682" type="line"/>
      <point x="533" y="705" type="line"/>
      <point x="110" y="705" type="line"/>
      <point x="100" y="684"/>
      <point x="90" y="659"/>
      <point x="82" y="639" type="curve"/>
      <point x="98" y="614" type="line"/>
      <point x="523" y="614" type="line"/>
    </contour>
  </outline>
</glyph>
<glyph name="LtnCapKHook" format="2">
  <advance width="1145"/>
  <unicode hex="0198"/>
  <anchor x="519" y="-100" name="L"/>
  <anchor x="714" y="1320" name="U"/>
  <outline>
    <contour>
      <point x="584" y="1260" type="line"/>
      <point x="174" y="1260" type="line"/>
      <point x="168" y="1217" type="line"/>
      <point x="254" y="1198"/>
      <point x="295" y="1171"/>
      <point x="293" y="1155" type="curve" smooth="yes"/>
      <point x="147" y="104" type="line" smooth="yes"/>
      <point x="145" y="86"/>
      <point x="90" y="61"/>
      <point x="6" y="43" type="curve"/>
      <point x="0" y="0" type="line"/>
      <point x="410" y="0" type="line"/>
      <point x="416" y="43" type="line"/>
      <point x="332" y="61"/>
      <point x="289" y="88"/>
      <point x="293" y="104" type="curve"/>
      <point x="436" y="1155" type="line"/>
      <point x="440" y="1174"/>
      <point x="494" y="1198"/>
      <point x="578" y="1217" type="curve"/>
    </contour>
    <contour>
      <point x="1077" y="111" type="curve"/>
      <point x="1059" y="147" type="line"/>
      <point x="934" y="96"/>
      <point x="893" y="100"/>
      <point x="856" y="156" type="curve" smooth="yes"/>
      <point x="507" y="675" type="line"/>
      <point x="820" y="1036" type="line" smooth="yes"/>
      <point x="877" y="1102"/>
      <point x="931" y="1151"/>
      <point x="979" y="1151" type="curve" smooth="yes"/>
      <point x="1029" y="1151"/>
      <point x="1060" y="1108"/>
      <point x="1051" y="1027" type="curve" smooth="yes"/>
      <point x="1047" y="989"/>
      <point x="1031" y="942"/>
      <point x="1002" y="885" type="curve"/>
      <point x="1014" y="856" type="line"/>
      <point x="1072" y="873"/>
      <point x="1177" y="921"/>
      <point x="1186" y="943" type="curve"/>
      <point x="1199" y="981"/>
      <point x="1207" y="1015"/>
      <point x="1211" y="1046" type="curve" smooth="yes"/>
      <point x="1232" y="1205"/>
      <point x="1144" y="1270"/>
      <point x="1032" y="1270" type="curve" smooth="yes"/>
      <point x="938" y="1270"/>
      <point x="848" y="1213"/>
      <point x="754" y="1103" type="curve" smooth="yes"/>
      <point x="362" y="643" type="line"/>
      <point x="731" y="51" type="line" smooth="yes"/>
      <point x="764" y="-2"/>
      <point x="786" y="-14"/>
      <point x="827" y="-14" type="curve" smooth="yes"/>
      <point x="879" y="-14"/>
      <point x="975" y="33"/>
    </contour>
  </outline>
</glyph>
<glyph name="LtnSmKHook" format="2">
  <advance width="899"/>
  <unicode hex="0199"/>
  <anchor x="444" y="-100" name="L"/>
  <anchor x="685" y="1640" name="U"/>
  <outline>
    <contour>
      <point x="955" y="1403" type="curve"/>
      <point x="914" y="1417"/>
      <point x="832" y="1520"/>
      <point x="716" y="1520" type="curve" smooth="yes"/>
      <point x="632" y="1520"/>
      <point x="550" y="1479"/>
      <point x="480" y="1427" type="curve" smooth="yes"/>
      <point x="317" y="1305"/>
      <point x="263" y="1132"/>
      <point x="233" y="926" type="curve" smooth="yes"/>
      <point x="203" y="715"/>
      <point x="106" y="145"/>
      <point x="86" y="-10" type="curve"/>
      <point x="121" y="-41" type="line"/>
      <point x="154" y="-23"/>
      <point x="233" y="8"/>
      <point x="270" y="27" type="curve"/>
      <point x="253" y="204"/>
      <point x="333" y="620"/>
      <point x="384" y="952" type="curve" smooth="yes"/>
      <point x="432" y="1263"/>
      <point x="507" y="1417"/>
      <point x="638" y="1417" type="curve" smooth="yes"/>
      <point x="711" y="1417"/>
      <point x="752" y="1305"/>
      <point x="787" y="1305" type="curve" smooth="yes"/>
      <point x="822" y="1305"/>
      <point x="898" y="1362"/>
    </contour>
    <contour>
      <point x="889" y="68" type="curve"/>
      <point x="872" y="102" type="line"/>
      <point x="821" y="74"/>
      <point x="788" y="76"/>
      <point x="758" y="76" type="curve" smooth="yes"/>
      <point x="668" y="76"/>
      <point x="537" y="496"/>
      <point x="418" y="565" type="curve"/>
      <point x="309" y="504" type="line"/>
      <point x="418" y="426"/>
      <point x="541" y="-39"/>
      <point x="686" y="-39" type="curve" smooth="yes"/>
      <point x="737" y="-39"/>
      <point x="801" y="-6"/>
    </contour>
    <contour>
      <point x="899" y="868" type="curve"/>
      <point x="899" y="913"/>
      <point x="887" y="930"/>
      <point x="823" y="930" type="curve" smooth="yes"/>
      <point x="739" y="930"/>
      <point x="670" y="907"/>
      <point x="592" y="897" type="curve"/>
      <point x="596" y="858" type="line"/>
      <point x="774" y="864"/>
      <point x="711" y="809"/>
      <point x="528" y="670" type="curve" smooth="yes"/>
      <point x="309" y="504" type="line"/>
      <point x="373" y="469" type="line"/>
      <point x="580" y="594" type="line"/>
      <point x="780" y="717"/>
      <point x="899" y="829"/>
    </contour>
  </outline>
</glyph>
<glyph name="LtnSmNLngRtLeg" format="2">
  <advance width="982"/>
  <unicode hex="019E"/>
  <anchor x="358" y="-600" name="L"/>
  <anchor x="577" y="1000" name="U"/>
  <outline>
    <contour>
      <point x="902" y="-387" type="curve"/>
      <point x="887" y="-350" type="line"/>
      <point x="832" y="-373"/>
      <point x="793" y="-383"/>
      <point x="762" y="-383" type="curve" smooth="yes"/>
      <point x="738" y="-383"/>
      <point x="717" y="-372"/>
      <point x="717" y="-277" type="curve" smooth="yes"/>
      <point x="717" y="-76"/>
      <point x="881" y="583"/>
      <point x="881" y="762" type="curve" smooth="yes"/>
      <point x="881" y="891"/>
      <point x="836" y="936"/>
      <point x="752" y="936" type="curve" smooth="yes"/>
      <point x="633" y="936"/>
      <point x="483" y="860"/>
      <point x="338" y="678" type="curve"/>
      <point x="342" y="711"/>
      <point x="348" y="795"/>
      <point x="348" y="823" type="curve" smooth="yes"/>
      <point x="348" y="918"/>
      <point x="346" y="936"/>
      <point x="309" y="936" type="curve" smooth="yes"/>
      <point x="276" y="936"/>
      <point x="154" y="891"/>
      <point x="41" y="842" type="curve"/>
      <point x="55" y="803" type="line"/>
      <point x="55" y="803"/>
      <point x="139" y="829"/>
      <point x="162" y="829" type="curve" smooth="yes"/>
      <point x="186" y="829"/>
      <point x="199" y="823"/>
      <point x="199" y="762" type="curve" smooth="yes"/>
      <point x="199" y="668"/>
      <point x="141" y="256"/>
      <point x="86" y="-10" type="curve"/>
      <point x="119" y="-41" type="line"/>
      <point x="152" y="-23"/>
      <point x="227" y="6"/>
      <point x="262" y="25" type="curve"/>
      <point x="260" y="104"/>
      <point x="264" y="182"/>
      <point x="285" y="301" type="curve" smooth="yes"/>
      <point x="307" y="430"/>
      <point x="328" y="516"/>
      <point x="365" y="580" type="curve" smooth="yes"/>
      <point x="465" y="750"/>
      <point x="616" y="836"/>
      <point x="651" y="836" type="curve" smooth="yes"/>
      <point x="709" y="836"/>
      <point x="727" y="801"/>
      <point x="727" y="700" type="curve" smooth="yes"/>
      <point x="727" y="560"/>
      <point x="563" y="-175"/>
      <point x="563" y="-336" type="curve" smooth="yes"/>
      <point x="563" y="-458"/>
      <point x="599" y="-500"/>
      <point x="646" y="-500" type="curve" smooth="yes"/>
      <point x="697" y="-500"/>
      <point x="781" y="-459"/>
    </contour>
  </outline>
</glyph>
<glyph name="LtnCapOi" format="2">
  <advance width="1620"/>
  <unicode hex="01A2"/>
  <anchor x="663" y="-100" name="L"/>
  <anchor x="971" y="1320" name="U"/>
  <outline>
    <contour>
      <point x="1518" y="-350" type="line"/>
      <point x="1524" y="-307" type="line"/>
      <point x="1440" y="-289"/>
      <point x="1400" y="-262"/>
      <point x="1402" y="-246" type="curve"/>
      <point x="1545" y="806"/>
      <point x="1545" y="808"/>
      <point x="1568" y="981" type="curve"/>
      <point x="1602" y="1231"/>
      <point x="1477" y="1290"/>
      <point x="1373" y="1290" type="curve" smooth="yes"/>
      <point x="1270" y="1290"/>
      <point x="1152" y="1237"/>
      <point x="1015" y="1101" type="curve"/>
      <point x="954" y="1216"/>
      <point x="852" y="1290"/>
      <point x="705" y="1290" type="curve" smooth="yes"/>
      <point x="516" y="1290"/>
      <point x="369" y="1167"/>
      <point x="258" y="1018" type="curve"/>
      <point x="152" y="872"/>
      <point x="90" y="653"/>
      <point x="90" y="485" type="curve" smooth="yes"/>
      <point x="90" y="205"/>
      <point x="215" y="-31"/>
      <point x="471" y="-31" type="curve" smooth="yes"/>
      <point x="649" y="-31"/>
      <point x="788" y="82"/>
      <point x="901" y="225" type="curve" smooth="yes"/>
      <point x="1022" y="377"/>
      <point x="1085" y="586"/>
      <point x="1085" y="774" type="curve" smooth="yes"/>
      <point x="1085" y="859"/>
      <point x="1074" y="941"/>
      <point x="1051" y="1012" type="curve"/>
      <point x="1166" y="1133"/>
      <point x="1233" y="1151"/>
      <point x="1294" y="1151" type="curve" smooth="yes"/>
      <point x="1384" y="1151"/>
      <point x="1440" y="1090"/>
      <point x="1410" y="872" type="curve" smooth="yes"/>
      <point x="1258" y="-246" type="line" smooth="yes"/>
      <point x="1256" y="-264"/>
      <point x="1202" y="-289"/>
      <point x="1119" y="-307" type="curve"/>
      <point x="1113" y="-350" type="line"/>
    </contour>
    <contour>
      <point x="936" y="756" type="curve" smooth="yes"/>
      <point x="936" y="502"/>
      <point x="825" y="100"/>
      <point x="516" y="100" type="curve" smooth="yes"/>
      <point x="352" y="100"/>
      <point x="242" y="283"/>
      <point x="242" y="532" type="curve" smooth="yes"/>
      <point x="242" y="784"/>
      <point x="358" y="1165"/>
      <point x="662" y="1165" type="curve" smooth="yes"/>
      <point x="838" y="1165"/>
      <point x="936" y="981"/>
    </contour>
  </outline>
</glyph>
<glyph name="LtnCapPHook" format="2">
  <advance width="1171"/>
  <unicode hex="01A4"/>
  <anchor x="598" y="-100" name="L"/>
  <anchor x="793" y="1320" name="U"/>
  <outline>
    <contour>
      <point x="123" y="1003" type="curve"/>
      <point x="113" y="930"/>
      <point x="138" y="877"/>
      <point x="179" y="856" type="curve"/>
      <point x="230" y="867"/>
      <point x="314" y="914"/>
      <point x="323" y="930" type="curve"/>
      <point x="288" y="949"/>
      <point x="269" y="988"/>
      <point x="275" y="1036" type="curve" smooth="yes"/>
      <point x="290" y="1145"/>
      <point x="406" y="1202"/>
      <point x="639" y="1206" type="curve" smooth="yes"/>
      <point x="794" y="1209"/>
      <point x="836" y="1196"/>
      <point x="904" y="1164" type="curve" smooth="yes"/>
      <point x="997" y="1120"/>
      <point x="1057" y="996"/>
      <point x="1038" y="856" type="curve" smooth="yes"/>
      <point x="1012" y="668"/>
      <point x="858" y="611"/>
      <point x="738" y="611" type="curve" smooth="yes"/>
      <point x="695" y="611"/>
      <point x="649" y="623"/>
      <point x="602" y="648" type="curve"/>
      <point x="613" y="572" type="line"/>
      <point x="650" y="552"/>
      <point x="700" y="535"/>
      <point x="755" y="535" type="curve" smooth="yes"/>
      <point x="905" y="535"/>
      <point x="1145" y="623"/>
      <point x="1182" y="890" type="curve" smooth="yes"/>
      <point x="1205" y="1066"/>
      <point x="1122" y="1201"/>
      <point x="985" y="1253" type="curve" smooth="yes"/>
      <point x="927" y="1275"/>
      <point x="839" y="1290"/>
      <point x="701" y="1290" type="curve" smooth="yes"/>
      <point x="336" y="1290"/>
      <point x="146" y="1177"/>
    </contour>
    <contour>
      <point x="661" y="1260" type="line"/>
      <point x="515" y="1260" type="line"/>
      <point x="357" y="104" type="line" smooth="yes"/>
      <point x="355" y="86"/>
      <point x="300" y="61"/>
      <point x="216" y="43" type="curve"/>
      <point x="210" y="0" type="line"/>
      <point x="648" y="0" type="line"/>
      <point x="654" y="43" type="line"/>
      <point x="529" y="66"/>
      <point x="499" y="88"/>
      <point x="503" y="104" type="curve"/>
    </contour>
  </outline>
</glyph>
<glyph name="LtnCapTnTwo" format="2">
  <advance width="879"/>
  <unicode hex="01A7"/>
  <anchor x="373" y="-100" name="L"/>
  <anchor x="568" y="1320" name="U"/>
  <outline>
    <contour>
      <point x="88" y="347" type="curve"/>
      <point x="64" y="169"/>
      <point x="161" y="-30"/>
      <point x="396" y="-30" type="curve" smooth="yes"/>
      <point x="519" y="-30"/>
      <point x="640" y="18"/>
      <point x="733" y="78" type="curve" smooth="yes"/>
      <point x="751" y="88"/>
      <point x="776" y="262"/>
      <point x="768" y="334" type="curve"/>
      <point x="731" y="329" type="line"/>
      <point x="654" y="172"/>
      <point x="548" y="90"/>
      <point x="426" y="90" type="curve" smooth="yes"/>
      <point x="309" y="90"/>
      <point x="188" y="197"/>
      <point x="206" y="334" type="curve" smooth="yes"/>
      <point x="251" y="659"/>
      <point x="803" y="560"/>
      <point x="861" y="987" type="curve" smooth="yes"/>
      <point x="878" y="1112"/>
      <point x="840" y="1290"/>
      <point x="577" y="1290" type="curve" smooth="yes"/>
      <point x="468" y="1290"/>
      <point x="310" y="1231"/>
      <point x="258" y="1178" type="curve"/>
      <point x="239" y="1162"/>
      <point x="274" y="1054"/>
      <point x="299" y="1025" type="curve"/>
      <point x="332" y="1031" type="line"/>
      <point x="374" y="1119"/>
      <point x="456" y="1186"/>
      <point x="570" y="1186" type="curve" smooth="yes"/>
      <point x="703" y="1186"/>
      <point x="758" y="1080"/>
      <point x="748" y="1004" type="curve" smooth="yes"/>
      <point x="714" y="752"/>
      <point x="150" y="802"/>
    </contour>
  </outline>
</glyph>
<glyph name="LtnCapTHook" format="2">
  <advance width="1143"/>
  <unicode hex="01AC"/>
  <anchor x="525" y="-100" name="L"/>
  <anchor x="720" y="1320" name="U"/>
  <outline>
    <contour>
      <point x="123" y="1003" type="curve"/>
      <point x="113" y="930"/>
      <point x="138" y="877"/>
      <point x="179" y="856" type="curve"/>
      <point x="230" y="867"/>
      <point x="314" y="914"/>
      <point x="323" y="930" type="curve"/>
      <point x="288" y="949"/>
      <point x="269" y="988"/>
      <point x="275" y="1036" type="curve" smooth="yes"/>
      <point x="290" y="1145"/>
      <point x="374" y="1170"/>
      <point x="472" y="1170" type="curve" smooth="yes"/>
      <point x="624" y="1170" type="line"/>
      <point x="481" y="115" type="line" smooth="yes"/>
      <point x="479" y="96"/>
      <point x="438" y="68"/>
      <point x="323" y="43" type="curve"/>
      <point x="318" y="0" type="line"/>
      <point x="757" y="0" type="line"/>
      <point x="762" y="43" type="line"/>
      <point x="656" y="68"/>
      <point x="623" y="98"/>
      <point x="625" y="115" type="curve" smooth="yes"/>
      <point x="768" y="1170" type="line"/>
      <point x="1033" y="1170" type="line" smooth="yes"/>
      <point x="1087" y="1170"/>
      <point x="1088" y="1113"/>
      <point x="1094" y="1000" type="curve"/>
      <point x="1135" y="1000" type="line"/>
      <point x="1161" y="1084"/>
      <point x="1183" y="1167"/>
      <point x="1194" y="1235" type="curve"/>
      <point x="1171" y="1260" type="line"/>
      <point x="454" y="1260" type="line" smooth="yes"/>
      <point x="296" y="1260"/>
      <point x="146" y="1177"/>
    </contour>
  </outline>
</glyph>
<glyph name="LtnSmTHook" format="2">
  <advance width="629"/>
  <unicode hex="01AD"/>
  <anchor x="304" y="-100" name="L"/>
  <anchor x="588" y="1640" name="U"/>
  <outline>
    <contour>
      <point x="954" y="1403" type="curve"/>
      <point x="913" y="1417"/>
      <point x="831" y="1520"/>
      <point x="715" y="1520" type="curve" smooth="yes"/>
      <point x="631" y="1520"/>
      <point x="549" y="1479"/>
      <point x="479" y="1427" type="curve" smooth="yes"/>
      <point x="315" y="1305"/>
      <point x="268" y="1130"/>
      <point x="235" y="923" type="curve" smooth="yes"/>
      <point x="141" y="332" type="line"/>
      <point x="131" y="258"/>
      <point x="127" y="211"/>
      <point x="127" y="160" type="curve" smooth="yes"/>
      <point x="127" y="43"/>
      <point x="186" y="-41"/>
      <point x="252" y="-41" type="curve" smooth="yes"/>
      <point x="311" y="-41"/>
      <point x="449" y="16"/>
      <point x="580" y="117" type="curve"/>
      <point x="563" y="154" type="line"/>
      <point x="463" y="109"/>
      <point x="399" y="90"/>
      <point x="352" y="90" type="curve" smooth="yes"/>
      <point x="315" y="90"/>
      <point x="279" y="129"/>
      <point x="279" y="211" type="curve" smooth="yes"/>
      <point x="279" y="238"/>
      <point x="281" y="305"/>
      <point x="291" y="356" type="curve" smooth="yes"/>
      <point x="385" y="964" type="line" smooth="yes"/>
      <point x="432" y="1268"/>
      <point x="508" y="1417"/>
      <point x="637" y="1417" type="curve" smooth="yes"/>
      <point x="710" y="1417"/>
      <point x="751" y="1305"/>
      <point x="786" y="1305" type="curve" smooth="yes"/>
      <point x="821" y="1305"/>
      <point x="897" y="1362"/>
    </contour>
    <contour>
      <point x="645" y="877" type="curve"/>
      <point x="625" y="905" type="line"/>
      <point x="160" y="905" type="line"/>
      <point x="59" y="846" type="line"/>
      <point x="74" y="815" type="line"/>
      <point x="365" y="815" type="line" smooth="yes"/>
      <point x="465" y="815"/>
      <point x="502" y="807"/>
      <point x="518" y="770" type="curve"/>
      <point x="543" y="784"/>
      <point x="618" y="840"/>
    </contour>
  </outline>
</glyph>
<glyph name="LtnCapTRetrHook" format="2">
  <advance width="1068"/>
  <unicode hex="01AE"/>
  <anchor x="379" y="-600" name="L"/>
  <anchor x="642" y="1320" name="U"/>
  <outline>
    <contour>
      <point x="558" y="-380" type="curve" smooth="yes"/>
      <point x="733" y="-380"/>
      <point x="915" y="-216"/>
      <point x="922" y="-115" type="curve"/>
      <point x="910" y="-76" type="line"/>
      <point x="874" y="-70"/>
      <point x="746" y="-132"/>
      <point x="752" y="-144" type="curve" smooth="yes"/>
      <point x="775" y="-201"/>
      <point x="707" y="-285"/>
      <point x="637" y="-285" type="curve" smooth="yes"/>
      <point x="551" y="-285"/>
      <point x="506" y="-209"/>
      <point x="536" y="14" type="curve" smooth="yes"/>
      <point x="693" y="1170" type="line"/>
      <point x="958" y="1170" type="line" smooth="yes"/>
      <point x="1012" y="1170"/>
      <point x="1013" y="1113"/>
      <point x="1019" y="1000" type="curve"/>
      <point x="1060" y="1000" type="line"/>
      <point x="1086" y="1084"/>
      <point x="1108" y="1167"/>
      <point x="1119" y="1235" type="curve"/>
      <point x="1096" y="1260" type="line"/>
      <point x="177" y="1260" type="line"/>
      <point x="154" y="1190"/>
      <point x="129" y="1092"/>
      <point x="113" y="1014" type="curve"/>
      <point x="150" y="995" type="line"/>
      <point x="225" y="1151"/>
      <point x="243" y="1170"/>
      <point x="280" y="1170" type="curve" smooth="yes"/>
      <point x="549" y="1170" type="line"/>
      <point x="384" y="-47" type="line" smooth="yes"/>
      <point x="354" y="-271"/>
      <point x="412" y="-380"/>
    </contour>
  </outline>
</glyph>
<glyph name="LtnCapUpsilon" format="2">
  <advance width="1172"/>
  <unicode hex="01B1"/>
  <anchor x="521" y="-100" name="L"/>
  <anchor x="715" y="1320" name="U"/>
  <outline>
    <contour>
      <point x="1216" y="1217" type="curve"/>
      <point x="1222" y="1260" type="line"/>
      <point x="833" y="1260" type="line"/>
      <point x="800" y="1201" type="line"/>
      <point x="940" y="1099"/>
      <point x="991" y="865"/>
      <point x="954" y="595" type="curve" smooth="yes"/>
      <point x="916" y="313"/>
      <point x="755" y="88"/>
      <point x="557" y="88" type="curve" smooth="yes"/>
      <point x="362" y="88"/>
      <point x="234" y="326"/>
      <point x="273" y="615" type="curve" smooth="yes"/>
      <point x="309" y="883"/>
      <point x="403" y="1075"/>
      <point x="599" y="1201" type="curve"/>
      <point x="586" y="1260" type="line"/>
      <point x="194" y="1260" type="line"/>
      <point x="188" y="1217" type="line"/>
      <point x="188" y="1217"/>
      <point x="423" y="1174"/>
      <point x="365" y="1111" type="curve" smooth="yes"/>
      <point x="254" y="991"/>
      <point x="158" y="798"/>
      <point x="128" y="576" type="curve" smooth="yes"/>
      <point x="81" y="234"/>
      <point x="239" y="-30"/>
      <point x="517" y="-30" type="curve" smooth="yes"/>
      <point x="814" y="-30"/>
      <point x="1055" y="331"/>
      <point x="1095" y="623" type="curve" smooth="yes"/>
      <point x="1124" y="835"/>
      <point x="1080" y="1002"/>
      <point x="1007" y="1111" type="curve" smooth="yes"/>
      <point x="967" y="1172"/>
      <point x="1216" y="1217"/>
    </contour>
  </outline>
</glyph>
<glyph name="LtnCapYHook.RtHook" format="2">
  <advance width="1251"/>
  <unicode hex="01B3"/>
  <anchor x="492" y="-100" name="L"/>
  <anchor x="708" y="1320" name="U"/>
  <outline>
    <contour>
      <point x="725" y="0" type="line"/>
      <point x="730" y="43" type="line"/>
      <point x="621" y="68"/>
      <point x="589" y="98"/>
      <point x="591" y="115" type="curve" smooth="yes"/>
      <point x="650" y="541" type="line"/>
      <point x="999" y="1095" type="line" smooth="yes"/>
      <point x="1035" y="1151"/>
      <point x="1080" y="1201"/>
      <point x="1126" y="1201" type="curve" smooth="yes"/>
      <point x="1185" y="1201"/>
      <point x="1207" y="1143"/>
      <point x="1198" y="1077" type="curve" smooth="yes"/>
      <point x="1191" y="1029"/>
      <point x="1174" y="1001"/>
      <point x="1152" y="965" type="curve"/>
      <point x="1164" y="936" type="line"/>
      <point x="1201" y="947"/>
      <point x="1320" y="989"/>
      <point x="1337" y="1023" type="curve" smooth="yes"/>
      <point x="1345" y="1039"/>
      <point x="1355" y="1075"/>
      <point x="1358" y="1101" type="curve" smooth="yes"/>
      <point x="1374" y="1218"/>
      <point x="1302" y="1320"/>
      <point x="1189" y="1320" type="curve" smooth="yes"/>
      <point x="1046" y="1320"/>
      <point x="966" y="1222"/>
      <point x="886" y="1100" type="curve" smooth="yes"/>
      <point x="614" y="680" type="line"/>
      <point x="556" y="872"/>
      <point x="467" y="1102"/>
      <point x="395" y="1231" type="curve" smooth="yes"/>
      <point x="380" y="1257"/>
      <point x="356" y="1270"/>
      <point x="330" y="1270" type="curve" smooth="yes"/>
      <point x="281" y="1270"/>
      <point x="202" y="1260"/>
      <point x="131" y="1249" type="curve"/>
      <point x="129" y="1206" type="line"/>
      <point x="228" y="1206"/>
      <point x="250" y="1180"/>
      <point x="268" y="1151" type="curve"/>
      <point x="335" y="1023"/>
      <point x="446" y="753"/>
      <point x="505" y="537" type="curve"/>
      <point x="447" y="115" type="line" smooth="yes"/>
      <point x="445" y="96"/>
      <point x="402" y="68"/>
      <point x="289" y="43" type="curve"/>
      <point x="284" y="0" type="line"/>
    </contour>
  </outline>
</glyph>
<glyph name="LtnSmEzhTail" format="2">
  <advance width="798"/>
  <unicode hex="01BA"/>
  <anchor x="234" y="-600" name="L"/>
  <anchor x="454" y="1000" name="U"/>
  <outline>
    <contour>
      <point x="757" y="880" type="line"/>
      <point x="736" y="915" type="line"/>
      <point x="305" y="915" type="line" smooth="yes"/>
      <point x="229" y="915"/>
      <point x="191" y="918"/>
      <point x="152" y="939" type="curve"/>
      <point x="87" y="678" type="line"/>
      <point x="123" y="668" type="line"/>
      <point x="171" y="789"/>
      <point x="198" y="795"/>
      <point x="255" y="795" type="curve" smooth="yes"/>
      <point x="544" y="795" type="line"/>
      <point x="109" y="325" type="line"/>
      <point x="134" y="282" type="line"/>
      <point x="358" y="445" type="line"/>
    </contour>
    <contour>
      <point x="663" y="254" type="curve" smooth="yes"/>
      <point x="682" y="404"/>
      <point x="560" y="472"/>
      <point x="460" y="472" type="curve"/>
      <point x="341" y="472"/>
      <point x="205" y="393"/>
      <point x="109" y="325" type="curve"/>
      <point x="113" y="314"/>
      <point x="128" y="289"/>
      <point x="134" y="282" type="curve"/>
      <point x="204" y="331"/>
      <point x="272" y="373"/>
      <point x="355" y="373" type="curve" smooth="yes"/>
      <point x="488" y="373"/>
      <point x="523" y="283"/>
      <point x="515" y="214" type="curve" smooth="yes"/>
      <point x="505" y="143"/>
      <point x="473" y="109"/>
      <point x="285" y="54" type="curve" smooth="yes"/>
      <point x="16" y="-24"/>
      <point x="-47" y="-106"/>
      <point x="-62" y="-219" type="curve" smooth="yes"/>
      <point x="-82" y="-371"/>
      <point x="31" y="-504"/>
      <point x="222" y="-500" type="curve" smooth="yes"/>
      <point x="422" y="-496"/>
      <point x="636" y="-299"/>
      <point x="641" y="-177" type="curve"/>
      <point x="621" y="-147" type="line"/>
      <point x="573" y="-155"/>
      <point x="532" y="-169"/>
      <point x="477" y="-194" type="curve"/>
      <point x="496" y="-280"/>
      <point x="428" y="-397"/>
      <point x="266" y="-397" type="curve" smooth="yes"/>
      <point x="160" y="-397"/>
      <point x="63" y="-315"/>
      <point x="78" y="-209" type="curve" smooth="yes"/>
      <point x="87" y="-140"/>
      <point x="113" y="-75"/>
      <point x="345" y="-11" type="curve" smooth="yes"/>
      <point x="555" y="47"/>
      <point x="644" y="124"/>
    </contour>
  </outline>
</glyph>
<glyph name="LtnTwoStrk" format="2">
  <advance width="805"/>
  <unicode hex="01BB"/>
  <anchor x="302" y="-100" name="L"/>
  <anchor x="497" y="1320" name="U"/>
  <outline>
    <contour>
      <point x="686" y="281" type="line"/>
      <point x="643" y="293" type="line"/>
      <point x="643" y="293"/>
      <point x="609" y="119"/>
      <point x="530" y="119" type="curve" smooth="yes"/>
      <point x="151" y="119" type="line"/>
      <point x="577" y="590"/>
      <point x="733" y="759"/>
      <point x="756" y="933" type="curve" smooth="yes"/>
      <point x="782" y="1124"/>
      <point x="659" y="1210"/>
      <point x="516" y="1210" type="curve" smooth="yes"/>
      <point x="325" y="1210"/>
      <point x="140" y="1032"/>
      <point x="123" y="897" type="curve"/>
      <point x="142" y="867" type="line"/>
      <point x="196" y="873"/>
      <point x="240" y="891"/>
      <point x="282" y="915" type="curve"/>
      <point x="279" y="1001"/>
      <point x="347" y="1118"/>
      <point x="453" y="1118" type="curve" smooth="yes"/>
      <point x="581" y="1118"/>
      <point x="627" y="1014"/>
      <point x="612" y="906" type="curve" smooth="yes"/>
      <point x="591" y="757"/>
      <point x="488" y="613"/>
      <point x="-4" y="73" type="curve"/>
      <point x="12" y="0" type="line"/>
      <point x="635" y="0" type="line"/>
    </contour>
    <contour>
      <point x="720" y="538" type="line"/>
      <point x="701" y="560" type="line"/>
      <point x="174" y="560" type="line"/>
      <point x="162" y="542"/>
      <point x="151" y="515"/>
      <point x="143" y="495" type="curve"/>
      <point x="162" y="470" type="line"/>
      <point x="689" y="470" type="line"/>
    </contour>
  </outline>
</glyph>
<glyph name="LtnSmTnFive" format="2">
  <advance width="807"/>
  <unicode hex="01BD"/>
  <anchor x="299" y="-100" name="L"/>
  <anchor x="450" y="1000" name="U"/>
  <outline>
    <contour>
      <point x="694" y="267" type="curve" smooth="yes"/>
      <point x="720" y="449"/>
      <point x="588" y="549"/>
      <point x="440" y="549" type="curve" smooth="yes"/>
      <point x="386" y="549"/>
      <point x="349" y="545"/>
      <point x="295" y="528" type="curve"/>
      <point x="342" y="813" type="line"/>
      <point x="610" y="813" type="line" smooth="yes"/>
      <point x="653" y="813"/>
      <point x="663" y="762"/>
      <point x="653" y="639" type="curve"/>
      <point x="692" y="639" type="line"/>
      <point x="717" y="694"/>
      <point x="758" y="834"/>
      <point x="768" y="884" type="curve"/>
      <point x="745" y="901" type="line"/>
      <point x="92" y="901" type="line"/>
      <point x="86" y="859" type="line"/>
      <point x="163" y="846"/>
      <point x="204" y="826"/>
      <point x="203" y="814" type="curve" smooth="yes"/>
      <point x="142" y="442" type="line"/>
      <point x="148" y="434"/>
      <point x="162" y="415"/>
      <point x="169" y="409" type="curve"/>
      <point x="245" y="448"/>
      <point x="311" y="463"/>
      <point x="376" y="463" type="curve" smooth="yes"/>
      <point x="499" y="463"/>
      <point x="568" y="373"/>
      <point x="548" y="230" type="curve" smooth="yes"/>
      <point x="535" y="134"/>
      <point x="484" y="48"/>
      <point x="367" y="48" type="curve" smooth="yes"/>
      <point x="276" y="48"/>
      <point x="198" y="135"/>
      <point x="169" y="215" type="curve"/>
      <point x="122" y="209"/>
      <point x="42" y="124"/>
      <point x="40" y="114" type="curve" smooth="yes"/>
      <point x="36" y="80"/>
      <point x="132" y="-39"/>
      <point x="322" y="-39" type="curve" smooth="yes"/>
      <point x="513" y="-39"/>
      <point x="671" y="95"/>
    </contour>
  </outline>
</glyph>
<glyph name="LtnWynn" format="2">
  <advance width="905"/>
  <unicode hex="01BF"/>
  <anchor x="284" y="-600" name="L"/>
  <anchor x="500" y="1000" name="U"/>
  <outline>
    <contour>
      <point x="829" y="639" type="curve" smooth="yes"/>
      <point x="858" y="847"/>
      <point x="778" y="931"/>
      <point x="653" y="931" type="curve" smooth="yes"/>
      <point x="568" y="931"/>
      <point x="433" y="859"/>
      <point x="294" y="702" type="curve"/>
      <point x="186" y="-130" type="line"/>
      <point x="624" y="127"/>
      <point x="793" y="372"/>
    </contour>
    <contour>
      <point x="679" y="563" type="curve" smooth="yes"/>
      <point x="653" y="366"/>
      <point x="532" y="173"/>
      <point x="200" y="-27" type="curve"/>
      <point x="283" y="588" type="line"/>
      <point x="411" y="756"/>
      <point x="516" y="807"/>
      <point x="577" y="807" type="curve" smooth="yes"/>
      <point x="656" y="807"/>
      <point x="700" y="713"/>
    </contour>
    <contour>
      <point x="348" y="870" type="curve"/>
      <point x="348" y="922"/>
      <point x="328" y="936"/>
      <point x="301" y="936" type="curve" smooth="yes"/>
      <point x="268" y="936"/>
      <point x="141" y="891"/>
      <point x="29" y="840" type="curve"/>
      <point x="43" y="803" type="line"/>
      <point x="43" y="803"/>
      <point x="119" y="827"/>
      <point x="143" y="827" type="curve" smooth="yes"/>
      <point x="166" y="827"/>
      <point x="190" y="821"/>
      <point x="190" y="760" type="curve" smooth="yes"/>
      <point x="190" y="590"/>
      <point x="14" y="-318"/>
      <point x="-6" y="-471" type="curve"/>
      <point x="26" y="-500" type="line"/>
      <point x="61" y="-484"/>
      <point x="137" y="-457"/>
      <point x="176" y="-447" type="curve"/>
      <point x="162" y="-410"/>
      <point x="170" y="-269"/>
      <point x="215" y="6" type="curve" smooth="yes"/>
      <point x="307" y="559"/>
      <point x="348" y="784"/>
    </contour>
  </outline>
</glyph>
<glyph name="LtnDentalClick" format="1">
  <advance width="461"/>
  <unicode hex="01C0"/>
  <outline>
    <contour>
      <point x="201" y="-439" type="curve"/>
      <point x="201" y="-203"/>
      <point x="412" y="1229"/>
      <point x="461" y="1498" type="curve"/>
      <point x="433" y="1520" type="line"/>
      <point x="397" y="1510"/>
      <point x="304" y="1481"/>
      <point x="268" y="1459" type="curve"/>
      <point x="294" y="1220"/>
      <point x="69" y="-217"/>
      <point x="19" y="-478" type="curve"/>
      <point x="47" y="-500" type="line"/>
      <point x="78" y="-489"/>
      <point x="176" y="-460"/>
    </contour>
    <contour>
      <point x="80" y="-600" type="move" name="L"/>
    </contour>
    <contour>
      <point x="376" y="1640" type="move" name="U"/>
    </contour>
  </outline>
</glyph>
<glyph name="LtnAlveolarClick" format="1">
  <advance width="626"/>
  <unicode hex="01C2"/>
  <outline>
    <contour>
      <point x="616" y="688" type="line"/>
      <point x="597" y="710" type="line"/>
      <point x="70" y="710" type="line"/>
      <point x="58" y="692"/>
      <point x="47" y="665"/>
      <point x="39" y="645" type="curve"/>
      <point x="58" y="620" type="line"/>
      <point x="585" y="620" type="line"/>
    </contour>
    <contour>
      <point x="592" y="458" type="line"/>
      <point x="573" y="480" type="line"/>
      <point x="46" y="480" type="line"/>
      <point x="34" y="462"/>
      <point x="23" y="435"/>
      <point x="15" y="415" type="curve"/>
      <point x="34" y="390" type="line"/>
      <point x="561" y="390" type="line"/>
    </contour>
    <contour>
      <point x="266" y="-439" type="curve"/>
      <point x="266" y="-203"/>
      <point x="477" y="1229"/>
      <point x="526" y="1498" type="curve"/>
      <point x="498" y="1520" type="line"/>
      <point x="462" y="1510"/>
      <point x="369" y="1481"/>
      <point x="333" y="1459" type="curve"/>
      <point x="359" y="1220"/>
      <point x="134" y="-217"/>
      <point x="84" y="-478" type="curve"/>
      <point x="112" y="-500" type="line"/>
      <point x="143" y="-489"/>
      <point x="241" y="-460"/>
    </contour>
    <contour>
      <point x="140" y="-600" type="move" name="L"/>
    </contour>
    <contour>
      <point x="466" y="1640" type="move" name="U"/>
    </contour>
  </outline>
</glyph>
<glyph name="LtnCapACaron" format="1">
  <advance width="1147"/>
  <unicode hex="01CD"/>
  <outline>
    <component base="LtnCapA"/>
    <component base="CombCaron.LP" xOffset="1053" yOffset="320"/>
    <contour>
      <point x="514" y="0" type="move" name="H"/>
    </contour>
    <contour>
      <point x="502" y="-100" type="move" name="L"/>
    </contour>
    <contour>
      <point x="846" y="0" type="move" name="O"/>
    </contour>
    <contour>
      <point x="745" y="1668" type="move" name="U"/>
    </contour>
  </outline>
</glyph>
<glyph name="LtnSmUCaron" format="1">
  <advance width="1022"/>
  <unicode hex="01D4"/>
  <outline>
    <component base="LtnSmU"/>
    <component base="CombCaron" xOffset="938"/>
    <contour>
      <point x="408" y="0" type="move" name="H"/>
    </contour>
    <contour>
      <point x="430" y="-100" type="move" name="L"/>
    </contour>
    <contour>
      <point x="797" y="0" type="move" name="O"/>
    </contour>
    <contour>
      <point x="1000" y="870" type="move" name="R"/>
    </contour>
    <contour>
      <point x="641" y="1422" type="move" name="U"/>
    </contour>
  </outline>
</glyph>
<glyph name="LtnCapOOgonekMacron" format="1">
  <advance width="1116"/>
  <unicode hex="01EC"/>
  <outline>
    <component base="LtnCapO"/>
    <component base="CombMacron.LP" xOffset="1065" yOffset="320"/>
    <component base="CombOgonek" xOffset="1016"/>
    <contour>
      <point x="500" y="0" type="move" name="H"/>
    </contour>
    <contour>
      <point x="428" y="-600" type="move" name="L"/>
    </contour>
    <contour>
      <point x="1202" y="1072" type="move" name="R"/>
    </contour>
    <contour>
      <point x="744" y="1640" type="move" name="U"/>
    </contour>
  </outline>
</glyph>
<glyph name="LtnSmEzhCaron" format="1">
  <advance width="816"/>
  <unicode hex="01EF"/>
  <outline>
    <component base="LtnSmEzh"/>
    <component base="CombCaron" xOffset="836"/>
    <contour>
      <point x="236" y="-600" type="move" name="L"/>
    </contour>
    <contour>
      <point x="539" y="1422" type="move" name="U"/>
    </contour>
  </outline>
</glyph>
<glyph name="LtnCapHwair" format="2">
  <advance width="1693"/>
  <unicode hex="01F6"/>
  <anchor x="775" y="-100" name="L"/>
  <anchor x="970" y="1320" name="U"/>
  <outline>
    <contour>
      <point x="1648" y="504" type="curve"/>
      <point x="1684" y="770"/>
      <point x="1606" y="922"/>
      <point x="1507" y="960" type="curve"/>
      <point x="1465" y="946"/>
      <point x="1365" y="917"/>
      <point x="1324" y="897" type="curve"/>
      <point x="1333" y="856" type="line"/>
      <point x="1492" y="850"/>
      <point x="1535" y="657"/>
      <point x="1507" y="451" type="curve" smooth="yes"/>
      <point x="1483" y="279"/>
      <point x="1369" y="88"/>
      <point x="1194" y="88" type="curve" smooth="yes"/>
      <point x="1106" y="88"/>
      <point x="1000" y="148"/>
      <point x="1030" y="372" type="curve" smooth="yes"/>
      <point x="1073" y="691" type="line"/>
      <point x="1019" y="694"/>
      <point x="923" y="648"/>
      <point x="906" y="521" type="curve" smooth="yes"/>
      <point x="880" y="329" type="line" smooth="yes"/>
      <point x="839" y="29"/>
      <point x="999" y="-30"/>
      <point x="1136" y="-30" type="curve" smooth="yes"/>
      <point x="1345" y="-30"/>
      <point x="1610" y="225"/>
    </contour>
    <contour>
      <point x="1286" y="1260" type="line"/>
      <point x="874" y="1260" type="line"/>
      <point x="870" y="1217" type="line"/>
      <point x="954" y="1198"/>
      <point x="995" y="1171"/>
      <point x="993" y="1155" type="curve" smooth="yes"/>
      <point x="897" y="464" type="line" smooth="yes"/>
      <point x="893" y="432"/>
      <point x="1040" y="448"/>
      <point x="1042" y="464" type="curve" smooth="yes"/>
      <point x="1139" y="1155" type="line" smooth="yes"/>
      <point x="1141" y="1174"/>
      <point x="1196" y="1198"/>
      <point x="1280" y="1217" type="curve"/>
    </contour>
    <contour>
      <point x="948" y="705" type="line"/>
      <point x="348" y="705" type="line"/>
      <point x="334" y="614" type="line"/>
      <point x="936" y="614" type="line"/>
    </contour>
    <contour>
      <point x="584" y="1260" type="line"/>
      <point x="174" y="1260" type="line"/>
      <point x="168" y="1217" type="line"/>
      <point x="254" y="1198"/>
      <point x="295" y="1171"/>
      <point x="293" y="1155" type="curve" smooth="yes"/>
      <point x="147" y="104" type="line" smooth="yes"/>
      <point x="145" y="86"/>
      <point x="90" y="61"/>
      <point x="6" y="43" type="curve"/>
      <point x="0" y="0" type="line"/>
      <point x="410" y="0" type="line"/>
      <point x="416" y="43" type="line"/>
      <point x="332" y="61"/>
      <point x="289" y="88"/>
      <point x="293" y="104" type="curve"/>
      <point x="436" y="1155" type="line"/>
      <point x="440" y="1174"/>
      <point x="494" y="1198"/>
      <point x="578" y="1217" type="curve"/>
    </contour>
  </outline>
</glyph>
<glyph name="LtnCapWynn" format="2">
  <advance width="1015"/>
  <unicode hex="01F7"/>
  <anchor x="358" y="-600" name="L"/>
  <anchor x="621" y="1320" name="U"/>
  <outline>
    <contour>
      <point x="1003" y="942" type="curve" smooth="yes"/>
      <point x="1035" y="1174"/>
      <point x="956" y="1290"/>
      <point x="791" y="1290" type="curve" smooth="yes"/>
      <point x="714" y="1290"/>
      <point x="574" y="1227"/>
      <point x="423" y="1067" type="curve"/>
      <point x="449" y="1255" type="line"/>
      <point x="423" y="1290" type="line"/>
      <point x="347" y="1252"/>
      <point x="258" y="1229"/>
      <point x="173" y="1210" type="curve"/>
      <point x="167" y="1167" type="line"/>
      <point x="280" y="1154"/>
      <point x="289" y="1138"/>
      <point x="275" y="1038" type="curve" smooth="yes"/>
      <point x="84" y="-375" type="line" smooth="yes"/>
      <point x="80" y="-398"/>
      <point x="32" y="-416"/>
      <point x="-50" y="-437" type="curve"/>
      <point x="-56" y="-480" type="line"/>
      <point x="366" y="-480" type="line"/>
      <point x="372" y="-437" type="line"/>
      <point x="262" y="-418"/>
      <point x="225" y="-396"/>
      <point x="228" y="-375" type="curve" smooth="yes"/>
      <point x="295" y="123" type="line"/>
      <point x="731" y="402"/>
      <point x="966" y="670"/>
    </contour>
    <contour>
      <point x="856" y="876" type="curve" smooth="yes"/>
      <point x="829" y="675"/>
      <point x="638" y="464"/>
      <point x="311" y="243" type="curve"/>
      <point x="406" y="940" type="line"/>
      <point x="544" y="1112"/>
      <point x="660" y="1164"/>
      <point x="713" y="1164" type="curve" smooth="yes"/>
      <point x="830" y="1164"/>
      <point x="880" y="1049"/>
    </contour>
  </outline>
</glyph>
<glyph name="LtnSmIDblGrave" format="1">
  <advance width="504"/>
  <unicode hex="0209"/>
  <outline>
    <component base="LtnSmDotlessI"/>
    <component base="CombDblGrave" xOffset="692"/>
    <contour>
      <point x="210" y="0" type="move" name="H"/>
    </contour>
    <contour>
      <point x="212" y="-100" type="move" name="L"/>
    </contour>
    <contour>
      <point x="272" y="0" type="move" name="O"/>
    </contour>
    <contour>
      <point x="520" y="870" type="move" name="R"/>
    </contour>
    <contour>
      <point x="420" y="1496" type="move" name="U"/>
    </contour>
  </outline>
</glyph>
<glyph name="LtnCapODblGrave" format="1">
  <advance width="1116"/>
  <unicode hex="020C"/>
  <outline>
    <component base="LtnCapO"/>
    <component base="CombDblGrave" xOffset="1058" yOffset="320"/>
    <contour>
      <point x="500" y="0" type="move" name="H"/>
    </contour>
    <contour>
      <point x="505" y="-100" type="move" name="L"/>
    </contour>
    <contour>
      <point x="560" y="0" type="move" name="O"/>
    </contour>
    <contour>
      <point x="1202" y="1072" type="move" name="R"/>
    </contour>
    <contour>
      <point x="786" y="1816" type="move" name="U"/>
    </contour>
  </outline>
</glyph>
